{
DisplayStrings = (
"Lody Tradycyjne\012Qulliympic/pointingindex ?!\012Qulliympic?!wars i sawa\012/Q2 ulliympic?!\012",
"[{{(()lj[{GOlantidotum}?\012a/aogonek \U00E6\U00E6l0023/lslash/lslash o-/oe \U00DFn\U00DFfsG\U00DFsk\012j/aogonek gie/lslash/lslash o nbknawiarnia?\012001127235996o49c547l7no647181819/zero.osf 2/one.osf/one2/two.osf/two.osf/three.osf/nine.osf/three.osf/seven.osf/five.osf ll/eight.osf ll/eight.osf l/nine.osf/four.osf/five.osf/four.osf/six.osf/seven.osf/eight.osf/nine.osf",
"/_part.SerifBottomRight/nnoga/_part.SerifUpLeft n/brzuszek/brzuszek amolkkksssonhaanovumueerrugnvvvomocoldpqttbbijjiidlz\012barudpm/_part.SerifBottomRight/nnoga nil#swag\012baraugdzlseeasonshkkpmnivgorjihnffyvtgr@@?!!!i??\012nnnnvnxvwnznyvzz\012mabnczzxaxniere de voiyr\012txtxnxrnxoxan  ad no\012nunnqpuam?\012textxe\012printing\012priogogcon",
"\U00E1\U00E5/zdotaccent \U00E9\U00ED\U00FA/wacute \U00FD/aogonek e/eogonek \U00F3/zdotaccent/zacute/sacute/cacute l/lslash oxz!\U00A1?\U00BF\012\U00E1\U00E5\U00E9\U00ED\U00FA \U00FDa/aogonek e\012/eogonek \U00F3/cacute/zdotaccent iz/zacute/sacute/cacute l/lslash oxzg!\U00A1?\U00BF",
"ludka_wk_kroje\012_{antylopa}[]()/emdash/endash -n\012\U00AB\U00BB/guilsinglleft/guilsinglright \012|\U00A6\012&\U00B6\U00A7",
"YnYoshiXawiery\012RRKKhXAGYGADDRBWwRZRZnSSGCODCYEEGWPutaXYnWVYOlMNNXG\012FFequiemoIIJJHVUUGLTZIEOQSOX/Q2 O/Q2 llimpic"
);
date = "2016-06-15 11:54:13 +0000";
familyName = "Etorle";
featurePrefixes = (
{
automatic = 1;
code = "languagesystem DFLT dflt;\012";
name = Languagesystems;
}
);
features = (
{
automatic = 1;
code = "feature lnum;\012feature onum;\012";
name = aalt;
},
{
automatic = 1;
code = "sub zero.osf by zero;\012sub one.osf by one;\012sub two.osf by two;\012sub three.osf by three;\012sub four.osf by four;\012sub five.osf by five;\012sub six.osf by six;\012sub seven.osf by seven;\012sub eight.osf by eight;\012sub nine.osf by nine;\012";
name = lnum;
},
{
automatic = 1;

glyphs = (
{
glyphname = A;
lastChange = "2016-08-19 23:45:40 +0000";
layers = (
{
anchors = (
{
name = bottom;
position = "{274, 0}";
},
{
name = ogonek;
position = "{483, 10}";
},
{
name = top;
position = "{385, 629}";
}
);
background = {
paths = (
{
closed = 1;
nodes = (
"413 230 LINE",
"410 253 LINE",
"189 253 LINE",
"169 230 LINE"
);
},
{
closed = 1;
nodes = (
"34 0 LINE",
"168 -2 LINE",
"170 12 LINE",
"85 38 LINE"
);
},
{
closed = 1;
nodes = (
"373 12 LINE",
"375 -2 LINE",
"464 0 LINE",
"488 43 LINE"
);
},
{
closed = 1;
nodes = (
"453 0 LINE",
"502 0 LINE",
"513 13 LINE",
"389 632 LINE",
"336 597 LINE"
);
},
{
closed = 1;
nodes = (
"-29 12 LINE",
"-27 -2 LINE",
"54 0 LINE",
"94 0 LINE",
"96 21 LINE",
"100 53 LINE"
);
},
{
closed = 1;
nodes = (
"343 615 LINE",
"34 0 LINE",
"54 0 LINE",
"94 0 LINE",
"357 587 LINE",
"389 632 LINE"
);
},
{
closed = 1;
nodes = (
"457 21 LINE",
"453 0 LINE",
"502 0 LINE",
"578 -2 LINE",
"580 12 LINE",
"454 53 LINE"
);
}
);
};
layerId = "97AFB7C9-FE9A-4B33-96EF-7CD144DFB325";
name = "Light Italic";
paths = (
{
closed = 1;
nodes = (
"415 240 LINE",
"412 263 LINE",
"191 263 LINE",
"171 240 LINE"
);
},
{
closed = 1;
nodes = (
"34 0 LINE",
"168 -2 LINE",
"170 12 LINE",
"85 38 LINE"
);
},
{
closed = 1;
nodes = (
"373 12 LINE",
"375 -2 LINE",
"464 0 LINE",
"488 43 LINE"
);
},
{
closed = 1;
nodes = (
"453 0 LINE",
"502 0 LINE",
"513 13 LINE",
"390 649 LINE",
"337 614 LINE"
);
},
{
closed = 1;
nodes = (
"-29 12 LINE",
"-27 -2 LINE",
"54 0 LINE",
"94 0 LINE",
"96 21 LINE",
"100 53 LINE"
);
},
{
closed = 1;
nodes = (
"344 632 LINE",
"34 0 LINE",
"54 0 LINE",
"94 0 LINE",
"358 604 LINE",
"390 649 LINE"
);
},
{
closed = 1;
nodes = (
"457 21 LINE",
"453 0 LINE",
"502 0 LINE",
"578 -2 LINE",
"580 12 LINE",
"454 53 LINE"
);
}
);
width = 622;
},
{
associatedMasterId = "97AFB7C9-FE9A-4B33-96EF-7CD144DFB325";
background = {
components = (
{
name = f;
transform = "{1, 0, 0, 1, -12, 0}";
}
);
};
layerId = "DC91C9AE-D871-407F-8D9D-2B8098520FE8";
name = "Light Italic Aug 3 16, 17:04";
paths = (
{
closed = 1;
nodes = (
"-182 -177 OFFCURVE",
"-160 -232 OFFCURVE",
"-92 -232 CURVE SMOOTH",
"3 -232 OFFCURVE",
"58 -156 OFFCURVE",
"123 28 CURVE SMOOTH",
"229 327 LINE SMOOTH",
"306 539 OFFCURVE",
"387 593 OFFCURVE",
"475 586 CURVE",
"494 605 LINE",
"312 630 OFFCURVE",
"228 485 OFFCURVE",
"171 319 CURVE SMOOTH",
"70 27 LINE SMOOTH",
"20 -117 OFFCURVE",
"-23 -212 OFFCURVE",
"-82 -212 CURVE SMOOTH",
"-113 -212 OFFCURVE",
"-125 -193 OFFCURVE",
"-132 -186 CURVE",
"-136 -211 LINE",
"-107 -211 LINE",
"-115 -202 OFFCURVE",
"-126 -183 OFFCURVE",
"-116 -131 CURVE SMOOTH",
"-105 -76 LINE",
"-130 -76 OFFCURVE",
"-164 -86 OFFCURVE",
"-174 -136 CURVE SMOOTH"
);
},
{
closed = 1;
nodes = (
"413 245 LINE",
"419 265 LINE",
"154 259 LINE",
"149 239 LINE"
);
},
{
closed = 1;
nodes = (
"455 588 LINE",
"446 550 OFFCURVE",
"407 360 OFFCURVE",
"380 182 CURVE SMOOTH",
"365 83 OFFCURVE",
"364 38 OFFCURVE",
"368 -2 CURVE",
"427 29 LINE",
"423 66 OFFCURVE",
"424 117 OFFCURVE",
"440 218 CURVE SMOOTH",
"469 402 OFFCURVE",
"504 569 OFFCURVE",
"515 619 CURVE"
);
},
{
closed = 1;
nodes = (
"368 -2 LINE",
"376 -4 OFFCURVE",
"383 -5 OFFCURVE",
"391 -5 CURVE SMOOTH",
"475 -5 OFFCURVE",
"532 107 OFFCURVE",
"532 135 CURVE",
"519 147 LINE",
"494 92 OFFCURVE",
"454 39 OFFCURVE",
"408 25 CURVE"
);
}
);
width = 570;
},
{
associatedMasterId = "97AFB7C9-FE9A-4B33-96EF-7CD144DFB325";
background = {
paths = (
{
closed = 1;
nodes = (
"410 226 LINE",
"407 257 LINE",
"196 256 LINE",
"176 226 LINE"
);
},
{
closed = 1;
nodes = (
"-29 -2 LINE",
"-16 -1 OFFCURVE",
"19 0 OFFCURVE",
"73 0 CURVE SMOOTH",
"115 0 OFFCURVE",
"169 -2 OFFCURVE",
"184 -3 CURVE",
"195 29 LINE",
"123 45 OFFCURVE",
"100 51 OFFCURVE",
"123 96 CURVE SMOOTH",
"368 569 LINE",
"351 569 LINE",
"431 43 LINE",
"348 28 LINE",
"348 -2 LINE",
"365 -1 OFFCURVE",
"403 0 OFFCURVE",
"464 0 CURVE SMOOTH",
"517 0 OFFCURVE",
"548 -2 OFFCURVE",
"566 -3 CURVE",
"579 29 LINE",
"538 39 OFFCURVE",
"508 55 OFFCURVE",
"495 129 CURVE SMOOTH",
"435 488 LINE SMOOTH",
"426 542 OFFCURVE",
"420 593 OFFCURVE",
"418 637 CURVE",
"398 635 OFFCURVE",
"374 631 OFFCURVE",
"358 627 CURVE",
"335 577 OFFCURVE",
"310 525 OFFCURVE",
"278 465 CURVE SMOOTH",
"113 157 LINE SMOOTH",
"92 118 OFFCURVE",
"71 77 OFFCURVE",
"51 44 CURVE",
"-29 28 LINE"
);
}
);
};
layerId = "9EE90922-6533-4FE4-A5E0-BC29688C9070";
name = "Light Italic Aug 3 16, 17:05";
paths = (
{
closed = 1;
nodes = (
"410 226 LINE",
"407 257 LINE",
"196 256 LINE",
"176 226 LINE"
);
},
{
closed = 1;
nodes = (
"-29 -2 LINE",
"-16 -1 OFFCURVE",
"19 0 OFFCURVE",
"73 0 CURVE SMOOTH",
"115 0 OFFCURVE",
"169 -2 OFFCURVE",
"184 -3 CURVE",
"195 29 LINE",
"123 45 OFFCURVE",
"100 51 OFFCURVE",
"123 96 CURVE SMOOTH",
"368 569 LINE",
"351 569 LINE",
"431 43 LINE",
"348 28 LINE",
"348 -2 LINE",
"365 -1 OFFCURVE",
"403 0 OFFCURVE",
"464 0 CURVE SMOOTH",
"517 0 OFFCURVE",
"548 -2 OFFCURVE",
"566 -3 CURVE",
"579 29 LINE",
"538 39 OFFCURVE",
"508 55 OFFCURVE",
"495 129 CURVE SMOOTH",
"435 488 LINE SMOOTH",
"426 542 OFFCURVE",
"420 593 OFFCURVE",
"418 637 CURVE",
"398 635 OFFCURVE",
"374 631 OFFCURVE",
"358 627 CURVE",
"335 577 OFFCURVE",
"310 525 OFFCURVE",
"278 465 CURVE SMOOTH",
"113 157 LINE SMOOTH",
"92 118 OFFCURVE",
"71 77 OFFCURVE",
"51 44 CURVE",
"-29 28 LINE"
);
}
);
width = 620;
},
{
associatedMasterId = "97AFB7C9-FE9A-4B33-96EF-7CD144DFB325";
background = {
paths = (
{
closed = 1;
nodes = (
"410 230 LINE",
"407 253 LINE",
"196 253 LINE",
"176 230 LINE"
);
},
{
closed = 1;
nodes = (
"73 0 LINE",
"368 569 LINE",
"351 569 LINE",
"438 0 LINE",
"515 0 LINE",
"435 488 LINE SMOOTH",
"426 542 OFFCURVE",
"418 593 OFFCURVE",
"411 637 CURVE",
"361 627 LINE",
"336 577 OFFCURVE",
"309 523 OFFCURVE",
"278 465 CURVE SMOOTH",
"29 0 LINE"
);
},
{
closed = 1;
nodes = (
"42 0 LINE",
"178 -2 LINE",
"180 12 LINE",
"75 38 LINE"
);
},
{
closed = 1;
nodes = (
"-31 12 LINE",
"-29 -2 LINE",
"62 0 LINE",
"73 25 LINE",
"73 43 LINE"
);
},
{
closed = 1;
nodes = (
"463 0 LINE",
"570 -2 LINE",
"572 12 LINE",
"480 43 LINE"
);
},
{
closed = 1;
nodes = (
"353 12 LINE",
"355 -2 LINE",
"474 0 LINE",
"498 43 LINE"
);
}
);
};
layerId = "2351B4FC-6F40-4DFB-8007-4219130B8462";
name = "Light Italic Aug 3 16, 17:10";
paths = (
{
closed = 1;
nodes = (
"410 230 LINE",
"407 253 LINE",
"196 253 LINE",
"176 230 LINE"
);
},
{
closed = 1;
nodes = (
"73 0 LINE",
"368 569 LINE",
"351 569 LINE",
"438 0 LINE",
"515 0 LINE",
"435 488 LINE SMOOTH",
"426 542 OFFCURVE",
"418 593 OFFCURVE",
"411 637 CURVE",
"361 627 LINE",
"336 577 OFFCURVE",
"309 523 OFFCURVE",
"278 465 CURVE SMOOTH",
"29 0 LINE"
);
},
{
closed = 1;
nodes = (
"42 0 LINE",
"178 -2 LINE",
"180 12 LINE",
"75 38 LINE"
);
},
{
closed = 1;
nodes = (
"-31 12 LINE",
"-29 -2 LINE",
"62 0 LINE",
"73 25 LINE",
"73 43 LINE"
);
},
{
closed = 1;
nodes = (
"463 0 LINE",
"570 -2 LINE",
"572 12 LINE",
"480 43 LINE"
);
},
{
closed = 1;
nodes = (
"353 12 LINE",
"355 -2 LINE",
"474 0 LINE",
"498 43 LINE"
);
}
);
width = 616;
},
{
layerId = "EADDC163-A127-4E50-A035-005E723BF706";
name = "SemiBold Italic";
width = 600;
},
{
associatedMasterId = "97AFB7C9-FE9A-4B33-96EF-7CD144DFB325";
layerId = "60364A61-8528-4CFA-9C5F-AAFF7F7AAB3B";
name = "Light Italic Aug 20 16, 00:54";
paths = (
{
closed = 1;
nodes = (
"413 230 LINE",
"410 253 LINE",
"189 253 LINE",
"169 230 LINE"
);
},
{
closed = 1;
nodes = (
"70 0 LINE",
"354 569 LINE",
"344 569 LINE",
"444 0 LINE",
"521 0 LINE",
"428 488 LINE SMOOTH",
"418 542 OFFCURVE",
"408 593 OFFCURVE",
"400 637 CURVE",
"354 627 LINE",
"29 0 LINE"
);
},
{
closed = 1;
nodes = (
"42 0 LINE",
"178 -2 LINE",
"180 12 LINE",
"75 38 LINE"
);
},
{
closed = 1;
nodes = (
"-31 12 LINE",
"-29 -2 LINE",
"62 0 LINE",
"73 25 LINE",
"73 43 LINE"
);
},
{
closed = 1;
nodes = (
"469 0 LINE",
"576 -2 LINE",
"578 12 LINE",
"486 43 LINE"
);
},
{
closed = 1;
nodes = (
"359 12 LINE",
"361 -2 LINE",
"480 0 LINE",
"504 43 LINE"
);
}
);
width = 622;
}
);
unicode = 0041;
},
{
glyphname = B;
lastChange = "2016-08-19 23:34:31 +0000";
layers = (
{
background = {
paths = (
{
closed = 1;
nodes = (
"168 309 LINE",
"185 309 LINE",
"187 322 LINE",
"237 323 LINE SMOOTH",
"394 326 OFFCURVE",
"449 259 OFFCURVE",
"431 150 CURVE SMOOTH",
"418 73 OFFCURVE",
"353 22 OFFCURVE",
"263 22 CURVE SMOOTH",
"210 22 OFFCURVE",
"175 26 OFFCURVE",
"130 41 CURVE",
"-3 -2 LINE",
"74 0 OFFCURVE",
"164 -3 OFFCURVE",
"251 -3 CURVE SMOOTH",
"371 -3 OFFCURVE",
"497 55 OFFCURVE",
"517 174 CURVE SMOOTH",
"531 262 OFFCURVE",
"463 333 OFFCURVE",
"307 341 CURVE",
"317 328 LINE",
"410 341 OFFCURVE",
"493 386 OFFCURVE",
"510 480 CURVE SMOOTH",
"528 579 OFFCURVE",
"450 637 OFFCURVE",
"309 637 CURVE SMOOTH",
"242 637 OFFCURVE",
"194 635 OFFCURVE",
"101 637 CURVE",
"99 632 LINE",
"223 613 LINE",
"239 616 OFFCURVE",
"269 617 OFFCURVE",
"296 617 CURVE SMOOTH",
"397 617 OFFCURVE",
"453 564 OFFCURVE",
"438 479 CURVE SMOOTH",
"421 375 OFFCURVE",
"337 344 OFFCURVE",
"231 344 CURVE SMOOTH",
"192 344 LINE",
"194 359 LINE",
"168 359 LINE"
);
},
{
closed = 1;
nodes = (
"73 0 LINE",
"135 0 LINE",
"238 636 LINE",
"177 636 LINE"
);
},
{
closed = 1;
nodes = (
"210 611 LINE",
"179 636 LINE",
"95 638 LINE",
"93 624 LINE",
"210 593 LINE"
);
},
{
closed = 1;
nodes = (
"105 25 LINE",
"136 0 LINE",
"220 -2 LINE",
"222 12 LINE",
"105 43 LINE"
);
},
{
closed = 1;
nodes = (
"-5 12 LINE",
"-3 -2 LINE",
"77 0 LINE",
"123 25 LINE",
"123 43 LINE"
);
}
);
};
layerId = "97AFB7C9-FE9A-4B33-96EF-7CD144DFB325";
name = "Light Italic";
paths = (
{
closed = 1;
nodes = (
"168 309 LINE",
"185 309 LINE",
"187 322 LINE",
"237 323 LINE SMOOTH",
"394 326 OFFCURVE",
"454 259 OFFCURVE",
"436 150 CURVE SMOOTH",
"423 73 OFFCURVE",
"353 19 OFFCURVE",
"243 19 CURVE SMOOTH",
"200 19 OFFCURVE",
"165 21 OFFCURVE",
"130 23 CURVE",
"-3 -2 LINE",
"74 0 OFFCURVE",
"164 -3 OFFCURVE",
"231 -3 CURVE SMOOTH",
"391 -3 OFFCURVE",
"492 55 OFFCURVE",
"512 174 CURVE SMOOTH",
"526 262 OFFCURVE",
"463 333 OFFCURVE",
"307 341 CURVE",
"317 328 LINE",
"410 341 OFFCURVE",
"491 386 OFFCURVE",
"508 480 CURVE SMOOTH",
"526 579 OFFCURVE",
"450 637 OFFCURVE",
"309 637 CURVE SMOOTH",
"242 637 OFFCURVE",
"194 635 OFFCURVE",
"101 637 CURVE",
"99 632 LINE",
"223 613 LINE",
"239 616 OFFCURVE",
"269 617 OFFCURVE",
"296 617 CURVE SMOOTH",
"397 617 OFFCURVE",
"455 564 OFFCURVE",
"440 479 CURVE SMOOTH",
"423 375 OFFCURVE",
"337 344 OFFCURVE",
"231 344 CURVE SMOOTH",
"192 344 LINE",
"194 359 LINE",
"168 359 LINE"
);
},
{
closed = 1;
nodes = (
"73 0 LINE",
"135 0 LINE",
"238 636 LINE",
"177 636 LINE"
);
},
{
closed = 1;
nodes = (
"210 611 LINE",
"179 636 LINE",
"95 638 LINE",
"93 624 LINE",
"210 593 LINE"
);
},
{
closed = 1;
nodes = (
"-5 12 LINE",
"-3 -2 LINE",
"87 0 LINE",
"113 25 LINE",
"113 43 LINE"
);
}
);
width = 565;
},
{
associatedMasterId = "97AFB7C9-FE9A-4B33-96EF-7CD144DFB325";
background = {
paths = (
{
closed = 1;
nodes = (
"69 0 LINE",
"127 0 LINE",
"227 608 LINE",
"168 608 LINE"
);
},
{
closed = 1;
nodes = (
"199 583 LINE",
"168 608 LINE",
"84 610 LINE",
"82 596 LINE",
"199 565 LINE"
);
},
{
closed = 1;
nodes = (
"-4 12 LINE",
"-2 -2 LINE",
"67 0 LINE",
"113 25 LINE",
"113 43 LINE"
);
},
{
closed = 1;
nodes = (
"11 -3 OFFCURVE",
"110 -6 OFFCURVE",
"231 -6 CURVE SMOOTH",
"399 -6 OFFCURVE",
"480 63 OFFCURVE",
"490 167 CURVE SMOOTH",
"498.95 257.989 OFFCURVE",
"417.789 303.923 OFFCURVE",
"326.998 313.929 CURVE",
"407.301 327.561 OFFCURVE",
"481.759 372.634 OFFCURVE",
"494 454 CURVE SMOOTH",
"509 556 OFFCURVE",
"428 615 OFFCURVE",
"257 615 CURVE SMOOTH",
"196 615 OFFCURVE",
"97 612 OFFCURVE",
"84 610 CURVE",
"182 568 LINE",
"225 595 LINE",
"270 595 LINE SMOOTH",
"387 595 OFFCURVE",
"437 534 OFFCURVE",
"425 443 CURVE SMOOTH",
"415 364 OFFCURVE",
"335 319 OFFCURVE",
"234 319 CURVE",
"234 307 LINE",
"345 310 OFFCURVE",
"427 246 OFFCURVE",
"422 159 CURVE SMOOTH",
"416 69 OFFCURVE",
"358 14 OFFCURVE",
"244 14 CURVE SMOOTH",
"139 14 LINE",
"96 41 LINE",
"-2 -1 LINE"
);
}
);
};
layerId = "7382408E-7013-4B06-B2FA-64926CD191F3";
name = "Light Italic Aug 2 16, 23:34";
paths = (
{
closed = 1;
nodes = (
"69 0 LINE",
"127 0 LINE",
"227 608 LINE",
"168 608 LINE"
);
},
{
closed = 1;
nodes = (
"199 583 LINE",
"168 608 LINE",
"84 610 LINE",
"82 596 LINE",
"199 565 LINE"
);
},
{
closed = 1;
nodes = (
"-4 12 LINE",
"-2 -2 LINE",
"67 0 LINE",
"113 25 LINE",
"113 43 LINE"
);
},
{
closed = 1;
nodes = (
"11 -3 OFFCURVE",
"110 -6 OFFCURVE",
"231 -6 CURVE SMOOTH",
"399 -6 OFFCURVE",
"480 63 OFFCURVE",
"490 167 CURVE SMOOTH",
"498.95 257.989 OFFCURVE",
"417.789 303.923 OFFCURVE",
"326.998 313.929 CURVE",
"407.301 327.561 OFFCURVE",
"481.759 372.634 OFFCURVE",
"494 454 CURVE SMOOTH",
"509 556 OFFCURVE",
"428 615 OFFCURVE",
"257 615 CURVE SMOOTH",
"196 615 OFFCURVE",
"97 612 OFFCURVE",
"84 610 CURVE",
"182 568 LINE",
"225 595 LINE",
"270 595 LINE SMOOTH",
"387 595 OFFCURVE",
"437 534 OFFCURVE",
"425 443 CURVE SMOOTH",
"415 364 OFFCURVE",
"335 319 OFFCURVE",
"234 319 CURVE",
"234 307 LINE",
"345 310 OFFCURVE",
"427 246 OFFCURVE",
"422 159 CURVE SMOOTH",
"416 69 OFFCURVE",
"358 14 OFFCURVE",
"244 14 CURVE SMOOTH",
"139 14 LINE",
"96 41 LINE",
"-2 -1 LINE"
);
}
);
width = 600;
},
{
associatedMasterId = "97AFB7C9-FE9A-4B33-96EF-7CD144DFB325";
background = {
paths = (
{
closed = 1;
nodes = (
"69 0 LINE",
"127 0 LINE",
"227 608 LINE",
"168 608 LINE"
);
},
{
closed = 1;
nodes = (
"199 583 LINE",
"168 608 LINE",
"84 610 LINE",
"82 596 LINE",
"199 565 LINE"
);
},
{
closed = 1;
nodes = (
"-4 12 LINE",
"-2 -2 LINE",
"67 0 LINE",
"113 25 LINE",
"113 43 LINE"
);
},
{
closed = 1;
nodes = (
"77 -1 OFFCURVE",
"120 -6 OFFCURVE",
"251 -6 CURVE SMOOTH",
"369 -6 OFFCURVE",
"479 48 OFFCURVE",
"491 157 CURVE SMOOTH",
"503 264 OFFCURVE",
"418 325 OFFCURVE",
"323 318 CURVE",
"306 312 LINE",
"367 309 OFFCURVE",
"472 357 OFFCURVE",
"484 459 CURVE SMOOTH",
"496 561 OFFCURVE",
"418 615 OFFCURVE",
"297 615 CURVE SMOOTH",
"196 615 OFFCURVE",
"134 610 OFFCURVE",
"84 610 CURVE",
"182 568 LINE",
"225 595 LINE",
"240 595 LINE SMOOTH",
"377 595 OFFCURVE",
"424 545 OFFCURVE",
"414 452 CURVE SMOOTH",
"404 363 OFFCURVE",
"335 321 OFFCURVE",
"244 321 CURVE",
"244 305 LINE",
"355 309 OFFCURVE",
"433 264 OFFCURVE",
"423 160 CURVE SMOOTH",
"412 50 OFFCURVE",
"320 14 OFFCURVE",
"214 14 CURVE SMOOTH",
"129 14 LINE",
"96 41 LINE",
"-2 -1 LINE"
);
}
);
};
layerId = "A88D1597-A006-4DE0-BBEC-928659ADA705";
name = "Light Italic Aug 3 16, 14:35";
paths = (
{
closed = 1;
nodes = (
"69 0 LINE",
"127 0 LINE",
"227 608 LINE",
"168 608 LINE"
);
},
{
closed = 1;
nodes = (
"199 583 LINE",
"168 608 LINE",
"84 610 LINE",
"82 596 LINE",
"199 565 LINE"
);
},
{
closed = 1;
nodes = (
"-4 12 LINE",
"-2 -2 LINE",
"67 0 LINE",
"113 25 LINE",
"113 43 LINE"
);
},
{
closed = 1;
nodes = (
"77 -1 OFFCURVE",
"120 -6 OFFCURVE",
"251 -6 CURVE SMOOTH",
"369 -6 OFFCURVE",
"479 48 OFFCURVE",
"491 157 CURVE SMOOTH",
"503 264 OFFCURVE",
"418 325 OFFCURVE",
"323 318 CURVE",
"297 312 LINE",
"358 309 OFFCURVE",
"463 357 OFFCURVE",
"475 459 CURVE SMOOTH",
"487 561 OFFCURVE",
"409 615 OFFCURVE",
"277 615 CURVE SMOOTH",
"196 615 OFFCURVE",
"134 610 OFFCURVE",
"84 610 CURVE",
"182 568 LINE",
"225 595 LINE",
"240 595 LINE SMOOTH",
"368 595 OFFCURVE",
"415 545 OFFCURVE",
"405 452 CURVE SMOOTH",
"395 363 OFFCURVE",
"326 321 OFFCURVE",
"244 321 CURVE",
"244 305 LINE",
"355 309 OFFCURVE",
"433 264 OFFCURVE",
"423 160 CURVE SMOOTH",
"412 50 OFFCURVE",
"320 14 OFFCURVE",
"214 14 CURVE SMOOTH",
"129 14 LINE",
"96 41 LINE",
"-2 -1 LINE"
);
}
);
width = 526;
},
{
associatedMasterId = "97AFB7C9-FE9A-4B33-96EF-7CD144DFB325";
background = {
paths = (
{
closed = 1;
nodes = (
"381 -3 OFFCURVE",
"497 65 OFFCURVE",
"517 190 CURVE SMOOTH",
"531 272 OFFCURVE",
"463 330 OFFCURVE",
"327 341 CURVE",
"339 328 LINE",
"412 344 OFFCURVE",
"497 402 OFFCURVE",
"512 490 CURVE SMOOTH",
"526 579 OFFCURVE",
"450 631 OFFCURVE",
"309 630 CURVE SMOOTH",
"242 630 OFFCURVE",
"192 628 OFFCURVE",
"99 630 CURVE",
"89 599 LINE",
"165 583 OFFCURVE",
"164 568 OFFCURVE",
"147 467 CURVE SMOOTH",
"77 43 LINE",
"-3 28 LINE",
"-3 -2 LINE",
"72 0 OFFCURVE",
"164 -3 OFFCURVE",
"251 -3 CURVE SMOOTH"
);
},
{
closed = 1;
nodes = (
"157 28 OFFCURVE",
"142 45 OFFCURVE",
"156 131 CURVE SMOOTH",
"187 317 LINE",
"263 318 LINE SMOOTH",
"390 320 OFFCURVE",
"445 259 OFFCURVE",
"431 176 CURVE SMOOTH",
"414 73 OFFCURVE",
"343 28 OFFCURVE",
"263 28 CURVE SMOOTH"
);
},
{
closed = 1;
nodes = (
"237 616 LINE",
"221 581 LINE",
"237 596 OFFCURVE",
"267 599 OFFCURVE",
"304 599 CURVE SMOOTH",
"395 599 OFFCURVE",
"451 554 OFFCURVE",
"439 478 CURVE SMOOTH",
"421 371 OFFCURVE",
"337 349 OFFCURVE",
"261 349 CURVE SMOOTH",
"192 349 LINE"
);
}
);
};
layerId = "57372B07-8EA0-4FE7-AA09-9697090E2634";
name = "Light Italic Aug 3 16, 16:08";
paths = (
{
closed = 1;
nodes = (
"381 -3 OFFCURVE",
"497 65 OFFCURVE",
"517 190 CURVE SMOOTH",
"531 272 OFFCURVE",
"463 330 OFFCURVE",
"327 341 CURVE",
"339 328 LINE",
"412 344 OFFCURVE",
"497 402 OFFCURVE",
"512 490 CURVE SMOOTH",
"526 579 OFFCURVE",
"450 631 OFFCURVE",
"309 630 CURVE SMOOTH",
"242 630 OFFCURVE",
"192 628 OFFCURVE",
"99 630 CURVE",
"89 599 LINE",
"165 583 OFFCURVE",
"164 568 OFFCURVE",
"147 467 CURVE SMOOTH",
"77 43 LINE",
"-3 28 LINE",
"-3 -2 LINE",
"72 0 OFFCURVE",
"164 -3 OFFCURVE",
"251 -3 CURVE SMOOTH"
);
},
{
closed = 1;
nodes = (
"157 28 OFFCURVE",
"142 45 OFFCURVE",
"156 131 CURVE SMOOTH",
"187 317 LINE",
"263 318 LINE SMOOTH",
"390 320 OFFCURVE",
"445 259 OFFCURVE",
"431 176 CURVE SMOOTH",
"414 73 OFFCURVE",
"343 28 OFFCURVE",
"263 28 CURVE SMOOTH"
);
},
{
closed = 1;
nodes = (
"237 616 LINE",
"221 581 LINE",
"237 596 OFFCURVE",
"267 599 OFFCURVE",
"304 599 CURVE SMOOTH",
"395 599 OFFCURVE",
"451 554 OFFCURVE",
"439 478 CURVE SMOOTH",
"421 371 OFFCURVE",
"337 349 OFFCURVE",
"261 349 CURVE SMOOTH",
"192 349 LINE"
);
}
);
width = 526;
},
{
layerId = "EADDC163-A127-4E50-A035-005E723BF706";
name = "SemiBold Italic";
width = 600;
},
{
associatedMasterId = "97AFB7C9-FE9A-4B33-96EF-7CD144DFB325";
background = {
paths = (
{
closed = 1;
nodes = (
"381 -3 OFFCURVE",
"497 65 OFFCURVE",
"517 190 CURVE SMOOTH",
"531 272 OFFCURVE",
"463 330 OFFCURVE",
"327 341 CURVE",
"339 328 LINE",
"412 344 OFFCURVE",
"497 402 OFFCURVE",
"512 490 CURVE SMOOTH",
"526 579 OFFCURVE",
"450 631 OFFCURVE",
"309 630 CURVE SMOOTH",
"242 630 OFFCURVE",
"192 628 OFFCURVE",
"99 630 CURVE",
"89 599 LINE",
"165 583 OFFCURVE",
"164 568 OFFCURVE",
"147 467 CURVE SMOOTH",
"77 43 LINE",
"-3 28 LINE",
"-3 -2 LINE",
"72 0 OFFCURVE",
"164 -3 OFFCURVE",
"251 -3 CURVE SMOOTH"
);
},
{
closed = 1;
nodes = (
"157 28 OFFCURVE",
"142 45 OFFCURVE",
"156 131 CURVE SMOOTH",
"187 317 LINE",
"263 318 LINE SMOOTH",
"390 320 OFFCURVE",
"445 259 OFFCURVE",
"431 176 CURVE SMOOTH",
"414 73 OFFCURVE",
"343 28 OFFCURVE",
"263 28 CURVE SMOOTH"
);
},
{
closed = 1;
nodes = (
"237 616 LINE",
"221 581 LINE",
"237 596 OFFCURVE",
"267 599 OFFCURVE",
"304 599 CURVE SMOOTH",
"395 599 OFFCURVE",
"451 554 OFFCURVE",
"439 478 CURVE SMOOTH",
"421 371 OFFCURVE",
"337 349 OFFCURVE",
"261 349 CURVE SMOOTH",
"192 349 LINE"
);
}
);
};
layerId = "5DE2E9F1-3334-44FA-81A2-8C0C629AFC7E";
name = "Light Italic Aug 20 16, 00:52";
paths = (
{
closed = 1;
nodes = (
"168 309 LINE",
"185 309 LINE",
"187 320 LINE",
"267 321 LINE SMOOTH",
"394 323 OFFCURVE",
"449 259 OFFCURVE",
"434 166 CURVE SMOOTH",
"418 73 OFFCURVE",
"353 22 OFFCURVE",
"263 22 CURVE SMOOTH",
"210 22 OFFCURVE",
"175 26 OFFCURVE",
"130 41 CURVE",
"-3 -2 LINE",
"72 0 OFFCURVE",
"164 -3 OFFCURVE",
"251 -3 CURVE SMOOTH",
"371 -3 OFFCURVE",
"497 55 OFFCURVE",
"516 170 CURVE SMOOTH",
"531 262 OFFCURVE",
"463 330 OFFCURVE",
"327 341 CURVE",
"337 328 LINE",
"410 344 OFFCURVE",
"493 382 OFFCURVE",
"510 480 CURVE SMOOTH",
"527 579 OFFCURVE",
"438 631 OFFCURVE",
"307 630 CURVE SMOOTH",
"240 630 OFFCURVE",
"192 628 OFFCURVE",
"99 630 CURVE",
"97 625 LINE",
"221 597 LINE",
"237 602 OFFCURVE",
"267 605 OFFCURVE",
"304 605 CURVE SMOOTH",
"395 605 OFFCURVE",
"451 554 OFFCURVE",
"437 469 CURVE SMOOTH",
"421 371 OFFCURVE",
"337 346 OFFCURVE",
"261 346 CURVE SMOOTH",
"192 346 LINE",
"194 359 LINE",
"168 359 LINE"
);
},
{
closed = 1;
nodes = (
"72 0 LINE",
"135 0 LINE",
"238 629 LINE",
"175 629 LINE"
);
},
{
closed = 1;
nodes = (
"208 604 LINE",
"177 629 LINE",
"93 631 LINE",
"91 617 LINE",
"208 586 LINE"
);
},
{
closed = 1;
nodes = (
"105 25 LINE",
"136 0 LINE",
"220 -2 LINE",
"222 12 LINE",
"105 43 LINE"
);
},
{
closed = 1;
nodes = (
"-5 12 LINE",
"-3 -2 LINE",
"77 0 LINE",
"123 25 LINE",
"123 43 LINE"
);
}
);
width = 526;
},
{
associatedMasterId = "97AFB7C9-FE9A-4B33-96EF-7CD144DFB325";
background = {
paths = (
{
closed = 1;
nodes = (
"168 309 LINE",
"185 309 LINE",
"187 322 LINE",
"237 323 LINE SMOOTH",
"394 326 OFFCURVE",
"449 259 OFFCURVE",
"434 166 CURVE SMOOTH",
"418 73 OFFCURVE",
"353 22 OFFCURVE",
"263 22 CURVE SMOOTH",
"210 22 OFFCURVE",
"175 26 OFFCURVE",
"130 41 CURVE",
"-3 -2 LINE",
"72 0 OFFCURVE",
"164 -3 OFFCURVE",
"251 -3 CURVE SMOOTH",
"371 -3 OFFCURVE",
"497 55 OFFCURVE",
"516 170 CURVE SMOOTH",
"531 262 OFFCURVE",
"463 333 OFFCURVE",
"307 341 CURVE",
"317 328 LINE",
"410 341 OFFCURVE",
"493 382 OFFCURVE",
"510 480 CURVE SMOOTH",
"527 579 OFFCURVE",
"438 631 OFFCURVE",
"307 630 CURVE SMOOTH",
"240 630 OFFCURVE",
"192 628 OFFCURVE",
"99 630 CURVE",
"97 625 LINE",
"221 597 LINE",
"237 602 OFFCURVE",
"267 605 OFFCURVE",
"304 605 CURVE SMOOTH",
"395 605 OFFCURVE",
"451 554 OFFCURVE",
"437 469 CURVE SMOOTH",
"421 371 OFFCURVE",
"337 344 OFFCURVE",
"231 344 CURVE SMOOTH",
"192 344 LINE",
"194 359 LINE",
"168 359 LINE"
);
},
{
closed = 1;
nodes = (
"72 0 LINE",
"135 0 LINE",
"238 629 LINE",
"175 629 LINE"
);
},
{
closed = 1;
nodes = (
"208 604 LINE",
"177 629 LINE",
"93 631 LINE",
"91 617 LINE",
"208 586 LINE"
);
},
{
closed = 1;
nodes = (
"105 25 LINE",
"136 0 LINE",
"220 -2 LINE",
"222 12 LINE",
"105 43 LINE"
);
},
{
closed = 1;
nodes = (
"-5 12 LINE",
"-3 -2 LINE",
"77 0 LINE",
"123 25 LINE",
"123 43 LINE"
);
}
);
};
layerId = "69DC69BF-3D62-4788-B07D-72807CD154CC";
name = "Light Italic Aug 20 16, 01:29";
paths = (
{
closed = 1;
nodes = (
"168 309 LINE",
"185 309 LINE",
"187 322 LINE",
"237 323 LINE SMOOTH",
"394 326 OFFCURVE",
"449 259 OFFCURVE",
"434 166 CURVE SMOOTH",
"418 73 OFFCURVE",
"353 22 OFFCURVE",
"263 22 CURVE SMOOTH",
"210 22 OFFCURVE",
"175 26 OFFCURVE",
"130 41 CURVE",
"-3 -2 LINE",
"72 0 OFFCURVE",
"164 -3 OFFCURVE",
"251 -3 CURVE SMOOTH",
"371 -3 OFFCURVE",
"497 55 OFFCURVE",
"516 170 CURVE SMOOTH",
"531 262 OFFCURVE",
"463 333 OFFCURVE",
"307 341 CURVE",
"317 328 LINE",
"410 341 OFFCURVE",
"493 382 OFFCURVE",
"510 480 CURVE SMOOTH",
"527 579 OFFCURVE",
"438 631 OFFCURVE",
"307 630 CURVE SMOOTH",
"240 630 OFFCURVE",
"192 628 OFFCURVE",
"99 630 CURVE",
"97 625 LINE",
"221 597 LINE",
"237 602 OFFCURVE",
"267 605 OFFCURVE",
"304 605 CURVE SMOOTH",
"395 605 OFFCURVE",
"451 554 OFFCURVE",
"437 469 CURVE SMOOTH",
"421 371 OFFCURVE",
"337 344 OFFCURVE",
"231 344 CURVE SMOOTH",
"192 344 LINE",
"194 359 LINE",
"168 359 LINE"
);
},
{
closed = 1;
nodes = (
"72 0 LINE",
"135 0 LINE",
"238 629 LINE",
"175 629 LINE"
);
},
{
closed = 1;
nodes = (
"208 604 LINE",
"177 629 LINE",
"93 631 LINE",
"91 617 LINE",
"208 586 LINE"
);
},
{
closed = 1;
nodes = (
"105 25 LINE",
"136 0 LINE",
"220 -2 LINE",
"222 12 LINE",
"105 43 LINE"
);
},
{
closed = 1;
nodes = (
"-5 12 LINE",
"-3 -2 LINE",
"77 0 LINE",
"123 25 LINE",
"123 43 LINE"
);
}
);
width = 565;
}
);
unicode = 0042;
},
{
glyphname = C;
lastChange = "2016-08-19 23:43:23 +0000";
layers = (
{
anchors = (
{
name = bottom;
position = "{289, 0}";
},
{
name = top;
position = "{413, 629}";
}
);
background = {
components = (
{
name = G;
transform = "{1, 0, 0, 1, 12, 0}";
}
);
};
guideLines = (
{
angle = 80.594;
position = "{535, 42}";
}
);
layerId = "97AFB7C9-FE9A-4B33-96EF-7CD144DFB325";
name = "Light Italic";
paths = (
{
closed = 1;
nodes = (
"501 615 OFFCURVE",
"562 580 OFFCURVE",
"588 559 CURVE",
"539 600 LINE",
"571 468 LINE",
"589 468 LINE",
"613 607 LINE",
"580 599 LINE",
"550 551 LINE",
"613 607 LINE",
"576 624 OFFCURVE",
"521 641 OFFCURVE",
"426 641 CURVE SMOOTH",
"244 641 OFFCURVE",
"107 529 OFFCURVE",
"75 332 CURVE SMOOTH",
"38 101 OFFCURVE",
"173 -7 OFFCURVE",
"348 -7 CURVE SMOOTH",
"445 -7 OFFCURVE",
"527 16 OFFCURVE",
"550 34 CURVE",
"571 181 LINE",
"551 183 LINE",
"474 22 LINE",
"541 95 LINE",
"484 36 OFFCURVE",
"449 18 OFFCURVE",
"367 18 CURVE SMOOTH",
"205 18 OFFCURVE",
"115 157 OFFCURVE",
"146 342 CURVE SMOOTH",
"178 529 OFFCURVE",
"286 615 OFFCURVE",
"421 615 CURVE SMOOTH"
);
}
);
width = 652;
},
{
layerId = "EADDC163-A127-4E50-A035-005E723BF706";
name = "SemiBold Italic";
width = 600;
},
{
associatedMasterId = "97AFB7C9-FE9A-4B33-96EF-7CD144DFB325";
background = {
paths = (
{
closed = 1;
nodes = (
"35 121 OFFCURVE",
"173 -7 OFFCURVE",
"328 -7 CURVE SMOOTH",
"435 -7 OFFCURVE",
"532 23 OFFCURVE",
"550 37 CURVE",
"580 215 LINE",
"560 217 LINE",
"504 80 OFFCURVE",
"460 18 OFFCURVE",
"337 18 CURVE SMOOTH",
"175 18 OFFCURVE",
"120 157 OFFCURVE",
"151 342 CURVE SMOOTH",
"183 529 OFFCURVE",
"265 616 OFFCURVE",
"397 616 CURVE SMOOTH",
"521 616 OFFCURVE",
"562 544 OFFCURVE",
"577 434 CURVE",
"597 434 LINE",
"630 636 LINE",
"610 635 LINE",
"583 587 LINE",
"564 603 OFFCURVE",
"510 641 OFFCURVE",
"403 641 CURVE SMOOTH",
"250 641 OFFCURVE",
"102 529 OFFCURVE",
"70 332 CURVE SMOOTH"
);
}
);
};
guideLines = (
{
angle = 80.594;
position = "{535, 42}";
}
);
layerId = "FC810D2F-3401-4977-BA44-19EF2B385D32";
name = "Light Italic Aug 19 16, 21:54";
paths = (
{
closed = 1;
nodes = (
"35 121 OFFCURVE",
"173 -7 OFFCURVE",
"328 -7 CURVE SMOOTH",
"435 -7 OFFCURVE",
"532 23 OFFCURVE",
"550 37 CURVE",
"580 215 LINE",
"560 217 LINE",
"504 80 OFFCURVE",
"460 18 OFFCURVE",
"337 18 CURVE SMOOTH",
"175 18 OFFCURVE",
"120 157 OFFCURVE",
"151 342 CURVE SMOOTH",
"183 529 OFFCURVE",
"265 616 OFFCURVE",
"397 616 CURVE SMOOTH",
"521 616 OFFCURVE",
"562 544 OFFCURVE",
"577 434 CURVE",
"597 434 LINE",
"630 636 LINE",
"610 635 LINE",
"583 587 LINE",
"564 603 OFFCURVE",
"510 641 OFFCURVE",
"403 641 CURVE SMOOTH",
"250 641 OFFCURVE",
"102 529 OFFCURVE",
"70 332 CURVE SMOOTH"
);
}
);
width = 652;
}
);
unicode = 0043;
},
{
glyphname = D;
lastChange = "2016-08-19 23:41:07 +0000";
layers = (
{
background = {
paths = (
{
closed = 1;
nodes = (
"-2 7 LINE",
"-10 -2 LINE",
"59 0 OFFCURVE",
"178 -3 OFFCURVE",
"238 -3 CURVE SMOOTH",
"433 -3 OFFCURVE",
"580 127 OFFCURVE",
"612 322 CURVE SMOOTH",
"647 533 OFFCURVE",
"506 632 OFFCURVE",
"327 632 CURVE SMOOTH",
"221 632 OFFCURVE",
"126 629 OFFCURVE",
"90 630 CURVE",
"88 616 LINE",
"214 607 LINE",
"218 595 LINE",
"252 604 OFFCURVE",
"268 607 OFFCURVE",
"331 607 CURVE SMOOTH",
"482 607 OFFCURVE",
"560 507 OFFCURVE",
"530 322 CURVE SMOOTH",
"496 116 OFFCURVE",
"391 22 OFFCURVE",
"248 22 CURVE SMOOTH",
"203 22 OFFCURVE",
"164 27 OFFCURVE",
"129 36 CURVE"
);
},
{
closed = 1;
nodes = (
"72 0 LINE",
"135 0 LINE",
"239 628 LINE",
"176 628 LINE"
);
},
{
closed = 1;
nodes = (
"207 603 LINE",
"176 628 LINE",
"90 630 LINE",
"88 616 LINE",
"207 585 LINE"
);
},
{
closed = 1;
nodes = (
"-12 12 LINE",
"-10 -2 LINE",
"71 0 LINE",
"117 25 LINE",
"117 43 LINE"
);
}
);
};
layerId = "97AFB7C9-FE9A-4B33-96EF-7CD144DFB325";
name = "Light Italic";
paths = (
{
closed = 1;
nodes = (
"10 7 LINE",
"2 -2 LINE",
"61 0 OFFCURVE",
"168 -3 OFFCURVE",
"218 -3 CURVE SMOOTH",
"433 -3 OFFCURVE",
"572 117 OFFCURVE",
"606 322 CURVE SMOOTH",
"641 533 OFFCURVE",
"486 637 OFFCURVE",
"307 637 CURVE SMOOTH",
"211 637 OFFCURVE",
"136 639 OFFCURVE",
"100 640 CURVE",
"98 626 LINE",
"214 612 LINE",
"218 611 LINE",
"242 617 OFFCURVE",
"248 617 OFFCURVE",
"281 617 CURVE SMOOTH",
"472 617 OFFCURVE",
"567 507 OFFCURVE",
"535 312 CURVE SMOOTH",
"502 106 OFFCURVE",
"371 19 OFFCURVE",
"218 19 CURVE SMOOTH",
"193 19 OFFCURVE",
"164 20 OFFCURVE",
"129 24 CURVE"
);
},
{
closed = 1;
nodes = (
"72 0 LINE",
"134 0 LINE",
"236 633 LINE",
"176 633 LINE"
);
},
{
closed = 1;
nodes = (
"207 608 LINE",
"176 633 LINE",
"100 640 LINE",
"98 626 LINE",
"207 590 LINE"
);
},
{
closed = 1;
nodes = (
"0 12 LINE",
"2 -2 LINE",
"71 0 LINE",
"117 25 LINE",
"117 43 LINE"
);
}
);
width = 632;
},
{
associatedMasterId = "97AFB7C9-FE9A-4B33-96EF-7CD144DFB325";
layerId = "90A389B6-A07C-4D69-B99A-3C00FBEB3827";
name = "Light Italic Aug 3 16, 15:03";
paths = (
{
closed = 1;
nodes = (
"433 -3 OFFCURVE",
"590 127 OFFCURVE",
"622 322 CURVE SMOOTH",
"657 533 OFFCURVE",
"526 632 OFFCURVE",
"337 632 CURVE SMOOTH",
"221 632 OFFCURVE",
"128 629 OFFCURVE",
"94 630 CURVE",
"84 599 LINE",
"156 585 OFFCURVE",
"165 574 OFFCURVE",
"148 473 CURVE SMOOTH",
"77 43 LINE",
"-10 28 LINE",
"-10 -2 LINE",
"59 0 OFFCURVE",
"168 -3 OFFCURVE",
"238 -3 CURVE SMOOTH"
);
},
{
closed = 1;
nodes = (
"158 28 OFFCURVE",
"143 47 OFFCURVE",
"156 130 CURVE SMOOTH",
"237 618 LINE",
"218 586 LINE",
"252 598 OFFCURVE",
"268 601 OFFCURVE",
"331 601 CURVE SMOOTH",
"492 601 OFFCURVE",
"569 497 OFFCURVE",
"540 322 CURVE SMOOTH",
"508 126 OFFCURVE",
"401 28 OFFCURVE",
"248 28 CURVE SMOOTH"
);
}
);
width = 648;
},
{
associatedMasterId = "97AFB7C9-FE9A-4B33-96EF-7CD144DFB325";
background = {
paths = (
{
closed = 1;
nodes = (
"433 -3 OFFCURVE",
"590 127 OFFCURVE",
"622 322 CURVE SMOOTH",
"657 533 OFFCURVE",
"526 632 OFFCURVE",
"337 632 CURVE SMOOTH",
"221 632 OFFCURVE",
"128 629 OFFCURVE",
"94 630 CURVE",
"84 599 LINE",
"156 585 OFFCURVE",
"165 574 OFFCURVE",
"148 473 CURVE SMOOTH",
"77 43 LINE",
"-10 28 LINE",
"-10 -2 LINE",
"59 0 OFFCURVE",
"168 -3 OFFCURVE",
"238 -3 CURVE SMOOTH"
);
},
{
closed = 1;
nodes = (
"158 22 OFFCURVE",
"142 41 OFFCURVE",
"156 124 CURVE SMOOTH",
"237 618 LINE",
"218 592 LINE",
"252 604 OFFCURVE",
"268 607 OFFCURVE",
"331 607 CURVE SMOOTH",
"492 607 OFFCURVE",
"569 497 OFFCURVE",
"540 322 CURVE SMOOTH",
"508 126 OFFCURVE",
"401 22 OFFCURVE",
"248 22 CURVE SMOOTH"
);
}
);
};
layerId = "45B81397-2FD4-4F22-9C0B-1AA3AA3B22C9";
name = "Light Italic Aug 3 16, 15:06";
paths = (
{
closed = 1;
nodes = (
"433 -3 OFFCURVE",
"590 127 OFFCURVE",
"622 322 CURVE SMOOTH",
"657 533 OFFCURVE",
"526 632 OFFCURVE",
"337 632 CURVE SMOOTH",
"221 632 OFFCURVE",
"128 629 OFFCURVE",
"94 630 CURVE",
"84 599 LINE",
"156 585 OFFCURVE",
"165 574 OFFCURVE",
"148 473 CURVE SMOOTH",
"77 43 LINE",
"-10 28 LINE",
"-10 -2 LINE",
"59 0 OFFCURVE",
"168 -3 OFFCURVE",
"238 -3 CURVE SMOOTH"
);
},
{
closed = 1;
nodes = (
"158 22 OFFCURVE",
"142 41 OFFCURVE",
"156 124 CURVE SMOOTH",
"237 618 LINE",
"218 592 LINE",
"252 604 OFFCURVE",
"268 607 OFFCURVE",
"331 607 CURVE SMOOTH",
"492 607 OFFCURVE",
"569 497 OFFCURVE",
"540 322 CURVE SMOOTH",
"508 126 OFFCURVE",
"401 22 OFFCURVE",
"248 22 CURVE SMOOTH"
);
}
);
width = 648;
},
{
layerId = "EADDC163-A127-4E50-A035-005E723BF706";
name = "SemiBold Italic";
width = 600;
},
{
associatedMasterId = "97AFB7C9-FE9A-4B33-96EF-7CD144DFB325";
background = {
paths = (
{
closed = 1;
nodes = (
"-2 7 LINE",
"-10 -2 LINE",
"59 0 OFFCURVE",
"178 -3 OFFCURVE",
"238 -3 CURVE SMOOTH",
"433 -3 OFFCURVE",
"580 127 OFFCURVE",
"612 322 CURVE SMOOTH",
"647 533 OFFCURVE",
"506 632 OFFCURVE",
"327 632 CURVE SMOOTH",
"221 632 OFFCURVE",
"126 629 OFFCURVE",
"90 630 CURVE",
"88 616 LINE",
"214 607 LINE",
"218 595 LINE",
"252 604 OFFCURVE",
"268 607 OFFCURVE",
"331 607 CURVE SMOOTH",
"482 607 OFFCURVE",
"560 507 OFFCURVE",
"530 322 CURVE SMOOTH",
"496 116 OFFCURVE",
"391 22 OFFCURVE",
"248 22 CURVE SMOOTH",
"203 22 OFFCURVE",
"164 27 OFFCURVE",
"129 36 CURVE"
);
},
{
closed = 1;
nodes = (
"72 0 LINE",
"135 0 LINE",
"239 628 LINE",
"176 628 LINE"
);
},
{
closed = 1;
nodes = (
"207 603 LINE",
"176 628 LINE",
"90 630 LINE",
"88 616 LINE",
"207 585 LINE"
);
},
{
closed = 1;
nodes = (
"-12 12 LINE",
"-10 -2 LINE",
"71 0 LINE",
"117 25 LINE",
"117 43 LINE"
);
}
);
};
layerId = "5D4EBD64-B00C-463E-B90A-3A36E7901E16";
name = "Light Italic Aug 20 16, 01:36";
paths = (
{
closed = 1;
nodes = (
"-2 7 LINE",
"-10 -2 LINE",
"59 0 OFFCURVE",
"178 -3 OFFCURVE",
"238 -3 CURVE SMOOTH",
"433 -3 OFFCURVE",
"580 127 OFFCURVE",
"612 322 CURVE SMOOTH",
"647 533 OFFCURVE",
"506 632 OFFCURVE",
"327 632 CURVE SMOOTH",
"221 632 OFFCURVE",
"126 629 OFFCURVE",
"90 630 CURVE",
"88 616 LINE",
"214 607 LINE",
"218 595 LINE",
"252 604 OFFCURVE",
"268 607 OFFCURVE",
"331 607 CURVE SMOOTH",
"482 607 OFFCURVE",
"560 507 OFFCURVE",
"530 322 CURVE SMOOTH",
"496 116 OFFCURVE",
"391 22 OFFCURVE",
"248 22 CURVE SMOOTH",
"203 22 OFFCURVE",
"164 27 OFFCURVE",
"129 36 CURVE"
);
},
{
closed = 1;
nodes = (
"72 0 LINE",
"135 0 LINE",
"239 628 LINE",
"176 628 LINE"
);
},
{
closed = 1;
nodes = (
"207 603 LINE",
"176 628 LINE",
"90 630 LINE",
"88 616 LINE",
"207 585 LINE"
);
},
{
closed = 1;
nodes = (
"-12 12 LINE",
"-10 -2 LINE",
"71 0 LINE",
"117 25 LINE",
"117 43 LINE"
);
}
);
width = 648;
}
);
unicode = 0044;
},
{
glyphname = E;
lastChange = "2016-08-19 23:45:26 +0000";
layers = (
{
anchors = (
{
name = bottom;
position = "{234, 0}";
},
{
name = ogonek;
position = "{432, 10}";
},
{
name = top;
position = "{355, 629}";
},
{
name = topleft;
position = "{87, 629}";
}
);
background = {
paths = (
{
closed = 1;
nodes = (
"516 498 LINE",
"541 645 LINE",
"527 645 LINE",
"487 624 LINE",
"470 616 LINE",
"501 498 LINE"
);
},
{
closed = 1;
nodes = (
"67 0 LINE",
"130 0 LINE",
"233 629 LINE",
"170 629 LINE"
);
},
{
closed = 1;
nodes = (
"391 297 LINE",
"378 305 LINE",
"394 208 LINE",
"412 208 LINE",
"445 410 LINE",
"427 410 LINE",
"378 328 LINE",
"392 336 LINE",
"164 326 LINE",
"164 307 LINE"
);
},
{
closed = 1;
nodes = (
"-6 12 LINE",
"-4 -2 LINE",
"72 0 LINE",
"118 25 LINE",
"118 54 LINE"
);
},
{
closed = 1;
nodes = (
"51 1 LINE",
"200 -1 LINE SMOOTH",
"310 -3 OFFCURVE",
"422 -4 OFFCURVE",
"451 -6 CURVE",
"464 45 LINE",
"436 35 OFFCURVE",
"367 25 OFFCURVE",
"218 27 CURVE SMOOTH",
"119 28 LINE"
);
},
{
closed = 1;
nodes = (
"459 -19 LINE",
"492 156 LINE",
"478 156 LINE",
"396 11 LINE",
"419 5 LINE",
"445 -19 LINE"
);
},
{
closed = 1;
nodes = (
"210 604 LINE",
"164 629 LINE",
"88 631 LINE",
"86 617 LINE",
"210 575 LINE"
);
},
{
closed = 1;
nodes = (
"280 602 LINE SMOOTH",
"459 604 OFFCURVE",
"498 594 OFFCURVE",
"526 584 CURVE",
"513 635 LINE",
"484 633 OFFCURVE",
"372 632 OFFCURVE",
"262 630 CURVE SMOOTH",
"143 628 LINE",
"211 601 LINE"
);
}
);
};
guideLines = (
{
angle = 80.594;
position = "{127, 0}";
}
);
layerId = "97AFB7C9-FE9A-4B33-96EF-7CD144DFB325";
name = "Light Italic";
paths = (
{
closed = 1;
nodes = (
"516 498 LINE",
"541 645 LINE",
"527 645 LINE",
"487 624 LINE",
"470 616 LINE",
"501 498 LINE"
);
},
{
closed = 1;
nodes = (
"67 0 LINE",
"130 0 LINE",
"233 629 LINE",
"170 629 LINE"
);
},
{
closed = 1;
nodes = (
"391 297 LINE",
"378 305 LINE",
"394 208 LINE",
"412 208 LINE",
"445 410 LINE",
"427 410 LINE",
"378 328 LINE",
"392 336 LINE",
"164 326 LINE",
"164 307 LINE"
);
},
{
closed = 1;
nodes = (
"-6 12 LINE",
"-4 -2 LINE",
"72 0 LINE",
"118 25 LINE",
"118 54 LINE"
);
},
{
closed = 1;
nodes = (
"51 1 LINE",
"200 -1 LINE SMOOTH",
"310 -3 OFFCURVE",
"422 -4 OFFCURVE",
"451 -6 CURVE",
"464 45 LINE",
"436 35 OFFCURVE",
"367 25 OFFCURVE",
"218 27 CURVE SMOOTH",
"119 28 LINE"
);
},
{
closed = 1;
nodes = (
"459 -19 LINE",
"492 156 LINE",
"478 156 LINE",
"396 11 LINE",
"419 5 LINE",
"445 -19 LINE"
);
},
{
closed = 1;
nodes = (
"210 604 LINE",
"164 629 LINE",
"88 631 LINE",
"86 617 LINE",
"210 575 LINE"
);
},
{
closed = 1;
nodes = (
"280 602 LINE SMOOTH",
"459 604 OFFCURVE",
"498 594 OFFCURVE",
"526 584 CURVE",
"513 635 LINE",
"484 633 OFFCURVE",
"372 632 OFFCURVE",
"262 630 CURVE SMOOTH",
"143 628 LINE",
"211 601 LINE"
);
}
);
width = 541;
},
{
associatedMasterId = "97AFB7C9-FE9A-4B33-96EF-7CD144DFB325";
background = {
paths = (
{
closed = 1;
nodes = (
"130 0 LINE",
"225 598 LINE",
"164 598 LINE",
"70 0 LINE"
);
},
{
closed = 1;
nodes = (
"223 0 LINE",
"222 17 LINE",
"114 42 LINE",
"107 28 LINE",
"-3 17 LINE",
"-3 0 LINE"
);
},
{
closed = 1;
nodes = (
"196 579 LINE",
"228 585 OFFCURVE",
"244 588 OFFCURVE",
"292 589 CURVE",
"458 589 LINE",
"458 609 LINE",
"297 609 LINE",
"206 609 OFFCURVE",
"97 612 OFFCURVE",
"69 612 CURVE",
"69 595 LINE",
"182 568 LINE"
);
},
{
closed = 1;
nodes = (
"478 477 LINE",
"506 626 LINE",
"489 626 LINE",
"423 603 LINE",
"445 595 LINE",
"461 477 LINE"
);
},
{
closed = 1;
nodes = (
"164 302 LINE",
"381 302 LINE",
"381 323 LINE",
"164 323 LINE"
);
},
{
closed = 1;
nodes = (
"170 0 LINE",
"429 0 LINE",
"429 19 LINE",
"170 19 LINE"
);
},
{
closed = 1;
nodes = (
"373 205 LINE",
"401 406 LINE",
"384 406 LINE",
"342 313 LINE",
"356 205 LINE"
);
},
{
closed = 1;
nodes = (
"380 13 LINE",
"357 7 LINE",
"413 -16 LINE",
"430 -16 LINE",
"458 173 LINE",
"441 173 LINE"
);
}
);
};
layerId = "BF4C29E1-B834-4397-959E-4AB8A3C37AFF";
name = "Light Italic Aug 2 16, 22:32";
paths = (
{
closed = 1;
nodes = (
"130 0 LINE",
"225 598 LINE",
"164 598 LINE",
"70 0 LINE"
);
},
{
closed = 1;
nodes = (
"223 0 LINE",
"222 17 LINE",
"114 42 LINE",
"107 28 LINE",
"-3 17 LINE",
"-3 0 LINE"
);
},
{
closed = 1;
nodes = (
"196 579 LINE",
"228 585 OFFCURVE",
"244 588 OFFCURVE",
"292 589 CURVE",
"458 589 LINE",
"458 609 LINE",
"297 609 LINE",
"206 609 OFFCURVE",
"97 612 OFFCURVE",
"69 612 CURVE",
"69 595 LINE",
"182 568 LINE"
);
},
{
closed = 1;
nodes = (
"478 477 LINE",
"506 626 LINE",
"489 626 LINE",
"423 603 LINE",
"445 595 LINE",
"461 477 LINE"
);
},
{
closed = 1;
nodes = (
"164 302 LINE",
"381 302 LINE",
"381 323 LINE",
"164 323 LINE"
);
},
{
closed = 1;
nodes = (
"170 0 LINE",
"429 0 LINE",
"429 19 LINE",
"170 19 LINE"
);
},
{
closed = 1;
nodes = (
"373 205 LINE",
"401 406 LINE",
"384 406 LINE",
"342 313 LINE",
"356 205 LINE"
);
},
{
closed = 1;
nodes = (
"380 13 LINE",
"357 7 LINE",
"413 -16 LINE",
"430 -16 LINE",
"458 173 LINE",
"441 173 LINE"
);
}
);
width = 498;
},
{
associatedMasterId = "97AFB7C9-FE9A-4B33-96EF-7CD144DFB325";
layerId = "2C727549-8259-4AA9-BC8F-71E6AC2B81D1";
name = "Light Italic Aug 2 16, 22:39";
paths = (
{
closed = 1;
nodes = (
"196 579 LINE",
"228 585 OFFCURVE",
"244 589 OFFCURVE",
"292 589 CURVE SMOOTH",
"373 589 LINE SMOOTH",
"423 589 OFFCURVE",
"460 579 OFFCURVE",
"470 477 CURVE",
"478 609 LINE",
"227 608 LINE",
"182 568 LINE"
);
},
{
closed = 1;
nodes = (
"482 477 LINE",
"506 626 LINE",
"492 626 LINE",
"453 603 LINE",
"455 595 LINE",
"470 477 LINE"
);
},
{
closed = 1;
nodes = (
"164 302 LINE",
"381 302 LINE",
"381 323 LINE",
"164 323 LINE"
);
},
{
closed = 1;
nodes = (
"110 0 LINE",
"430 0 LINE",
"444 173 LINE",
"387 19 OFFCURVE",
"364 19 OFFCURVE",
"302 19 CURVE SMOOTH",
"110 19 LINE"
);
},
{
closed = 1;
nodes = (
"373 205 LINE",
"401 406 LINE",
"389 406 LINE",
"342 313 LINE",
"361 205 LINE"
);
},
{
closed = 1;
nodes = (
"380 13 LINE",
"387 7 LINE",
"414 -16 LINE",
"431 -16 LINE",
"458 173 LINE",
"444 173 LINE"
);
},
{
closed = 1;
nodes = (
"69 0 LINE",
"127 0 LINE",
"227 608 LINE",
"168 608 LINE"
);
},
{
closed = 1;
nodes = (
"199 583 LINE",
"168 608 LINE",
"84 610 LINE",
"82 596 LINE",
"199 565 LINE"
);
},
{
closed = 1;
nodes = (
"-4 12 LINE",
"-2 -2 LINE",
"67 0 LINE",
"113 25 LINE",
"113 43 LINE"
);
}
);
width = 498;
},
{
associatedMasterId = "97AFB7C9-FE9A-4B33-96EF-7CD144DFB325";
layerId = "5269A2BB-C94F-4F46-ABF0-89857E3D293E";
name = "Light Italic Aug 2 16, 22:41";
paths = (
{
closed = 1;
nodes = (
"196 579 LINE",
"228 585 OFFCURVE",
"244 589 OFFCURVE",
"292 589 CURVE SMOOTH",
"373 589 LINE SMOOTH",
"423 589 OFFCURVE",
"460 579 OFFCURVE",
"470 477 CURVE",
"478 609 LINE",
"227 608 LINE",
"182 568 LINE"
);
},
{
closed = 1;
nodes = (
"482 477 LINE",
"506 626 LINE",
"492 626 LINE",
"453 603 LINE",
"455 595 LINE",
"470 477 LINE"
);
},
{
closed = 1;
nodes = (
"164 305 LINE",
"381 302 LINE",
"381 323 LINE",
"164 320 LINE"
);
},
{
closed = 1;
nodes = (
"110 0 LINE",
"430 0 LINE",
"444 173 LINE",
"380 19 OFFCURVE",
"364 26 OFFCURVE",
"282 23 CURVE SMOOTH",
"110 18 LINE"
);
},
{
closed = 1;
nodes = (
"376 205 LINE",
"404 406 LINE",
"392 406 LINE",
"342 313 LINE",
"364 205 LINE"
);
},
{
closed = 1;
nodes = (
"380 13 LINE",
"387 7 LINE",
"414 -16 LINE",
"431 -16 LINE",
"458 173 LINE",
"444 173 LINE"
);
},
{
closed = 1;
nodes = (
"69 0 LINE",
"127 0 LINE",
"227 608 LINE",
"168 608 LINE"
);
},
{
closed = 1;
nodes = (
"199 583 LINE",
"168 608 LINE",
"84 610 LINE",
"82 596 LINE",
"199 565 LINE"
);
},
{
closed = 1;
nodes = (
"-4 12 LINE",
"-2 -2 LINE",
"67 0 LINE",
"113 25 LINE",
"113 43 LINE"
);
}
);
width = 498;
},
{
associatedMasterId = "97AFB7C9-FE9A-4B33-96EF-7CD144DFB325";
background = {
paths = (
{
closed = 1;
nodes = (
"67 0 LINE",
"113 25 LINE",
"113 43 LINE",
"-6 12 LINE",
"-4 -2 LINE"
);
},
{
closed = 1;
nodes = (
"440 0 LINE",
"458 173 LINE",
"394 19 OFFCURVE",
"374 24 OFFCURVE",
"292 24 CURVE SMOOTH",
"110 23 LINE",
"110 0 LINE"
);
},
{
closed = 1;
nodes = (
"441 -16 LINE",
"472 173 LINE",
"458 173 LINE",
"390 13 LINE",
"397 7 LINE",
"427 -16 LINE"
);
},
{
closed = 1;
nodes = (
"391 331 LINE",
"164 325 LINE",
"164 308 LINE",
"391 302 LINE"
);
},
{
closed = 1;
nodes = (
"386 209 LINE",
"419 410 LINE",
"407 410 LINE",
"346 318 LINE",
"374 209 LINE"
);
},
{
closed = 1;
nodes = (
"203 604 LINE",
"172 629 LINE",
"88 631 LINE",
"86 617 LINE",
"203 586 LINE"
);
},
{
closed = 1;
nodes = (
"492 630 LINE",
"231 629 LINE",
"172 629 LINE",
"200 606 LINE",
"387 606 LINE SMOOTH",
"427 606 OFFCURVE",
"474 600 OFFCURVE",
"484 498 CURVE"
);
},
{
closed = 1;
nodes = (
"496 498 LINE",
"521 647 LINE",
"507 647 LINE",
"467 624 LINE",
"469 616 LINE",
"484 498 LINE"
);
},
{
closed = 1;
nodes = (
"67 0 LINE",
"130 0 LINE",
"233 629 LINE",
"170 629 LINE"
);
}
);
};
guideLines = (
{
angle = 80.594;
position = "{127, 0}";
}
);
layerId = "9D21FF53-317C-4BE0-B5FB-AA9737E4FF16";
name = "Light Italic Aug 3 16, 17:24";
paths = (
{
closed = 1;
nodes = (
"67 0 LINE",
"113 25 LINE",
"113 43 LINE",
"-6 12 LINE",
"-4 -2 LINE"
);
},
{
closed = 1;
nodes = (
"440 0 LINE",
"458 173 LINE",
"394 19 OFFCURVE",
"374 24 OFFCURVE",
"292 24 CURVE SMOOTH",
"110 23 LINE",
"110 0 LINE"
);
},
{
closed = 1;
nodes = (
"441 -16 LINE",
"472 173 LINE",
"458 173 LINE",
"390 13 LINE",
"397 7 LINE",
"427 -16 LINE"
);
},
{
closed = 1;
nodes = (
"391 330 LINE",
"164 326 LINE",
"164 307 LINE",
"391 303 LINE"
);
},
{
closed = 1;
nodes = (
"386 209 LINE",
"419 410 LINE",
"407 410 LINE",
"346 318 LINE",
"374 209 LINE"
);
},
{
closed = 1;
nodes = (
"203 604 LINE",
"172 629 LINE",
"88 631 LINE",
"86 617 LINE",
"203 586 LINE"
);
},
{
closed = 1;
nodes = (
"492 630 LINE",
"231 629 LINE",
"172 629 LINE",
"200 606 LINE",
"387 606 LINE SMOOTH",
"427 606 OFFCURVE",
"474 600 OFFCURVE",
"484 498 CURVE"
);
},
{
closed = 1;
nodes = (
"496 498 LINE",
"521 647 LINE",
"507 647 LINE",
"467 624 LINE",
"469 616 LINE",
"484 498 LINE"
);
},
{
closed = 1;
nodes = (
"67 0 LINE",
"130 0 LINE",
"233 629 LINE",
"170 629 LINE"
);
}
);
width = 511;
},
{
layerId = "EADDC163-A127-4E50-A035-005E723BF706";
name = "SemiBold Italic";
width = 600;
},
{
associatedMasterId = "97AFB7C9-FE9A-4B33-96EF-7CD144DFB325";
background = {
paths = (
{
closed = 1;
nodes = (
"67 0 LINE",
"113 25 LINE",
"113 52 LINE",
"-6 12 LINE",
"-4 -2 LINE"
);
},
{
closed = 1;
nodes = (
"460 -17 LINE",
"489 153 LINE",
"472 153 LINE",
"400 13 LINE",
"417 7 LINE",
"446 -17 LINE"
);
},
{
closed = 1;
nodes = (
"203 604 LINE",
"172 629 LINE",
"88 631 LINE",
"86 617 LINE",
"203 580 LINE"
);
},
{
closed = 1;
nodes = (
"512 630 LINE",
"231 629 LINE",
"172 629 LINE",
"200 606 LINE",
"317 605 LINE SMOOTH",
"377 604 OFFCURVE",
"475 591 OFFCURVE",
"510 576 CURVE"
);
},
{
closed = 1;
nodes = (
"516 498 LINE",
"541 645 LINE",
"527 645 LINE",
"487 624 LINE",
"470 616 LINE",
"501 498 LINE"
);
},
{
closed = 1;
nodes = (
"67 0 LINE",
"130 0 LINE",
"233 629 LINE",
"170 629 LINE"
);
},
{
closed = 1;
nodes = (
"391 297 LINE",
"378 305 LINE",
"394 208 LINE",
"412 208 LINE",
"445 410 LINE",
"427 410 LINE",
"378 328 LINE",
"392 336 LINE",
"164 326 LINE",
"164 307 LINE"
);
},
{
closed = 1;
nodes = (
"400 31 OFFCURVE",
"317 24 OFFCURVE",
"247 24 CURVE SMOOTH",
"110 24 LINE",
"112 0 LINE",
"452 -1 LINE",
"450 49 LINE"
);
}
);
};
guideLines = (
{
angle = 80.594;
position = "{127, 0}";
}
);
layerId = "26E6FA11-5DC4-43BA-AB15-521148C19C7E";
name = "Light Italic Aug 20 16, 00:25";
paths = (
{
closed = 1;
nodes = (
"67 0 LINE",
"113 25 LINE",
"113 52 LINE",
"-6 12 LINE",
"-4 -2 LINE"
);
},
{
closed = 1;
nodes = (
"460 -17 LINE",
"489 153 LINE",
"472 153 LINE",
"400 13 LINE",
"417 7 LINE",
"446 -17 LINE"
);
},
{
closed = 1;
nodes = (
"203 604 LINE",
"172 629 LINE",
"88 631 LINE",
"86 617 LINE",
"203 580 LINE"
);
},
{
closed = 1;
nodes = (
"512 630 LINE",
"231 629 LINE",
"172 629 LINE",
"200 606 LINE",
"317 605 LINE SMOOTH",
"377 604 OFFCURVE",
"475 591 OFFCURVE",
"510 576 CURVE"
);
},
{
closed = 1;
nodes = (
"516 498 LINE",
"541 645 LINE",
"527 645 LINE",
"487 624 LINE",
"470 616 LINE",
"501 498 LINE"
);
},
{
closed = 1;
nodes = (
"67 0 LINE",
"130 0 LINE",
"233 629 LINE",
"170 629 LINE"
);
},
{
closed = 1;
nodes = (
"391 297 LINE",
"378 305 LINE",
"394 208 LINE",
"412 208 LINE",
"445 410 LINE",
"427 410 LINE",
"378 328 LINE",
"392 336 LINE",
"164 326 LINE",
"164 307 LINE"
);
},
{
closed = 1;
nodes = (
"400 31 OFFCURVE",
"317 24 OFFCURVE",
"247 24 CURVE SMOOTH",
"110 24 LINE",
"112 0 LINE",
"452 -1 LINE",
"450 49 LINE"
);
}
);
width = 541;
}
);
unicode = 0045;
},
{
glyphname = F;
lastChange = "2016-08-19 22:28:02 +0000";
layers = (
{
background = {
paths = (
{
closed = 1;
nodes = (
"93 25 LINE",
"124 0 LINE",
"227 -2 LINE",
"230 12 LINE",
"93 50 LINE"
);
},
{
closed = 1;
nodes = (
"67 0 LINE",
"113 25 LINE",
"113 52 LINE",
"-6 12 LINE",
"-4 -2 LINE"
);
},
{
closed = 1;
nodes = (
"203 604 LINE",
"172 629 LINE",
"88 631 LINE",
"86 617 LINE",
"203 580 LINE"
);
},
{
closed = 1;
nodes = (
"502 630 LINE",
"231 629 LINE",
"172 629 LINE",
"200 606 LINE",
"297 605 LINE SMOOTH",
"377 604 OFFCURVE",
"465 591 OFFCURVE",
"500 576 CURVE"
);
},
{
closed = 1;
nodes = (
"506 498 LINE",
"531 650 LINE",
"517 650 LINE",
"477 624 LINE",
"468 616 LINE",
"494 498 LINE"
);
},
{
closed = 1;
nodes = (
"67 0 LINE",
"130 0 LINE",
"233 629 LINE",
"170 629 LINE"
);
},
{
closed = 1;
nodes = (
"390 287 LINE",
"377 295 LINE",
"393 198 LINE",
"411 198 LINE",
"444 400 LINE",
"426 400 LINE",
"377 318 LINE",
"391 326 LINE",
"163 316 LINE",
"163 297 LINE"
);
}
);
};
layerId = "97AFB7C9-FE9A-4B33-96EF-7CD144DFB325";
name = "Light Italic";
paths = (
{
closed = 1;
nodes = (
"93 25 LINE",
"124 0 LINE",
"227 -2 LINE",
"230 12 LINE",
"93 50 LINE"
);
},
{
closed = 1;
nodes = (
"67 0 LINE",
"113 25 LINE",
"113 52 LINE",
"-6 12 LINE",
"-4 -2 LINE"
);
},
{
closed = 1;
nodes = (
"67 0 LINE",
"130 0 LINE",
"233 629 LINE",
"170 629 LINE"
);
},
{
closed = 1;
nodes = (
"390 287 LINE",
"377 295 LINE",
"393 198 LINE",
"411 198 LINE",
"444 400 LINE",
"426 400 LINE",
"377 318 LINE",
"391 326 LINE",
"163 316 LINE",
"163 297 LINE"
);
},
{
closed = 1;
nodes = (
"506 498 LINE",
"531 645 LINE",
"517 645 LINE",
"477 624 LINE",
"460 616 LINE",
"491 498 LINE"
);
},
{
closed = 1;
nodes = (
"210 604 LINE",
"174 629 LINE",
"88 631 LINE",
"86 617 LINE",
"210 575 LINE"
);
},
{
closed = 1;
nodes = (
"280 602 LINE SMOOTH",
"449 604 OFFCURVE",
"488 594 OFFCURVE",
"516 584 CURVE",
"503 635 LINE",
"474 633 OFFCURVE",
"362 632 OFFCURVE",
"262 630 CURVE SMOOTH",
"143 628 LINE",
"211 601 LINE"
);
}
);
width = 481;
},
{
layerId = "EADDC163-A127-4E50-A035-005E723BF706";
name = "SemiBold Italic";
width = 600;
},
{
associatedMasterId = "97AFB7C9-FE9A-4B33-96EF-7CD144DFB325";
layerId = "13CBA0BB-C54D-4CF9-B278-0D0AC2F92256";
name = "Light Italic Aug 19 16, 22:00";
paths = (
{
closed = 1;
nodes = (
"67 0 LINE",
"113 25 LINE",
"113 43 LINE",
"-6 12 LINE",
"-4 -2 LINE"
);
},
{
closed = 1;
nodes = (
"203 604 LINE",
"172 629 LINE",
"88 631 LINE",
"86 617 LINE",
"203 586 LINE"
);
},
{
closed = 1;
nodes = (
"492 630 LINE",
"231 629 LINE",
"172 629 LINE",
"200 606 LINE",
"407 606 LINE SMOOTH",
"447 606 OFFCURVE",
"474 600 OFFCURVE",
"484 498 CURVE"
);
},
{
closed = 1;
nodes = (
"496 498 LINE",
"521 647 LINE",
"507 647 LINE",
"467 624 LINE",
"469 616 LINE",
"484 498 LINE"
);
},
{
closed = 1;
nodes = (
"67 0 LINE",
"130 0 LINE",
"233 629 LINE",
"170 629 LINE"
);
},
{
closed = 1;
nodes = (
"330 302 LINE SMOOTH",
"373 301 OFFCURVE",
"389 288 OFFCURVE",
"382 198 CURVE",
"400 198 LINE",
"437 417 LINE",
"419 417 LINE",
"398 335 OFFCURVE",
"381 326 OFFCURVE",
"334 325 CURVE SMOOTH",
"174 323 LINE",
"174 304 LINE"
);
},
{
closed = 1;
nodes = (
"93 25 LINE",
"124 0 LINE",
"217 -2 LINE",
"220 12 LINE",
"93 43 LINE"
);
}
);
width = 600;
}
);
unicode = 0046;
},
{
glyphname = G;
lastChange = "2016-08-19 23:06:48 +0000";
layers = (
{
background = {
paths = (
{
closed = 0;
nodes = (
"570 45 LINE",
"566 59 LINE",
"566 59 LINE"
);
},
{
closed = 1;
nodes = (
"501 287 LINE",
"458 28 LINE",
"523 35 LINE",
"565 287 LINE"
);
},
{
closed = 1;
nodes = (
"535 262 LINE",
"505 287 LINE",
"388 289 LINE",
"386 275 LINE",
"525 242 LINE"
);
},
{
closed = 1;
nodes = (
"627 275 LINE",
"625 289 LINE",
"565 287 LINE",
"517 262 LINE",
"517 242 LINE"
);
}
);
};
guideLines = (
{
angle = 80.594;
position = "{29, 322}";
}
);
layerId = "97AFB7C9-FE9A-4B33-96EF-7CD144DFB325";
name = "Light Italic";
paths = (
{
closed = 1;
nodes = (
"30 131 OFFCURVE",
"134 -7 OFFCURVE",
"338 -7 CURVE SMOOTH",
"472 -7 OFFCURVE",
"540 28 OFFCURVE",
"570 45 CURVE",
"566 59 LINE",
"566 59 LINE",
"481 35 OFFCURVE",
"418 24 OFFCURVE",
"361 24 CURVE SMOOTH",
"194 24 OFFCURVE",
"101 143 OFFCURVE",
"133 332 CURVE SMOOTH",
"166 529 OFFCURVE",
"277 615 OFFCURVE",
"411 615 CURVE SMOOTH",
"481 615 OFFCURVE",
"562 580 OFFCURVE",
"588 559 CURVE",
"538 600 LINE",
"562 463 LINE",
"580 463 LINE",
"613 607 LINE",
"580 599 LINE",
"550 551 LINE",
"613 607 LINE",
"576 624 OFFCURVE",
"521 641 OFFCURVE",
"426 641 CURVE SMOOTH",
"224 641 OFFCURVE",
"94 525 OFFCURVE",
"61 322 CURVE SMOOTH"
);
},
{
closed = 1;
nodes = (
"500 280 LINE",
"458 28 LINE",
"523 35 LINE",
"564 280 LINE"
);
},
{
closed = 1;
nodes = (
"534 255 LINE",
"504 280 LINE",
"387 282 LINE",
"385 268 LINE",
"524 235 LINE"
);
},
{
closed = 1;
nodes = (
"626 268 LINE",
"624 282 LINE",
"564 280 LINE",
"516 255 LINE",
"516 235 LINE"
);
}
);
width = 670;
},
{
associatedMasterId = "97AFB7C9-FE9A-4B33-96EF-7CD144DFB325";
guideLines = (
{
angle = 80.594;
position = "{41, 466}";
}
);
layerId = "B7621080-939E-49A8-AFF3-A65A38F4B9A8";
name = "Light Italic Aug 3 16, 13:16";
paths = (
{
closed = 1;
nodes = (
"78 118 OFFCURVE",
"189 -10 OFFCURVE",
"373 -10 CURVE SMOOTH",
"481 -10 OFFCURVE",
"579 32 OFFCURVE",
"607 37 CURVE",
"599 97 LINE",
"561 81 LINE",
"547 63 OFFCURVE",
"467 21 OFFCURVE",
"386 21 CURVE SMOOTH",
"239 21 OFFCURVE",
"165 140 OFFCURVE",
"194 311 CURVE SMOOTH",
"224 497 OFFCURVE",
"325 607 OFFCURVE",
"469 607 CURVE SMOOTH",
"573 607 OFFCURVE",
"617 528 OFFCURVE",
"629 431 CURVE",
"666 439 LINE",
"667 472 OFFCURVE",
"681 600 OFFCURVE",
"687 633 CURVE",
"660 632 LINE",
"636 603 LINE",
"607 620 OFFCURVE",
"560 638 OFFCURVE",
"481 638 CURVE SMOOTH",
"299 638 OFFCURVE",
"142 506 OFFCURVE",
"109 309 CURVE SMOOTH"
);
},
{
closed = 1;
nodes = (
"568 246 OFFCURVE",
"566 231 OFFCURVE",
"550 130 CURVE SMOOTH",
"536 46 LINE",
"542 44 OFFCURVE",
"605 37 OFFCURVE",
"607 37 CURVE",
"605 55 OFFCURVE",
"609 102 OFFCURVE",
"614 132 CURVE SMOOTH",
"633 247 LINE",
"702 262 LINE",
"707 292 LINE",
"690 292 OFFCURVE",
"650 290 OFFCURVE",
"602 290 CURVE SMOOTH",
"552 290 OFFCURVE",
"520 291 OFFCURVE",
"495 293 CURVE",
"484 262 LINE"
);
}
);
width = 800;
},
{
associatedMasterId = "97AFB7C9-FE9A-4B33-96EF-7CD144DFB325";
background = {
paths = (
{
closed = 1;
nodes = (
"78 128 OFFCURVE",
"189 -10 OFFCURVE",
"383 -10 CURVE SMOOTH",
"491 -10 OFFCURVE",
"582 53 OFFCURVE",
"610 58 CURVE",
"602 118 LINE",
"564 82 LINE",
"550 64 OFFCURVE",
"467 21 OFFCURVE",
"386 21 CURVE SMOOTH",
"239 21 OFFCURVE",
"165 140 OFFCURVE",
"197 331 CURVE SMOOTH",
"224 497 OFFCURVE",
"322 613 OFFCURVE",
"466 613 CURVE SMOOTH",
"590 613 OFFCURVE",
"627 528 OFFCURVE",
"639 431 CURVE",
"660 439 LINE",
"681 633 LINE",
"660 632 LINE",
"648 605 LINE",
"619 622 OFFCURVE",
"560 638 OFFCURVE",
"481 638 CURVE SMOOTH",
"289 638 OFFCURVE",
"142 516 OFFCURVE",
"109 319 CURVE SMOOTH"
);
},
{
closed = 1;
nodes = (
"577 290 LINE",
"539 58 LINE",
"610 58 LINE",
"608 76 OFFCURVE",
"613 123 OFFCURVE",
"618 153 CURVE SMOOTH",
"640 290 LINE"
);
},
{
closed = 1;
nodes = (
"612 265 LINE",
"581 290 LINE",
"497 292 LINE",
"495 278 LINE",
"612 247 LINE"
);
},
{
closed = 1;
nodes = (
"711 278 LINE",
"709 292 LINE",
"640 290 LINE",
"594 265 LINE",
"594 247 LINE"
);
}
);
};
guideLines = (
{
angle = 80.594;
position = "{41, 466}";
}
);
layerId = "9974686F-2248-481C-9CCB-E6C3D32734DA";
name = "Light Italic Aug 3 16, 13:27";
paths = (
{
closed = 1;
nodes = (
"78 128 OFFCURVE",
"189 -10 OFFCURVE",
"383 -10 CURVE SMOOTH",
"491 -10 OFFCURVE",
"582 53 OFFCURVE",
"610 58 CURVE",
"602 118 LINE",
"564 82 LINE",
"550 64 OFFCURVE",
"467 21 OFFCURVE",
"386 21 CURVE SMOOTH",
"239 21 OFFCURVE",
"165 140 OFFCURVE",
"197 331 CURVE SMOOTH",
"224 497 OFFCURVE",
"322 613 OFFCURVE",
"466 613 CURVE SMOOTH",
"590 613 OFFCURVE",
"627 528 OFFCURVE",
"639 431 CURVE",
"659 431 LINE",
"681 633 LINE",
"660 632 LINE",
"648 605 LINE",
"619 622 OFFCURVE",
"560 638 OFFCURVE",
"481 638 CURVE SMOOTH",
"289 638 OFFCURVE",
"142 516 OFFCURVE",
"109 319 CURVE SMOOTH"
);
},
{
closed = 1;
nodes = (
"577 290 LINE",
"539 58 LINE",
"610 58 LINE",
"608 76 OFFCURVE",
"613 123 OFFCURVE",
"618 153 CURVE SMOOTH",
"640 290 LINE"
);
},
{
closed = 1;
nodes = (
"612 265 LINE",
"581 290 LINE",
"497 292 LINE",
"495 278 LINE",
"612 247 LINE"
);
},
{
closed = 1;
nodes = (
"711 278 LINE",
"709 292 LINE",
"640 290 LINE",
"594 265 LINE",
"594 247 LINE"
);
}
);
width = 800;
},
{
associatedMasterId = "97AFB7C9-FE9A-4B33-96EF-7CD144DFB325";
background = {
paths = (
{
closed = 1;
nodes = (
"27 136 OFFCURVE",
"136 -2 OFFCURVE",
"330 -2 CURVE SMOOTH",
"438 -2 OFFCURVE",
"526 51 OFFCURVE",
"534 51 CURVE",
"508 70 LINE",
"494 52 OFFCURVE",
"414 29 OFFCURVE",
"333 29 CURVE SMOOTH",
"186 29 OFFCURVE",
"110 148 OFFCURVE",
"144 349 CURVE SMOOTH",
"173 524 OFFCURVE",
"269 621 OFFCURVE",
"403 621 CURVE SMOOTH",
"527 621 OFFCURVE",
"565 536 OFFCURVE",
"577 439 CURVE",
"597 439 LINE",
"630 641 LINE",
"609 640 LINE",
"583 592 LINE",
"564 609 OFFCURVE",
"507 646 OFFCURVE",
"408 646 CURVE SMOOTH",
"236 646 OFFCURVE",
"93 540 OFFCURVE",
"58 327 CURVE SMOOTH"
);
},
{
closed = 1;
nodes = (
"524 292 LINE",
"483 46 LINE",
"527 1 LINE",
"540 1 LINE",
"588 292 LINE"
);
},
{
closed = 1;
nodes = (
"558 267 LINE",
"528 292 LINE",
"430 294 LINE",
"428 280 LINE",
"558 249 LINE"
);
},
{
closed = 1;
nodes = (
"650 280 LINE",
"648 294 LINE",
"588 292 LINE",
"540 267 LINE",
"540 249 LINE"
);
}
);
};
guideLines = (
{
angle = 80.594;
position = "{22, 327}";
}
);
layerId = "D646EBAA-7D1D-4F16-B0BA-B11F9214AC67";
name = "Light Italic Aug 3 16, 15:18";
paths = (
{
closed = 1;
nodes = (
"27 131 OFFCURVE",
"136 -7 OFFCURVE",
"330 -7 CURVE SMOOTH",
"438 -7 OFFCURVE",
"526 46 OFFCURVE",
"534 46 CURVE",
"508 65 LINE",
"494 47 OFFCURVE",
"414 24 OFFCURVE",
"333 24 CURVE SMOOTH",
"186 24 OFFCURVE",
"110 153 OFFCURVE",
"142 342 CURVE SMOOTH",
"173 529 OFFCURVE",
"269 616 OFFCURVE",
"403 616 CURVE SMOOTH",
"527 616 OFFCURVE",
"565 531 OFFCURVE",
"577 434 CURVE",
"597 434 LINE",
"630 636 LINE",
"609 635 LINE",
"583 587 LINE",
"564 604 OFFCURVE",
"507 641 OFFCURVE",
"408 641 CURVE SMOOTH",
"236 641 OFFCURVE",
"93 535 OFFCURVE",
"60 332 CURVE SMOOTH"
);
},
{
closed = 1;
nodes = (
"524 287 LINE",
"483 41 LINE",
"527 -4 LINE",
"540 -4 LINE",
"588 287 LINE"
);
},
{
closed = 1;
nodes = (
"558 262 LINE",
"528 287 LINE",
"430 289 LINE",
"428 275 LINE",
"558 244 LINE"
);
},
{
closed = 1;
nodes = (
"650 275 LINE",
"648 289 LINE",
"588 287 LINE",
"540 262 LINE",
"540 244 LINE"
);
}
);
width = 682;
},
{
layerId = "EADDC163-A127-4E50-A035-005E723BF706";
name = "SemiBold Italic";
width = 600;
},
{
associatedMasterId = "97AFB7C9-FE9A-4B33-96EF-7CD144DFB325";
background = {
paths = (
{
closed = 1;
nodes = (
"15 136 OFFCURVE",
"124 -2 OFFCURVE",
"318 -2 CURVE SMOOTH",
"426 -2 OFFCURVE",
"514 51 OFFCURVE",
"522 51 CURVE",
"496 70 LINE",
"482 52 OFFCURVE",
"402 29 OFFCURVE",
"321 29 CURVE SMOOTH",
"174 29 OFFCURVE",
"98 148 OFFCURVE",
"132 349 CURVE SMOOTH",
"161 524 OFFCURVE",
"257 621 OFFCURVE",
"391 621 CURVE SMOOTH",
"515 621 OFFCURVE",
"553 536 OFFCURVE",
"565 439 CURVE",
"585 439 LINE",
"618 641 LINE",
"597 640 LINE",
"571 592 LINE",
"552 609 OFFCURVE",
"495 646 OFFCURVE",
"396 646 CURVE SMOOTH",
"224 646 OFFCURVE",
"81 540 OFFCURVE",
"46 327 CURVE SMOOTH"
);
},
{
closed = 1;
nodes = (
"512 292 LINE",
"471 46 LINE",
"515 1 LINE",
"528 1 LINE",
"576 292 LINE"
);
},
{
closed = 1;
nodes = (
"546 267 LINE",
"516 292 LINE",
"418 294 LINE",
"416 280 LINE",
"546 249 LINE"
);
},
{
closed = 1;
nodes = (
"638 280 LINE",
"636 294 LINE",
"576 292 LINE",
"528 267 LINE",
"528 249 LINE"
);
}
);
};
guideLines = (
{
angle = 80.594;
position = "{10, 327}";
}
);
layerId = "BCDB80B0-F749-4DA2-BF9B-955BE3FF2661";
name = "Light Italic Aug 19 16, 21:07";
paths = (
{
closed = 1;
nodes = (
"25 131 OFFCURVE",
"154 -7 OFFCURVE",
"318 -7 CURVE SMOOTH",
"426 -7 OFFCURVE",
"514 46 OFFCURVE",
"522 46 CURVE",
"496 65 LINE",
"482 47 OFFCURVE",
"402 24 OFFCURVE",
"321 24 CURVE SMOOTH",
"184 24 OFFCURVE",
"106 143 OFFCURVE",
"140 342 CURVE SMOOTH",
"173 539 OFFCURVE",
"267 616 OFFCURVE",
"391 616 CURVE SMOOTH",
"515 616 OFFCURVE",
"553 531 OFFCURVE",
"565 434 CURVE",
"585 434 LINE",
"618 636 LINE",
"597 635 LINE",
"571 587 LINE",
"552 604 OFFCURVE",
"495 641 OFFCURVE",
"396 641 CURVE SMOOTH",
"254 641 OFFCURVE",
"91 535 OFFCURVE",
"58 332 CURVE SMOOTH"
);
},
{
closed = 1;
nodes = (
"512 287 LINE",
"471 41 LINE",
"515 -4 LINE",
"528 -4 LINE",
"576 287 LINE"
);
},
{
closed = 1;
nodes = (
"546 262 LINE",
"516 287 LINE",
"418 289 LINE",
"416 275 LINE",
"546 244 LINE"
);
},
{
closed = 1;
nodes = (
"638 275 LINE",
"636 289 LINE",
"576 287 LINE",
"528 262 LINE",
"528 244 LINE"
);
}
);
width = 670;
},
{
associatedMasterId = "97AFB7C9-FE9A-4B33-96EF-7CD144DFB325";
background = {
paths = (
{
closed = 1;
nodes = (
"25 131 OFFCURVE",
"144 -7 OFFCURVE",
"318 -7 CURVE SMOOTH",
"465 -7 OFFCURVE",
"524 42 OFFCURVE",
"564 42 CURVE",
"567 60 LINE",
"528 60 LINE",
"483 39 OFFCURVE",
"412 24 OFFCURVE",
"341 24 CURVE SMOOTH",
"184 24 OFFCURVE",
"106 143 OFFCURVE",
"140 342 CURVE SMOOTH",
"173 539 OFFCURVE",
"267 616 OFFCURVE",
"391 616 CURVE SMOOTH",
"515 616 OFFCURVE",
"553 531 OFFCURVE",
"565 434 CURVE",
"585 434 LINE",
"618 636 LINE",
"597 635 LINE",
"571 587 LINE",
"552 604 OFFCURVE",
"495 641 OFFCURVE",
"396 641 CURVE SMOOTH",
"254 641 OFFCURVE",
"91 535 OFFCURVE",
"58 332 CURVE SMOOTH"
);
},
{
closed = 1;
nodes = (
"495 287 LINE",
"454 41 LINE",
"505 40 LINE",
"518 40 LINE",
"559 287 LINE"
);
},
{
closed = 1;
nodes = (
"529 262 LINE",
"499 287 LINE",
"401 289 LINE",
"399 275 LINE",
"529 244 LINE"
);
},
{
closed = 1;
nodes = (
"621 275 LINE",
"619 289 LINE",
"559 287 LINE",
"511 262 LINE",
"511 244 LINE"
);
}
);
};
guideLines = (
{
angle = 80.594;
position = "{10, 327}";
}
);
layerId = "9709C5EB-018E-4B41-A713-42B88C078FD9";
name = "Light Italic Aug 19 16, 21:15";
paths = (
{
closed = 1;
nodes = (
"25 131 OFFCURVE",
"144 -7 OFFCURVE",
"318 -7 CURVE SMOOTH",
"465 -7 OFFCURVE",
"524 42 OFFCURVE",
"564 42 CURVE",
"567 60 LINE",
"520 60 LINE",
"475 39 OFFCURVE",
"412 24 OFFCURVE",
"351 24 CURVE SMOOTH",
"194 24 OFFCURVE",
"106 143 OFFCURVE",
"140 342 CURVE SMOOTH",
"173 539 OFFCURVE",
"267 616 OFFCURVE",
"401 616 CURVE SMOOTH",
"481 616 OFFCURVE",
"552 580 OFFCURVE",
"578 559 CURVE",
"533 600 LINE",
"559 450 LINE",
"579 450 LINE",
"613 607 LINE",
"580 599 LINE",
"550 551 LINE",
"613 607 LINE",
"576 622 OFFCURVE",
"511 641 OFFCURVE",
"406 641 CURVE SMOOTH",
"234 641 OFFCURVE",
"91 535 OFFCURVE",
"58 332 CURVE SMOOTH"
);
},
{
closed = 1;
nodes = (
"495 287 LINE",
"452 28 LINE",
"517 35 LINE",
"559 287 LINE"
);
},
{
closed = 1;
nodes = (
"529 262 LINE",
"499 287 LINE",
"391 289 LINE",
"389 275 LINE",
"519 244 LINE"
);
},
{
closed = 1;
nodes = (
"621 275 LINE",
"619 289 LINE",
"559 287 LINE",
"511 262 LINE",
"511 244 LINE"
);
}
);
width = 670;
},
{
associatedMasterId = "97AFB7C9-FE9A-4B33-96EF-7CD144DFB325";
background = {
paths = (
{
closed = 1;
nodes = (
"25 131 OFFCURVE",
"144 -7 OFFCURVE",
"318 -7 CURVE SMOOTH",
"465 -7 OFFCURVE",
"524 42 OFFCURVE",
"564 42 CURVE",
"567 60 LINE",
"528 60 LINE",
"483 39 OFFCURVE",
"412 24 OFFCURVE",
"341 24 CURVE SMOOTH",
"184 24 OFFCURVE",
"106 143 OFFCURVE",
"140 342 CURVE SMOOTH",
"173 539 OFFCURVE",
"267 616 OFFCURVE",
"391 616 CURVE SMOOTH",
"515 616 OFFCURVE",
"553 531 OFFCURVE",
"565 434 CURVE",
"585 434 LINE",
"618 636 LINE",
"597 635 LINE",
"571 587 LINE",
"552 604 OFFCURVE",
"495 641 OFFCURVE",
"396 641 CURVE SMOOTH",
"254 641 OFFCURVE",
"91 535 OFFCURVE",
"58 332 CURVE SMOOTH"
);
},
{
closed = 1;
nodes = (
"495 287 LINE",
"454 41 LINE",
"505 40 LINE",
"518 40 LINE",
"559 287 LINE"
);
},
{
closed = 1;
nodes = (
"529 262 LINE",
"499 287 LINE",
"401 289 LINE",
"399 275 LINE",
"529 244 LINE"
);
},
{
closed = 1;
nodes = (
"621 275 LINE",
"619 289 LINE",
"559 287 LINE",
"511 262 LINE",
"511 244 LINE"
);
}
);
};
guideLines = (
{
angle = 80.594;
position = "{10, 327}";
}
);
layerId = "F417798A-D946-493F-857A-CCA04B981650";
name = "Light Italic Aug 19 16, 21:16";
paths = (
{
closed = 1;
nodes = (
"25 131 OFFCURVE",
"144 -7 OFFCURVE",
"338 -7 CURVE SMOOTH",
"456 -7 OFFCURVE",
"534 28 OFFCURVE",
"564 45 CURVE",
"560 63 LINE",
"560 63 LINE",
"475 39 OFFCURVE",
"412 24 OFFCURVE",
"351 24 CURVE SMOOTH",
"194 24 OFFCURVE",
"106 143 OFFCURVE",
"138 332 CURVE SMOOTH",
"173 539 OFFCURVE",
"267 616 OFFCURVE",
"401 616 CURVE SMOOTH",
"481 616 OFFCURVE",
"552 580 OFFCURVE",
"578 559 CURVE",
"533 600 LINE",
"559 450 LINE",
"579 450 LINE",
"613 607 LINE",
"580 599 LINE",
"550 551 LINE",
"613 607 LINE",
"576 622 OFFCURVE",
"511 641 OFFCURVE",
"406 641 CURVE SMOOTH",
"234 641 OFFCURVE",
"91 535 OFFCURVE",
"58 332 CURVE SMOOTH"
);
},
{
closed = 1;
nodes = (
"495 287 LINE",
"452 28 LINE",
"517 35 LINE",
"559 287 LINE"
);
},
{
closed = 1;
nodes = (
"529 262 LINE",
"499 287 LINE",
"391 289 LINE",
"389 275 LINE",
"519 244 LINE"
);
},
{
closed = 1;
nodes = (
"621 275 LINE",
"619 289 LINE",
"559 287 LINE",
"511 262 LINE",
"511 244 LINE"
);
}
);
width = 670;
},
{
associatedMasterId = "97AFB7C9-FE9A-4B33-96EF-7CD144DFB325";
background = {
paths = (
{
closed = 1;
nodes = (
"25 131 OFFCURVE",
"144 -7 OFFCURVE",
"318 -7 CURVE SMOOTH",
"465 -7 OFFCURVE",
"524 42 OFFCURVE",
"564 42 CURVE",
"567 60 LINE",
"528 60 LINE",
"483 39 OFFCURVE",
"412 24 OFFCURVE",
"341 24 CURVE SMOOTH",
"184 24 OFFCURVE",
"106 143 OFFCURVE",
"140 342 CURVE SMOOTH",
"173 539 OFFCURVE",
"267 616 OFFCURVE",
"391 616 CURVE SMOOTH",
"515 616 OFFCURVE",
"553 531 OFFCURVE",
"565 434 CURVE",
"585 434 LINE",
"618 636 LINE",
"597 635 LINE",
"571 587 LINE",
"552 604 OFFCURVE",
"495 641 OFFCURVE",
"396 641 CURVE SMOOTH",
"254 641 OFFCURVE",
"91 535 OFFCURVE",
"58 332 CURVE SMOOTH"
);
},
{
closed = 1;
nodes = (
"495 287 LINE",
"454 41 LINE",
"505 40 LINE",
"518 40 LINE",
"559 287 LINE"
);
},
{
closed = 1;
nodes = (
"529 262 LINE",
"499 287 LINE",
"401 289 LINE",
"399 275 LINE",
"529 244 LINE"
);
},
{
closed = 1;
nodes = (
"621 275 LINE",
"619 289 LINE",
"559 287 LINE",
"511 262 LINE",
"511 244 LINE"
);
}
);
};
guideLines = (
{
angle = 80.594;
position = "{10, 327}";
}
);
layerId = "8CE8ED53-40D3-4C23-9566-9595C92D8BC2";
name = "Light Italic Aug 19 16, 23:32";
paths = (
{
closed = 1;
nodes = (
"30 131 OFFCURVE",
"134 -7 OFFCURVE",
"338 -7 CURVE SMOOTH",
"466 -7 OFFCURVE",
"534 28 OFFCURVE",
"564 45 CURVE",
"560 59 LINE",
"560 59 LINE",
"475 35 OFFCURVE",
"412 24 OFFCURVE",
"361 24 CURVE SMOOTH",
"194 24 OFFCURVE",
"101 143 OFFCURVE",
"133 332 CURVE SMOOTH",
"166 529 OFFCURVE",
"277 615 OFFCURVE",
"411 615 CURVE SMOOTH",
"481 615 OFFCURVE",
"562 580 OFFCURVE",
"588 559 CURVE",
"538 600 LINE",
"562 463 LINE",
"580 463 LINE",
"613 607 LINE",
"580 599 LINE",
"550 551 LINE",
"613 607 LINE",
"576 624 OFFCURVE",
"521 641 OFFCURVE",
"426 641 CURVE SMOOTH",
"224 641 OFFCURVE",
"94 525 OFFCURVE",
"61 322 CURVE SMOOTH"
);
},
{
closed = 1;
nodes = (
"495 287 LINE",
"452 28 LINE",
"517 35 LINE",
"559 287 LINE"
);
},
{
closed = 1;
nodes = (
"529 262 LINE",
"499 287 LINE",
"382 289 LINE",
"380 275 LINE",
"519 242 LINE"
);
},
{
closed = 1;
nodes = (
"621 275 LINE",
"619 289 LINE",
"559 287 LINE",
"511 262 LINE",
"511 242 LINE"
);
}
);
width = 670;
}
);
unicode = 0047;
},
{
glyphname = H;
lastChange = "2016-08-19 22:10:02 +0000";
layers = (
{
background = {
paths = (
{
closed = 1;
nodes = (
"551 303 LINE",
"557 326 LINE",
"135 326 LINE",
"129 303 LINE"
);
},
{
closed = 1;
nodes = (
"62 0 LINE",
"120 0 LINE",
"223 629 LINE",
"164 629 LINE"
);
},
{
closed = 1;
nodes = (
"195 604 LINE",
"164 629 LINE",
"84 631 LINE",
"82 617 LINE",
"195 586 LINE"
);
},
{
closed = 1;
nodes = (
"298 617 LINE",
"296 631 LINE",
"223 629 LINE",
"177 604 LINE",
"177 586 LINE"
);
},
{
closed = 1;
nodes = (
"88 25 LINE",
"119 0 LINE",
"196 -2 LINE",
"198 12 LINE",
"88 43 LINE"
);
},
{
closed = 1;
nodes = (
"-18 12 LINE",
"-16 -2 LINE",
"60 0 LINE",
"106 25 LINE",
"106 43 LINE"
);
},
{
closed = 1;
nodes = (
"471 0 LINE",
"529 0 LINE",
"632 629 LINE",
"573 629 LINE"
);
},
{
closed = 1;
nodes = (
"604 604 LINE",
"573 629 LINE",
"493 631 LINE",
"491 617 LINE",
"604 586 LINE"
);
},
{
closed = 1;
nodes = (
"707 617 LINE",
"705 631 LINE",
"632 629 LINE",
"586 604 LINE",
"586 586 LINE"
);
},
{
closed = 1;
nodes = (
"497 25 LINE",
"528 0 LINE",
"605 -2 LINE",
"607 12 LINE",
"497 43 LINE"
);
},
{
closed = 1;
nodes = (
"391 12 LINE",
"393 -2 LINE",
"469 0 LINE",
"515 25 LINE",
"515 43 LINE"
);
}
);
};
layerId = "97AFB7C9-FE9A-4B33-96EF-7CD144DFB325";
name = "Light Italic";
paths = (
{
closed = 1;
nodes = (
"551 303 LINE",
"557 326 LINE",
"135 326 LINE",
"129 303 LINE"
);
},
{
closed = 1;
nodes = (
"195 604 LINE",
"164 629 LINE",
"84 631 LINE",
"82 617 LINE",
"195 586 LINE"
);
},
{
closed = 1;
nodes = (
"298 617 LINE",
"296 631 LINE",
"223 629 LINE",
"177 604 LINE",
"177 586 LINE"
);
},
{
closed = 1;
nodes = (
"88 25 LINE",
"119 0 LINE",
"196 -2 LINE",
"198 12 LINE",
"88 43 LINE"
);
},
{
closed = 1;
nodes = (
"-18 12 LINE",
"-16 -2 LINE",
"60 0 LINE",
"106 25 LINE",
"106 43 LINE"
);
},
{
closed = 1;
nodes = (
"604 604 LINE",
"573 629 LINE",
"493 631 LINE",
"491 617 LINE",
"604 586 LINE"
);
},
{
closed = 1;
nodes = (
"707 617 LINE",
"705 631 LINE",
"632 629 LINE",
"586 604 LINE",
"586 586 LINE"
);
},
{
closed = 1;
nodes = (
"497 25 LINE",
"528 0 LINE",
"605 -2 LINE",
"607 12 LINE",
"497 43 LINE"
);
},
{
closed = 1;
nodes = (
"391 12 LINE",
"393 -2 LINE",
"469 0 LINE",
"515 25 LINE",
"515 43 LINE"
);
},
{
closed = 1;
nodes = (
"59 0 LINE",
"122 0 LINE",
"225 629 LINE",
"162 629 LINE"
);
},
{
closed = 1;
nodes = (
"468 0 LINE",
"531 0 LINE",
"634 629 LINE",
"571 629 LINE"
);
}
);
width = 660;
},
{
associatedMasterId = "97AFB7C9-FE9A-4B33-96EF-7CD144DFB325";
layerId = "42E3298D-8F9B-4348-9309-1CCA8A3D76A5";
name = "Light Italic Aug 2 16, 22:20";
paths = (
{
closed = 1;
nodes = (
"501 287 LINE",
"507 307 LINE",
"135 307 LINE",
"129 287 LINE"
);
},
{
closed = 1;
nodes = (
"297 608 LINE",
"61 608 LINE",
"61 591 LINE",
"175 574 LINE",
"196 585 LINE",
"297 586 LINE"
);
},
{
closed = 1;
nodes = (
"214 17 LINE",
"123 38 LINE",
"101 28 LINE",
"-9 17 LINE",
"-9 0 LINE",
"215 0 LINE"
);
},
{
closed = 1;
nodes = (
"62 0 LINE",
"121 0 LINE",
"215 595 LINE",
"156 595 LINE"
);
},
{
closed = 1;
nodes = (
"656 608 LINE",
"419 608 LINE",
"419 591 LINE",
"533 574 LINE",
"555 585 LINE",
"656 586 LINE"
);
},
{
closed = 1;
nodes = (
"573 17 LINE",
"482 38 LINE",
"459 28 LINE",
"350 17 LINE",
"350 0 LINE",
"574 0 LINE"
);
},
{
closed = 1;
nodes = (
"421 0 LINE",
"479 0 LINE",
"574 595 LINE",
"515 595 LINE"
);
}
);
width = 610;
},
{
layerId = "EADDC163-A127-4E50-A035-005E723BF706";
name = "SemiBold Italic";
width = 600;
},
{
associatedMasterId = "97AFB7C9-FE9A-4B33-96EF-7CD144DFB325";
layerId = "ACF19773-E17D-4164-BDA1-562588AB1B6E";
name = "Light Italic Aug 19 16, 23:14";
paths = (
{
closed = 1;
nodes = (
"541 303 LINE",
"547 326 LINE",
"135 326 LINE",
"129 303 LINE"
);
},
{
closed = 1;
nodes = (
"59 0 LINE",
"122 0 LINE",
"225 629 LINE",
"162 629 LINE"
);
},
{
closed = 1;
nodes = (
"456 0 LINE",
"518 0 LINE",
"621 629 LINE",
"558 629 LINE"
);
},
{
closed = 1;
nodes = (
"195 604 LINE",
"164 629 LINE",
"80 631 LINE",
"78 617 LINE",
"195 586 LINE"
);
},
{
closed = 1;
nodes = (
"294 617 LINE",
"292 631 LINE",
"223 629 LINE",
"177 604 LINE",
"177 586 LINE"
);
},
{
closed = 1;
nodes = (
"591 604 LINE",
"560 629 LINE",
"476 631 LINE",
"474 617 LINE",
"591 586 LINE"
);
},
{
closed = 1;
nodes = (
"690 617 LINE",
"688 631 LINE",
"619 629 LINE",
"573 604 LINE",
"573 586 LINE"
);
},
{
closed = 1;
nodes = (
"484 25 LINE",
"515 0 LINE",
"599 -2 LINE",
"601 12 LINE",
"484 43 LINE"
);
},
{
closed = 1;
nodes = (
"385 12 LINE",
"387 -2 LINE",
"466 0 LINE",
"502 25 LINE",
"502 43 LINE"
);
},
{
closed = 1;
nodes = (
"88 25 LINE",
"119 0 LINE",
"203 -2 LINE",
"205 12 LINE",
"88 43 LINE"
);
},
{
closed = 1;
nodes = (
"-11 12 LINE",
"-9 -2 LINE",
"60 0 LINE",
"106 25 LINE",
"106 43 LINE"
);
}
);
width = 651;
}
);
unicode = 0048;
},
{
glyphname = I;
lastChange = "2016-08-19 23:44:44 +0000";
layers = (
{
anchors = (
{
name = bottom;
position = "{91, 0}";
},
{
name = ogonek;
position = "{192, 10}";
},
{
name = top;
position = "{195, 629}";
},
{
name = topleft;
position = "{87, 629}";
}
);
background = {
paths = (
{
closed = 1;
nodes = (
"62 0 LINE",
"120 0 LINE",
"223 629 LINE",
"164 629 LINE"
);
},
{
closed = 1;
nodes = (
"195 604 LINE",
"164 629 LINE",
"84 631 LINE",
"82 617 LINE",
"195 586 LINE"
);
},
{
closed = 1;
nodes = (
"298 617 LINE",
"296 631 LINE",
"223 629 LINE",
"177 604 LINE",
"177 586 LINE"
);
},
{
closed = 1;
nodes = (
"88 25 LINE",
"119 0 LINE",
"196 -2 LINE",
"198 12 LINE",
"88 43 LINE"
);
},
{
closed = 1;
nodes = (
"-18 12 LINE",
"-16 -2 LINE",
"60 0 LINE",
"106 25 LINE",
"106 43 LINE"
);
}
);
};
layerId = "97AFB7C9-FE9A-4B33-96EF-7CD144DFB325";
name = "Light Italic";
paths = (
{
closed = 1;
nodes = (
"195 604 LINE",
"164 629 LINE",
"84 631 LINE",
"82 617 LINE",
"195 586 LINE"
);
},
{
closed = 1;
nodes = (
"298 617 LINE",
"296 631 LINE",
"223 629 LINE",
"177 604 LINE",
"177 586 LINE"
);
},
{
closed = 1;
nodes = (
"88 25 LINE",
"119 0 LINE",
"196 -2 LINE",
"198 12 LINE",
"88 43 LINE"
);
},
{
closed = 1;
nodes = (
"-18 12 LINE",
"-16 -2 LINE",
"60 0 LINE",
"106 25 LINE",
"106 43 LINE"
);
},
{
closed = 1;
nodes = (
"59 0 LINE",
"122 0 LINE",
"225 629 LINE",
"162 629 LINE"
);
}
);
width = 255;
},
{
layerId = "EADDC163-A127-4E50-A035-005E723BF706";
name = "SemiBold Italic";
width = 600;
}
);
unicode = 0049;
},
{
glyphname = J;
lastChange = "2016-08-19 22:32:22 +0000";
layers = (
{
background = {
paths = (
{
closed = 1;
nodes = (
"185 629 LINE",
"91 62 LINE SMOOTH",
"68 -78 OFFCURVE",
"29 -143 OFFCURVE",
"-19 -207 CURVE",
"-8 -218 LINE",
"56 -166 OFFCURVE",
"127 -100 OFFCURVE",
"152 51 CURVE SMOOTH",
"248 629 LINE"
);
},
{
closed = 1;
nodes = (
"218 604 LINE",
"187 629 LINE",
"107 631 LINE",
"105 617 LINE",
"218 586 LINE"
);
},
{
closed = 1;
nodes = (
"321 617 LINE",
"319 631 LINE",
"246 629 LINE",
"200 604 LINE",
"200 586 LINE"
);
}
);
};
layerId = "97AFB7C9-FE9A-4B33-96EF-7CD144DFB325";
name = "Light Italic";
paths = (
{
closed = 1;
nodes = (
"185 629 LINE",
"97 102 LINE SMOOTH",
"74 -38 OFFCURVE",
"35 -103 OFFCURVE",
"-13 -167 CURVE",
"-2 -178 LINE",
"62 -126 OFFCURVE",
"133 -60 OFFCURVE",
"158 91 CURVE SMOOTH",
"248 629 LINE"
);
},
{
closed = 1;
nodes = (
"218 604 LINE",
"187 629 LINE",
"107 631 LINE",
"105 617 LINE",
"218 586 LINE"
);
},
{
closed = 1;
nodes = (
"321 617 LINE",
"319 631 LINE",
"246 629 LINE",
"200 604 LINE",
"200 586 LINE"
);
}
);
width = 296;
},
{
associatedMasterId = "97AFB7C9-FE9A-4B33-96EF-7CD144DFB325";
layerId = "D9AEA210-2D77-424C-8BC3-98A0053803AC";
name = "Light Italic Aug 3 16, 14:36";
paths = (
{
closed = 1;
nodes = (
"90 59 LINE SMOOTH",
"70 -72 OFFCURVE",
"16 -137 OFFCURVE",
"-54 -181 CURVE",
"-42 -199 LINE",
"49 -148 OFFCURVE",
"127 -67 OFFCURVE",
"149 65 CURVE SMOOTH",
"233 595 LINE",
"172 595 LINE"
);
},
{
closed = 1;
nodes = (
"318 608 LINE",
"73 608 LINE",
"73 591 LINE",
"191 573 LINE",
"214 584 LINE",
"318 586 LINE"
);
}
);
width = 600;
},
{
associatedMasterId = "97AFB7C9-FE9A-4B33-96EF-7CD144DFB325";
layerId = "9B9E520F-92D9-451E-98BD-8E8455059548";
name = "Light Italic Aug 3 16, 15:43";
paths = (
{
closed = 1;
nodes = (
"62 -183 LINE",
"142 -151 OFFCURVE",
"247 -89 OFFCURVE",
"277 91 CURVE SMOOTH",
"359 585 LINE",
"430 600 LINE",
"430 630 LINE",
"421 629 OFFCURVE",
"377 628 OFFCURVE",
"331 628 CURVE SMOOTH",
"290 628 OFFCURVE",
"243 629 OFFCURVE",
"233 630 CURVE",
"223 599 LINE",
"292 583 OFFCURVE",
"291 568 OFFCURVE",
"274 467 CURVE SMOOTH",
"211 82 LINE SMOOTH",
"186 -67 OFFCURVE",
"117 -118 OFFCURVE",
"63 -154 CURVE"
);
}
);
width = 600;
},
{
layerId = "EADDC163-A127-4E50-A035-005E723BF706";
name = "SemiBold Italic";
width = 600;
},
{
associatedMasterId = "97AFB7C9-FE9A-4B33-96EF-7CD144DFB325";
background = {
paths = (
{
closed = 1;
nodes = (
"235 629 LINE",
"146 92 LINE SMOOTH",
"118 -78 OFFCURVE",
"49 -128 OFFCURVE",
"5 -164 CURVE",
"6 -183 LINE",
"76 -151 OFFCURVE",
"181 -90 OFFCURVE",
"211 91 CURVE SMOOTH",
"300 629 LINE"
);
},
{
closed = 1;
nodes = (
"269 604 LINE",
"238 629 LINE",
"154 631 LINE",
"152 617 LINE",
"269 586 LINE"
);
},
{
closed = 1;
nodes = (
"368 617 LINE",
"366 631 LINE",
"297 629 LINE",
"251 604 LINE",
"251 586 LINE"
);
}
);
};
layerId = "68A2596D-32EF-4725-9F6E-67EDF13B1907";
name = "Light Italic Aug 20 16, 00:28";
paths = (
{
closed = 1;
nodes = (
"235 629 LINE",
"146 92 LINE SMOOTH",
"118 -78 OFFCURVE",
"49 -128 OFFCURVE",
"5 -164 CURVE",
"13 -180 LINE",
"76 -151 OFFCURVE",
"181 -90 OFFCURVE",
"211 91 CURVE SMOOTH",
"300 629 LINE"
);
},
{
closed = 1;
nodes = (
"266 604 LINE",
"238 629 LINE",
"145 631 LINE",
"143 617 LINE",
"266 586 LINE"
);
},
{
closed = 1;
nodes = (
"368 617 LINE",
"366 631 LINE",
"297 629 LINE",
"248 604 LINE",
"248 586 LINE"
);
}
);
width = 343;
},
{
associatedMasterId = "97AFB7C9-FE9A-4B33-96EF-7CD144DFB325";
background = {
paths = (
{
closed = 1;
nodes = (
"269 604 LINE",
"238 629 LINE",
"158 631 LINE",
"156 617 LINE",
"269 586 LINE"
);
},
{
closed = 1;
nodes = (
"372 617 LINE",
"370 631 LINE",
"297 629 LINE",
"251 604 LINE",
"251 586 LINE"
);
},
{
closed = 1;
nodes = (
"133 0 LINE",
"196 0 LINE",
"299 629 LINE",
"236 629 LINE"
);
}
);
};
layerId = "7D3FD45F-1202-473A-94E4-17F59C3C768A";
name = "Light Italic Aug 20 16, 00:31";
paths = (
{
closed = 1;
nodes = (
"236 629 LINE",
"142 62 LINE SMOOTH",
"119 -78 OFFCURVE",
"80 -143 OFFCURVE",
"32 -207 CURVE",
"43 -218 LINE",
"107 -166 OFFCURVE",
"178 -100 OFFCURVE",
"203 51 CURVE SMOOTH",
"299 629 LINE"
);
},
{
closed = 1;
nodes = (
"269 604 LINE",
"238 629 LINE",
"158 631 LINE",
"156 617 LINE",
"269 586 LINE"
);
},
{
closed = 1;
nodes = (
"372 617 LINE",
"370 631 LINE",
"297 629 LINE",
"251 604 LINE",
"251 586 LINE"
);
}
);
width = 343;
}
);
unicode = 004A;
},
{
glyphname = K;
lastChange = "2016-08-19 21:31:03 +0000";
layers = (
{
background = {
paths = (
{
closed = 1;
nodes = (
"198 604 LINE",
"167 629 LINE",
"83 631 LINE",
"81 617 LINE",
"198 586 LINE"
);
},
{
closed = 1;
nodes = (
"297 617 LINE",
"295 631 LINE",
"226 629 LINE",
"180 604 LINE",
"180 586 LINE"
);
},
{
closed = 1;
nodes = (
"656 617 LINE",
"654 631 LINE",
"543 629 LINE",
"512 632 LINE",
"497 604 LINE",
"497 576 LINE"
);
},
{
closed = 1;
nodes = (
"88 25 LINE",
"119 0 LINE",
"203 -2 LINE",
"205 12 LINE",
"88 43 LINE"
);
},
{
closed = 1;
nodes = (
"-11 12 LINE",
"-9 -2 LINE",
"60 0 LINE",
"106 25 LINE",
"106 43 LINE"
);
},
{
closed = 1;
nodes = (
"263 321 LINE",
"580 629 LINE",
"543 629 LINE",
"512 632 LINE",
"233 314 LINE"
);
},
{
closed = 1;
nodes = (
"59 0 LINE",
"122 0 LINE",
"225 629 LINE",
"162 629 LINE"
);
},
{
closed = 1;
nodes = (
"404 -7 LINE",
"556 -1 LINE",
"558 13 LINE",
"430 47 LINE",
"472 16 LINE",
"291 349 LINE",
"233 314 LINE"
);
}
);
};
layerId = "97AFB7C9-FE9A-4B33-96EF-7CD144DFB325";
name = "Light Italic";
paths = (
{
closed = 1;
nodes = (
"198 604 LINE",
"167 629 LINE",
"83 631 LINE",
"81 617 LINE",
"198 586 LINE"
);
},
{
closed = 1;
nodes = (
"297 617 LINE",
"295 631 LINE",
"226 629 LINE",
"180 604 LINE",
"180 586 LINE"
);
},
{
closed = 1;
nodes = (
"641 617 LINE",
"639 631 LINE",
"528 629 LINE",
"497 632 LINE",
"482 604 LINE",
"487 576 LINE"
);
},
{
closed = 1;
nodes = (
"88 25 LINE",
"119 0 LINE",
"203 -2 LINE",
"205 12 LINE",
"88 43 LINE"
);
},
{
closed = 1;
nodes = (
"-11 12 LINE",
"-9 -2 LINE",
"60 0 LINE",
"106 25 LINE",
"106 43 LINE"
);
},
{
closed = 1;
nodes = (
"253 321 LINE",
"570 629 LINE",
"528 629 LINE",
"497 632 LINE",
"223 314 LINE"
);
},
{
closed = 1;
nodes = (
"59 0 LINE",
"122 0 LINE",
"225 629 LINE",
"162 629 LINE"
);
},
{
closed = 1;
nodes = (
"404 -7 LINE",
"556 -1 LINE",
"558 13 LINE",
"430 47 LINE",
"465 16 LINE",
"274 349 LINE",
"223 314 LINE"
);
}
);
width = 612;
},
{
associatedMasterId = "97AFB7C9-FE9A-4B33-96EF-7CD144DFB325";
background = {
paths = (
{
closed = 1;
nodes = (
"314 608 LINE",
"78 608 LINE",
"78 591 LINE",
"191 574 LINE",
"213 584 LINE",
"314 586 LINE"
);
},
{
closed = 1;
nodes = (
"231 18 LINE",
"141 39 LINE",
"118 28 LINE",
"8 18 LINE",
"8 0 LINE",
"232 0 LINE"
);
},
{
closed = 1;
nodes = (
"79 0 LINE",
"139 0 LINE",
"233 595 LINE",
"173 595 LINE"
);
},
{
closed = 1;
nodes = (
"289 215 OFFCURVE",
"350 66 OFFCURVE",
"386 -2 CURVE",
"443 22 LINE",
"398 107 OFFCURVE",
"337 257 OFFCURVE",
"305 331 CURVE",
"254 302 LINE"
);
},
{
closed = 1;
nodes = (
"283 299 LINE",
"342 339 OFFCURVE",
"535 471 OFFCURVE",
"550 567 CURVE SMOOTH",
"560 628 OFFCURVE",
"516 648 OFFCURVE",
"498 643 CURVE",
"487 575 LINE SMOOTH",
"480 532 OFFCURVE",
"465 469 OFFCURVE",
"459 461 CURVE",
"498 516 LINE",
"493 537 LINE",
"486 498 OFFCURVE",
"287 328 OFFCURVE",
"251 302 CURVE"
);
},
{
closed = 1;
nodes = (
"386 -2 LINE",
"394 -4 OFFCURVE",
"401 -5 OFFCURVE",
"409 -5 CURVE SMOOTH",
"493 -5 OFFCURVE",
"550 107 OFFCURVE",
"550 135 CURVE",
"537 147 LINE",
"512 92 OFFCURVE",
"473 39 OFFCURVE",
"426 25 CURVE"
);
}
);
};
layerId = "EB4E5C3A-A4F2-4769-806A-8034E739A195";
name = "Light Italic Aug 2 16, 23:52";
paths = (
{
closed = 1;
nodes = (
"314 608 LINE",
"78 608 LINE",
"78 591 LINE",
"191 574 LINE",
"213 584 LINE",
"314 586 LINE"
);
},
{
closed = 1;
nodes = (
"231 18 LINE",
"141 39 LINE",
"118 28 LINE",
"8 18 LINE",
"8 0 LINE",
"232 0 LINE"
);
},
{
closed = 1;
nodes = (
"79 0 LINE",
"139 0 LINE",
"233 595 LINE",
"173 595 LINE"
);
},
{
closed = 1;
nodes = (
"289 215 OFFCURVE",
"350 66 OFFCURVE",
"386 -2 CURVE",
"443 22 LINE",
"398 107 OFFCURVE",
"337 257 OFFCURVE",
"305 331 CURVE",
"253 304 LINE"
);
},
{
closed = 1;
nodes = (
"296 305 LINE",
"345 335 OFFCURVE",
"535 471 OFFCURVE",
"550 567 CURVE SMOOTH",
"560 628 OFFCURVE",
"516 648 OFFCURVE",
"498 643 CURVE",
"487 575 LINE SMOOTH",
"480 532 OFFCURVE",
"465 469 OFFCURVE",
"459 461 CURVE",
"498 516 LINE",
"493 537 LINE",
"486 498 OFFCURVE",
"287 328 OFFCURVE",
"253 304 CURVE"
);
},
{
closed = 1;
nodes = (
"386 -2 LINE",
"394 -4 OFFCURVE",
"401 -5 OFFCURVE",
"409 -5 CURVE SMOOTH",
"493 -5 OFFCURVE",
"550 107 OFFCURVE",
"550 135 CURVE",
"537 147 LINE",
"512 92 OFFCURVE",
"473 39 OFFCURVE",
"426 25 CURVE"
);
}
);
width = 568;
},
{
layerId = "EADDC163-A127-4E50-A035-005E723BF706";
name = "SemiBold Italic";
width = 600;
},
{
associatedMasterId = "97AFB7C9-FE9A-4B33-96EF-7CD144DFB325";
background = {
paths = (
{
closed = 1;
nodes = (
"220 322 LINE",
"454 0 LINE",
"532 0 LINE",
"278 352 LINE"
);
},
{
closed = 1;
nodes = (
"195 604 LINE",
"164 629 LINE",
"80 631 LINE",
"78 617 LINE",
"195 586 LINE"
);
},
{
closed = 1;
nodes = (
"294 617 LINE",
"292 631 LINE",
"223 629 LINE",
"177 604 LINE",
"177 586 LINE"
);
},
{
closed = 1;
nodes = (
"570 604 LINE",
"579 629 LINE",
"459 631 LINE",
"457 617 LINE",
"570 586 LINE"
);
},
{
closed = 1;
nodes = (
"669 617 LINE",
"667 631 LINE",
"598 629 LINE",
"552 604 LINE",
"552 586 LINE"
);
},
{
closed = 1;
nodes = (
"476 25 LINE",
"497 0 LINE",
"581 -2 LINE",
"583 12 LINE",
"476 43 LINE"
);
},
{
closed = 1;
nodes = (
"367 12 LINE",
"369 -2 LINE",
"508 0 LINE",
"494 25 LINE",
"494 43 LINE"
);
},
{
closed = 1;
nodes = (
"88 25 LINE",
"119 0 LINE",
"203 -2 LINE",
"205 12 LINE",
"88 43 LINE"
);
},
{
closed = 1;
nodes = (
"-11 12 LINE",
"-9 -2 LINE",
"60 0 LINE",
"106 25 LINE",
"106 43 LINE"
);
},
{
closed = 1;
nodes = (
"258 322 LINE",
"625 629 LINE",
"575 629 LINE",
"220 322 LINE"
);
},
{
closed = 1;
nodes = (
"59 0 LINE",
"122 0 LINE",
"225 629 LINE",
"162 629 LINE"
);
}
);
};
layerId = "F4FEC21C-B446-494E-8BA0-4BD6137A05F6";
name = "Light Italic Aug 19 16, 20:57";
paths = (
{
closed = 1;
nodes = (
"220 322 LINE",
"454 0 LINE",
"532 0 LINE",
"278 352 LINE"
);
},
{
closed = 1;
nodes = (
"195 604 LINE",
"164 629 LINE",
"80 631 LINE",
"78 617 LINE",
"195 586 LINE"
);
},
{
closed = 1;
nodes = (
"294 617 LINE",
"292 631 LINE",
"223 629 LINE",
"177 604 LINE",
"177 586 LINE"
);
},
{
closed = 1;
nodes = (
"570 604 LINE",
"579 629 LINE",
"459 631 LINE",
"457 617 LINE",
"570 586 LINE"
);
},
{
closed = 1;
nodes = (
"669 617 LINE",
"667 631 LINE",
"598 629 LINE",
"552 604 LINE",
"552 586 LINE"
);
},
{
closed = 1;
nodes = (
"476 25 LINE",
"497 0 LINE",
"581 -2 LINE",
"583 12 LINE",
"476 43 LINE"
);
},
{
closed = 1;
nodes = (
"367 12 LINE",
"369 -2 LINE",
"508 0 LINE",
"494 25 LINE",
"494 43 LINE"
);
},
{
closed = 1;
nodes = (
"88 25 LINE",
"119 0 LINE",
"203 -2 LINE",
"205 12 LINE",
"88 43 LINE"
);
},
{
closed = 1;
nodes = (
"-11 12 LINE",
"-9 -2 LINE",
"60 0 LINE",
"106 25 LINE",
"106 43 LINE"
);
},
{
closed = 1;
nodes = (
"258 322 LINE",
"625 629 LINE",
"575 629 LINE",
"220 322 LINE"
);
},
{
closed = 1;
nodes = (
"59 0 LINE",
"122 0 LINE",
"225 629 LINE",
"162 629 LINE"
);
}
);
width = 651;
},
{
associatedMasterId = "97AFB7C9-FE9A-4B33-96EF-7CD144DFB325";
background = {
paths = (
{
closed = 1;
nodes = (
"195 604 LINE",
"164 629 LINE",
"80 631 LINE",
"78 617 LINE",
"195 586 LINE"
);
},
{
closed = 1;
nodes = (
"294 617 LINE",
"292 631 LINE",
"223 629 LINE",
"177 604 LINE",
"177 586 LINE"
);
},
{
closed = 1;
nodes = (
"570 604 LINE",
"579 629 LINE",
"459 631 LINE",
"457 617 LINE",
"570 586 LINE"
);
},
{
closed = 1;
nodes = (
"669 617 LINE",
"667 631 LINE",
"598 629 LINE",
"552 604 LINE",
"552 586 LINE"
);
},
{
closed = 1;
nodes = (
"88 25 LINE",
"119 0 LINE",
"203 -2 LINE",
"205 12 LINE",
"88 43 LINE"
);
},
{
closed = 1;
nodes = (
"-11 12 LINE",
"-9 -2 LINE",
"60 0 LINE",
"106 25 LINE",
"106 43 LINE"
);
},
{
closed = 1;
nodes = (
"258 322 LINE",
"625 629 LINE",
"575 629 LINE",
"220 322 LINE"
);
},
{
closed = 1;
nodes = (
"59 0 LINE",
"122 0 LINE",
"225 629 LINE",
"162 629 LINE"
);
},
{
closed = 1;
nodes = (
"436 0 LINE",
"479 0 LINE",
"581 -2 LINE",
"583 12 LINE",
"490.589 34.918 LINE",
"278 352 LINE",
"220 322 LINE"
);
}
);
};
layerId = "AD1AA947-C2CE-4280-95BC-543B7A4336A6";
name = "Light Italic Aug 19 16, 20:59";
paths = (
{
closed = 1;
nodes = (
"195 604 LINE",
"164 629 LINE",
"80 631 LINE",
"78 617 LINE",
"195 586 LINE"
);
},
{
closed = 1;
nodes = (
"294 617 LINE",
"292 631 LINE",
"223 629 LINE",
"177 604 LINE",
"177 586 LINE"
);
},
{
closed = 1;
nodes = (
"570 604 LINE",
"579 629 LINE",
"459 631 LINE",
"457 617 LINE",
"570 586 LINE"
);
},
{
closed = 1;
nodes = (
"669 617 LINE",
"667 631 LINE",
"598 629 LINE",
"552 604 LINE",
"552 586 LINE"
);
},
{
closed = 1;
nodes = (
"88 25 LINE",
"119 0 LINE",
"203 -2 LINE",
"205 12 LINE",
"88 43 LINE"
);
},
{
closed = 1;
nodes = (
"-11 12 LINE",
"-9 -2 LINE",
"60 0 LINE",
"106 25 LINE",
"106 43 LINE"
);
},
{
closed = 1;
nodes = (
"258 322 LINE",
"625 629 LINE",
"575 629 LINE",
"220 322 LINE"
);
},
{
closed = 1;
nodes = (
"59 0 LINE",
"122 0 LINE",
"225 629 LINE",
"162 629 LINE"
);
},
{
closed = 1;
nodes = (
"409 32 LINE SMOOTH",
"418 18 OFFCURVE",
"438 -7 OFFCURVE",
"458 -7 CURVE",
"487 -7 OFFCURVE",
"533 -1 OFFCURVE",
"581 2 CURVE",
"583 16 LINE",
"447 46 LINE",
"504 15 LINE",
"278 352 LINE",
"220 322 LINE"
);
}
);
width = 651;
},
{
associatedMasterId = "97AFB7C9-FE9A-4B33-96EF-7CD144DFB325";
background = {
paths = (
{
closed = 1;
nodes = (
"195 604 LINE",
"164 629 LINE",
"80 631 LINE",
"78 617 LINE",
"195 586 LINE"
);
},
{
closed = 1;
nodes = (
"294 617 LINE",
"292 631 LINE",
"223 629 LINE",
"177 604 LINE",
"177 586 LINE"
);
},
{
closed = 1;
nodes = (
"570 604 LINE",
"579 629 LINE",
"459 631 LINE",
"457 617 LINE",
"570 586 LINE"
);
},
{
closed = 1;
nodes = (
"669 617 LINE",
"667 631 LINE",
"598 629 LINE",
"552 604 LINE",
"552 586 LINE"
);
},
{
closed = 1;
nodes = (
"88 25 LINE",
"119 0 LINE",
"203 -2 LINE",
"205 12 LINE",
"88 43 LINE"
);
},
{
closed = 1;
nodes = (
"-11 12 LINE",
"-9 -2 LINE",
"60 0 LINE",
"106 25 LINE",
"106 43 LINE"
);
},
{
closed = 1;
nodes = (
"258 322 LINE",
"625 629 LINE",
"575 629 LINE",
"220 322 LINE"
);
},
{
closed = 1;
nodes = (
"59 0 LINE",
"122 0 LINE",
"225 629 LINE",
"162 629 LINE"
);
},
{
closed = 1;
nodes = (
"436 0 LINE",
"479 0 LINE",
"581 -2 LINE",
"583 12 LINE",
"490.589 34.918 LINE",
"278 352 LINE",
"220 322 LINE"
);
}
);
};
layerId = "64D71D11-F84A-4C53-B13A-25AA5024CCC2";
name = "Light Italic Aug 19 16, 21:01";
paths = (
{
closed = 1;
nodes = (
"195 604 LINE",
"164 629 LINE",
"80 631 LINE",
"78 617 LINE",
"195 586 LINE"
);
},
{
closed = 1;
nodes = (
"294 617 LINE",
"292 631 LINE",
"223 629 LINE",
"177 604 LINE",
"177 586 LINE"
);
},
{
closed = 1;
nodes = (
"570 604 LINE",
"579 629 LINE",
"459 631 LINE",
"457 617 LINE",
"570 586 LINE"
);
},
{
closed = 1;
nodes = (
"669 617 LINE",
"667 631 LINE",
"598 629 LINE",
"552 604 LINE",
"552 586 LINE"
);
},
{
closed = 1;
nodes = (
"88 25 LINE",
"119 0 LINE",
"203 -2 LINE",
"205 12 LINE",
"88 43 LINE"
);
},
{
closed = 1;
nodes = (
"-11 12 LINE",
"-9 -2 LINE",
"60 0 LINE",
"106 25 LINE",
"106 43 LINE"
);
},
{
closed = 1;
nodes = (
"258 322 LINE",
"625 629 LINE",
"575 629 LINE",
"220 322 LINE"
);
},
{
closed = 1;
nodes = (
"59 0 LINE",
"122 0 LINE",
"225 629 LINE",
"162 629 LINE"
);
},
{
closed = 1;
nodes = (
"399 28 LINE SMOOTH",
"421 -8 OFFCURVE",
"431 -12 OFFCURVE",
"448 -11 CURVE SMOOTH",
"581 -2 LINE",
"583 12 LINE",
"447 42 LINE",
"494 11 LINE",
"278 352 LINE",
"220 322 LINE"
);
}
);
width = 651;
},
{
associatedMasterId = "97AFB7C9-FE9A-4B33-96EF-7CD144DFB325";
background = {
paths = (
{
closed = 1;
nodes = (
"195 604 LINE",
"164 629 LINE",
"80 631 LINE",
"78 617 LINE",
"195 586 LINE"
);
},
{
closed = 1;
nodes = (
"294 617 LINE",
"292 631 LINE",
"223 629 LINE",
"177 604 LINE",
"177 586 LINE"
);
},
{
closed = 1;
nodes = (
"570 604 LINE",
"579 629 LINE",
"459 631 LINE",
"457 617 LINE",
"570 586 LINE"
);
},
{
closed = 1;
nodes = (
"669 617 LINE",
"667 631 LINE",
"598 629 LINE",
"552 604 LINE",
"552 586 LINE"
);
},
{
closed = 1;
nodes = (
"88 25 LINE",
"119 0 LINE",
"203 -2 LINE",
"205 12 LINE",
"88 43 LINE"
);
},
{
closed = 1;
nodes = (
"-11 12 LINE",
"-9 -2 LINE",
"60 0 LINE",
"106 25 LINE",
"106 43 LINE"
);
},
{
closed = 1;
nodes = (
"258 322 LINE",
"625 629 LINE",
"575 629 LINE",
"220 322 LINE"
);
},
{
closed = 1;
nodes = (
"59 0 LINE",
"122 0 LINE",
"225 629 LINE",
"162 629 LINE"
);
},
{
closed = 1;
nodes = (
"436 0 LINE",
"479 0 LINE",
"581 -2 LINE",
"583 12 LINE",
"490.589 34.918 LINE",
"278 352 LINE",
"220 322 LINE"
);
}
);
};
layerId = "B64334E8-EDD6-4CA6-BA85-442805BBB88F";
name = "Light Italic Aug 19 16, 21:02";
paths = (
{
closed = 1;
nodes = (
"198 604 LINE",
"167 629 LINE",
"83 631 LINE",
"81 617 LINE",
"198 586 LINE"
);
},
{
closed = 1;
nodes = (
"297 617 LINE",
"295 631 LINE",
"226 629 LINE",
"180 604 LINE",
"180 586 LINE"
);
},
{
closed = 1;
nodes = (
"570 604 LINE",
"579 629 LINE",
"459 631 LINE",
"457 617 LINE",
"570 586 LINE"
);
},
{
closed = 1;
nodes = (
"669 617 LINE",
"667 631 LINE",
"598 629 LINE",
"552 604 LINE",
"552 586 LINE"
);
},
{
closed = 1;
nodes = (
"88 25 LINE",
"119 0 LINE",
"203 -2 LINE",
"205 12 LINE",
"88 43 LINE"
);
},
{
closed = 1;
nodes = (
"-11 12 LINE",
"-9 -2 LINE",
"60 0 LINE",
"106 25 LINE",
"106 43 LINE"
);
},
{
closed = 1;
nodes = (
"258 329 LINE",
"635 629 LINE",
"565 629 LINE",
"220 322 LINE"
);
},
{
closed = 1;
nodes = (
"59 0 LINE",
"122 0 LINE",
"225 629 LINE",
"162 629 LINE"
);
},
{
closed = 1;
nodes = (
"399 28 LINE SMOOTH",
"421 -8 OFFCURVE",
"431 -12 OFFCURVE",
"448 -11 CURVE SMOOTH",
"581 -2 LINE",
"583 12 LINE",
"447 42 LINE",
"489 11 LINE",
"280 352 LINE",
"220 322 LINE"
);
}
);
width = 651;
},
{
associatedMasterId = "97AFB7C9-FE9A-4B33-96EF-7CD144DFB325";
background = {
paths = (
{
closed = 1;
nodes = (
"198 604 LINE",
"167 629 LINE",
"83 631 LINE",
"81 617 LINE",
"198 586 LINE"
);
},
{
closed = 1;
nodes = (
"297 617 LINE",
"295 631 LINE",
"226 629 LINE",
"180 604 LINE",
"180 586 LINE"
);
},
{
closed = 1;
nodes = (
"570 604 LINE",
"579 629 LINE",
"459 631 LINE",
"457 617 LINE",
"570 586 LINE"
);
},
{
closed = 1;
nodes = (
"669 617 LINE",
"667 631 LINE",
"598 629 LINE",
"552 604 LINE",
"552 586 LINE"
);
},
{
closed = 1;
nodes = (
"88 25 LINE",
"119 0 LINE",
"203 -2 LINE",
"205 12 LINE",
"88 43 LINE"
);
},
{
closed = 1;
nodes = (
"-11 12 LINE",
"-9 -2 LINE",
"60 0 LINE",
"106 25 LINE",
"106 43 LINE"
);
},
{
closed = 1;
nodes = (
"258 329 LINE",
"635 629 LINE",
"565 629 LINE",
"220 322 LINE"
);
},
{
closed = 1;
nodes = (
"59 0 LINE",
"122 0 LINE",
"225 629 LINE",
"162 629 LINE"
);
},
{
closed = 1;
nodes = (
"399 28 LINE SMOOTH",
"421 -8 OFFCURVE",
"431 -12 OFFCURVE",
"448 -11 CURVE SMOOTH",
"581 -2 LINE",
"583 12 LINE",
"447 42 LINE",
"489 11 LINE",
"280 352 LINE",
"220 322 LINE"
);
}
);
};
layerId = "827A6A61-B396-4FE5-806E-777FA49AD481";
name = "Light Italic Aug 19 16, 21:05";
paths = (
{
closed = 1;
nodes = (
"198 604 LINE",
"167 629 LINE",
"83 631 LINE",
"81 617 LINE",
"198 586 LINE"
);
},
{
closed = 1;
nodes = (
"297 617 LINE",
"295 631 LINE",
"226 629 LINE",
"180 604 LINE",
"180 586 LINE"
);
},
{
closed = 1;
nodes = (
"651 617 LINE",
"649 631 LINE",
"548 629 LINE",
"517 632 LINE",
"502 604 LINE",
"502 576 LINE"
);
},
{
closed = 1;
nodes = (
"88 25 LINE",
"119 0 LINE",
"203 -2 LINE",
"205 12 LINE",
"88 43 LINE"
);
},
{
closed = 1;
nodes = (
"-11 12 LINE",
"-9 -2 LINE",
"60 0 LINE",
"106 25 LINE",
"106 43 LINE"
);
},
{
closed = 1;
nodes = (
"260 324 LINE",
"585 629 LINE",
"548 629 LINE",
"517 632 LINE",
"222 317 LINE"
);
},
{
closed = 1;
nodes = (
"59 0 LINE",
"122 0 LINE",
"225 629 LINE",
"162 629 LINE"
);
},
{
closed = 1;
nodes = (
"382 32 LINE SMOOTH",
"403 -5 OFFCURVE",
"414 -8 OFFCURVE",
"431 -7 CURVE SMOOTH",
"560 -2 LINE",
"562 12 LINE",
"430 46 LINE",
"472 15 LINE",
"280 352 LINE",
"222 317 LINE"
);
}
);
width = 612;
},
{
associatedMasterId = "97AFB7C9-FE9A-4B33-96EF-7CD144DFB325";
background = {
paths = (
{
closed = 1;
nodes = (
"198 604 LINE",
"167 629 LINE",
"83 631 LINE",
"81 617 LINE",
"198 586 LINE"
);
},
{
closed = 1;
nodes = (
"297 617 LINE",
"295 631 LINE",
"226 629 LINE",
"180 604 LINE",
"180 586 LINE"
);
},
{
closed = 1;
nodes = (
"656 617 LINE",
"654 631 LINE",
"543 629 LINE",
"512 632 LINE",
"497 604 LINE",
"497 576 LINE"
);
},
{
closed = 1;
nodes = (
"88 25 LINE",
"119 0 LINE",
"203 -2 LINE",
"205 12 LINE",
"88 43 LINE"
);
},
{
closed = 1;
nodes = (
"-11 12 LINE",
"-9 -2 LINE",
"60 0 LINE",
"106 25 LINE",
"106 43 LINE"
);
},
{
closed = 1;
nodes = (
"270 324 LINE",
"580 629 LINE",
"543 629 LINE",
"512 632 LINE",
"232 317 LINE"
);
},
{
closed = 1;
nodes = (
"59 0 LINE",
"122 0 LINE",
"225 629 LINE",
"162 629 LINE"
);
},
{
closed = 1;
nodes = (
"382 32 LINE SMOOTH",
"402 -6 OFFCURVE",
"414 -8 OFFCURVE",
"431 -7 CURVE SMOOTH",
"556 -2 LINE",
"558 12 LINE",
"430 46 LINE",
"472 15 LINE",
"290 352 LINE",
"232 317 LINE"
);
}
);
};
layerId = "0EED6BF4-9CB6-4A08-A556-BB983A58C73C";
name = "Light Italic Aug 19 16, 21:44";
paths = (
{
closed = 1;
nodes = (
"198 604 LINE",
"167 629 LINE",
"83 631 LINE",
"81 617 LINE",
"198 586 LINE"
);
},
{
closed = 1;
nodes = (
"297 617 LINE",
"295 631 LINE",
"226 629 LINE",
"180 604 LINE",
"180 586 LINE"
);
},
{
closed = 1;
nodes = (
"656 617 LINE",
"654 631 LINE",
"543 629 LINE",
"512 632 LINE",
"497 604 LINE",
"497 576 LINE"
);
},
{
closed = 1;
nodes = (
"88 25 LINE",
"119 0 LINE",
"203 -2 LINE",
"205 12 LINE",
"88 43 LINE"
);
},
{
closed = 1;
nodes = (
"-11 12 LINE",
"-9 -2 LINE",
"60 0 LINE",
"106 25 LINE",
"106 43 LINE"
);
},
{
closed = 1;
nodes = (
"270 324 LINE",
"580 629 LINE",
"543 629 LINE",
"512 632 LINE",
"232 317 LINE"
);
},
{
closed = 1;
nodes = (
"59 0 LINE",
"122 0 LINE",
"225 629 LINE",
"162 629 LINE"
);
},
{
closed = 1;
nodes = (
"382 32 LINE SMOOTH",
"402 -6 OFFCURVE",
"414 -8 OFFCURVE",
"431 -7 CURVE SMOOTH",
"556 -2 LINE",
"558 12 LINE",
"430 46 LINE",
"472 15 LINE",
"290 352 LINE",
"232 317 LINE"
);
}
);
width = 612;
}
);
unicode = 004B;
},
{
glyphname = L;
lastChange = "2016-08-19 22:09:36 +0000";
layers = (
{
background = {
paths = (
{
closed = 1;
nodes = (
"75 0 LINE",
"133 0 LINE",
"236 629 LINE",
"177 629 LINE"
);
},
{
closed = 1;
nodes = (
"208 604 LINE",
"177 629 LINE",
"97 631 LINE",
"95 617 LINE",
"208 586 LINE"
);
},
{
closed = 1;
nodes = (
"311 617 LINE",
"309 631 LINE",
"236 629 LINE",
"190 604 LINE",
"190 586 LINE"
);
},
{
closed = 1;
nodes = (
"-5 12 LINE",
"-3 -2 LINE",
"73 0 LINE",
"119 25 LINE",
"119 43 LINE"
);
},
{
closed = 1;
nodes = (
"63 1 LINE",
"212 -1 LINE SMOOTH",
"322 -3 OFFCURVE",
"434 -4 OFFCURVE",
"463 -6 CURVE",
"476 45 LINE",
"448 35 OFFCURVE",
"379 25 OFFCURVE",
"230 27 CURVE SMOOTH",
"131 28 LINE"
);
},
{
closed = 1;
nodes = (
"471 -19 LINE",
"504 156 LINE",
"490 156 LINE",
"408 11 LINE",
"431 5 LINE",
"457 -19 LINE"
);
}
);
};
layerId = "97AFB7C9-FE9A-4B33-96EF-7CD144DFB325";
name = "Light Italic";
paths = (
{
closed = 1;
nodes = (
"208 604 LINE",
"177 629 LINE",
"97 631 LINE",
"95 617 LINE",
"208 586 LINE"
);
},
{
closed = 1;
nodes = (
"311 617 LINE",
"309 631 LINE",
"236 629 LINE",
"190 604 LINE",
"190 586 LINE"
);
},
{
closed = 1;
nodes = (
"-5 12 LINE",
"-3 -2 LINE",
"73 0 LINE",
"119 25 LINE",
"119 43 LINE"
);
},
{
closed = 1;
nodes = (
"63 1 LINE",
"212 -1 LINE SMOOTH",
"322 -3 OFFCURVE",
"434 -4 OFFCURVE",
"463 -6 CURVE",
"476 45 LINE",
"448 35 OFFCURVE",
"379 25 OFFCURVE",
"230 27 CURVE SMOOTH",
"131 28 LINE"
);
},
{
closed = 1;
nodes = (
"471 -19 LINE",
"504 156 LINE",
"490 156 LINE",
"408 11 LINE",
"431 5 LINE",
"457 -19 LINE"
);
},
{
closed = 1;
nodes = (
"72 0 LINE",
"135 0 LINE",
"238 629 LINE",
"175 629 LINE"
);
}
);
width = 556;
},
{
layerId = "EADDC163-A127-4E50-A035-005E723BF706";
name = "SemiBold Italic";
width = 600;
},
{
associatedMasterId = "97AFB7C9-FE9A-4B33-96EF-7CD144DFB325";
background = {
paths = (
{
closed = 1;
nodes = (
"0 -2 LINE",
"16 -2 OFFCURVE",
"128 0 OFFCURVE",
"244 0 CURVE SMOOTH",
"345 0 OFFCURVE",
"438 -1 OFFCURVE",
"449 -2 CURVE",
"473 29 OFFCURVE",
"511 139 OFFCURVE",
"519 184 CURVE",
"498 184 LINE",
"443 46 OFFCURVE",
"394 24 OFFCURVE",
"251 24 CURVE SMOOTH",
"203 24 OFFCURVE",
"167 28 OFFCURVE",
"133 39 CURVE"
);
},
{
closed = 1;
nodes = (
"74 0 LINE",
"137 0 LINE",
"240 629 LINE",
"177 629 LINE"
);
},
{
closed = 1;
nodes = (
"210 604 LINE",
"179 629 LINE",
"98 631 LINE",
"96 617 LINE",
"210 586 LINE"
);
},
{
closed = 1;
nodes = (
"306 617 LINE",
"304 631 LINE",
"238 629 LINE",
"192 604 LINE",
"192 586 LINE"
);
},
{
closed = 1;
nodes = (
"-2 12 LINE",
"0 -2 LINE",
"75 0 LINE",
"121 25 LINE",
"121 43 LINE"
);
}
);
};
layerId = "EF177E59-76DB-405A-ADB5-DFF9263C31A6";
name = "Light Italic Aug 20 16, 00:05";
paths = (
{
closed = 1;
nodes = (
"0 -2 LINE",
"16 -2 OFFCURVE",
"128 0 OFFCURVE",
"244 0 CURVE SMOOTH",
"345 0 OFFCURVE",
"438 -1 OFFCURVE",
"449 -2 CURVE",
"473 29 OFFCURVE",
"511 139 OFFCURVE",
"519 184 CURVE",
"498 184 LINE",
"443 46 OFFCURVE",
"394 24 OFFCURVE",
"251 24 CURVE SMOOTH",
"203 24 OFFCURVE",
"167 28 OFFCURVE",
"133 39 CURVE"
);
},
{
closed = 1;
nodes = (
"74 0 LINE",
"137 0 LINE",
"240 629 LINE",
"177 629 LINE"
);
},
{
closed = 1;
nodes = (
"210 604 LINE",
"179 629 LINE",
"98 631 LINE",
"96 617 LINE",
"210 586 LINE"
);
},
{
closed = 1;
nodes = (
"306 617 LINE",
"304 631 LINE",
"238 629 LINE",
"192 604 LINE",
"192 586 LINE"
);
},
{
closed = 1;
nodes = (
"-2 12 LINE",
"0 -2 LINE",
"75 0 LINE",
"121 25 LINE",
"121 43 LINE"
);
}
);
width = 588;
},
{
associatedMasterId = "97AFB7C9-FE9A-4B33-96EF-7CD144DFB325";
background = {
paths = (
{
closed = 1;
nodes = (
"0 -2 LINE",
"16 -2 OFFCURVE",
"128 0 OFFCURVE",
"244 0 CURVE SMOOTH",
"345 0 OFFCURVE",
"438 -1 OFFCURVE",
"449 -2 CURVE",
"473 29 OFFCURVE",
"511 139 OFFCURVE",
"519 184 CURVE",
"498 184 LINE",
"443 46 OFFCURVE",
"394 24 OFFCURVE",
"251 24 CURVE SMOOTH",
"203 24 OFFCURVE",
"167 28 OFFCURVE",
"133 39 CURVE"
);
},
{
closed = 1;
nodes = (
"74 0 LINE",
"137 0 LINE",
"240 629 LINE",
"177 629 LINE"
);
},
{
closed = 1;
nodes = (
"210 604 LINE",
"179 629 LINE",
"98 631 LINE",
"96 617 LINE",
"210 586 LINE"
);
},
{
closed = 1;
nodes = (
"306 617 LINE",
"304 631 LINE",
"238 629 LINE",
"192 604 LINE",
"192 586 LINE"
);
},
{
closed = 1;
nodes = (
"-2 12 LINE",
"0 -2 LINE",
"75 0 LINE",
"121 25 LINE",
"121 43 LINE"
);
}
);
};
layerId = "BCB7EFE6-08CD-478D-BC88-BCCC911730D8";
name = "Light Italic Aug 20 16, 00:06";
paths = (
{
closed = 1;
nodes = (
"75 0 LINE",
"133 0 LINE",
"236 629 LINE",
"177 629 LINE"
);
},
{
closed = 1;
nodes = (
"208 604 LINE",
"177 629 LINE",
"97 631 LINE",
"95 617 LINE",
"208 586 LINE"
);
},
{
closed = 1;
nodes = (
"311 617 LINE",
"309 631 LINE",
"236 629 LINE",
"190 604 LINE",
"190 586 LINE"
);
},
{
closed = 1;
nodes = (
"-5 12 LINE",
"-3 -2 LINE",
"73 0 LINE",
"119 25 LINE",
"119 43 LINE"
);
},
{
closed = 1;
nodes = (
"461 -17 LINE",
"490 153 LINE",
"473 153 LINE",
"401 13 LINE",
"418 7 LINE",
"447 -17 LINE"
);
},
{
closed = 1;
nodes = (
"401 31 OFFCURVE",
"318 24 OFFCURVE",
"248 24 CURVE SMOOTH",
"111 24 LINE",
"113 0 LINE",
"453 -1 LINE",
"451 49 LINE"
);
}
);
width = 588;
}
);
unicode = 004C;
},
{
color = 1;
glyphname = M;
lastChange = "2016-08-19 23:16:22 +0000";
layers = (
{
background = {
paths = (
{
closed = 1;
nodes = (
"96 0 LINE",
"192 577 LINE",
"178 574 LINE",
"319 0 LINE",
"344 0 LINE",
"668 580 LINE",
"656 583 LINE",
"560 0 LINE",
"625 0 LINE",
"728 629 LINE",
"698 629 LINE",
"680 629 OFFCURVE",
"671 629 OFFCURVE",
"660 630 CURVE",
"356 78 LINE",
"370 79 LINE",
"238 630 LINE",
"226 629 OFFCURVE",
"200 629 OFFCURVE",
"178 629 CURVE",
"169 629 LINE",
"61 0 LINE"
);
},
{
closed = 1;
nodes = (
"194 604 LINE",
"193 629 LINE",
"87 631 LINE",
"85 617 LINE",
"194 586 LINE"
);
},
{
closed = 1;
nodes = (
"795 617 LINE",
"793 631 LINE",
"710 629 LINE",
"694 604 LINE",
"694 586 LINE"
);
},
{
closed = 1;
nodes = (
"587 25 LINE",
"618 0 LINE",
"690 -2 LINE",
"692 12 LINE",
"587 43 LINE"
);
},
{
closed = 1;
nodes = (
"498 12 LINE",
"500 -2 LINE",
"569 0 LINE",
"605 25 LINE",
"605 43 LINE"
);
},
{
closed = 1;
nodes = (
"76 25 LINE",
"77 0 LINE",
"163 -2 LINE",
"165 12 LINE",
"76 43 LINE"
);
},
{
closed = 1;
nodes = (
"-10 12 LINE",
"-8 -2 LINE",
"88 0 LINE",
"94 25 LINE",
"94 43 LINE"
);
}
);
};
layerId = "97AFB7C9-FE9A-4B33-96EF-7CD144DFB325";
name = "Light Italic";
paths = (
{
closed = 1;
nodes = (
"93 0 LINE",
"198 577 LINE",
"184 574 LINE",
"323 0 LINE",
"344 0 LINE",
"661 580 LINE",
"649 583 LINE",
"572 0 LINE",
"635 0 LINE",
"719 629 LINE",
"694 629 LINE",
"657 632 LINE",
"352 78 LINE",
"370 79 LINE",
"239 632 LINE",
"182 629 LINE",
"179 629 LINE",
"52 0 LINE"
);
},
{
closed = 1;
nodes = (
"598 25 LINE",
"629 0 LINE",
"701 -2 LINE",
"703 12 LINE",
"598 43 LINE"
);
},
{
closed = 1;
nodes = (
"509 12 LINE",
"511 -2 LINE",
"580 0 LINE",
"616 25 LINE",
"616 43 LINE"
);
},
{
closed = 1;
nodes = (
"70 25 LINE",
"71 0 LINE",
"157 -2 LINE",
"159 12 LINE",
"70 43 LINE"
);
},
{
closed = 1;
nodes = (
"-16 12 LINE",
"-14 -2 LINE",
"82 0 LINE",
"88 25 LINE",
"88 43 LINE"
);
},
{
closed = 1;
nodes = (
"243 604 LINE",
"239 632 LINE",
"179 629 LINE",
"92 631 LINE",
"90 617 LINE",
"225 576 LINE"
);
},
{
closed = 1;
nodes = (
"793 617 LINE",
"791 631 LINE",
"698 629 LINE",
"658 632 LINE",
"662 604 LINE",
"648 576 LINE"
);
}
);
width = 771;
},
{
associatedMasterId = "97AFB7C9-FE9A-4B33-96EF-7CD144DFB325";
background = {
paths = (
{
closed = 1;
nodes = (
"139 589 OFFCURVE",
"158 574 OFFCURVE",
"146 505 CURVE SMOOTH",
"66 43 LINE",
"-8 28 LINE",
"-8 -2 LINE",
"3 -2 OFFCURVE",
"39 0 OFFCURVE",
"77 0 CURVE SMOOTH",
"109 0 OFFCURVE",
"150 -1 OFFCURVE",
"161 -2 CURVE",
"171 29 LINE",
"110 44 OFFCURVE",
"107 56 OFFCURVE",
"125 161 CURVE SMOOTH",
"194 577 LINE",
"176 574 LINE",
"317 0 LINE",
"348 0 LINE",
"672 580 LINE",
"656 583 LINE",
"567 43 LINE",
"500 28 LINE",
"500 -2 LINE",
"513 -2 OFFCURVE",
"553 0 OFFCURVE",
"592 0 CURVE SMOOTH",
"625 0 OFFCURVE",
"676 -1 OFFCURVE",
"687 -2 CURVE",
"697 29 LINE",
"633 45 OFFCURVE",
"634 60 OFFCURVE",
"651 160 CURVE SMOOTH",
"721 585 LINE",
"793 600 LINE",
"793 630 LINE",
"786 629 OFFCURVE",
"718 628 OFFCURVE",
"698 628 CURVE SMOOTH",
"680 628 OFFCURVE",
"668 628 OFFCURVE",
"656 629 CURVE",
"352 78 LINE",
"372 79 LINE",
"240 629 LINE",
"228 628 OFFCURVE",
"200 628 OFFCURVE",
"178 628 CURVE SMOOTH",
"156 628 OFFCURVE",
"104 629 OFFCURVE",
"89 630 CURVE",
"79 599 LINE"
);
}
);
};
layerId = "C5065D5B-F759-45EF-9514-76712758BCF0";
name = "Light Italic Aug 4 16, 15:37";
paths = (
{
closed = 1;
nodes = (
"139 589 OFFCURVE",
"158 574 OFFCURVE",
"146 505 CURVE SMOOTH",
"66 43 LINE",
"-8 28 LINE",
"-8 -2 LINE",
"3 -2 OFFCURVE",
"39 0 OFFCURVE",
"77 0 CURVE SMOOTH",
"109 0 OFFCURVE",
"150 -1 OFFCURVE",
"161 -2 CURVE",
"171 29 LINE",
"110 44 OFFCURVE",
"107 56 OFFCURVE",
"125 161 CURVE SMOOTH",
"194 577 LINE",
"176 574 LINE",
"317 0 LINE",
"348 0 LINE",
"672 580 LINE",
"656 583 LINE",
"567 43 LINE",
"500 28 LINE",
"500 -2 LINE",
"513 -2 OFFCURVE",
"553 0 OFFCURVE",
"592 0 CURVE SMOOTH",
"625 0 OFFCURVE",
"676 -1 OFFCURVE",
"687 -2 CURVE",
"697 29 LINE",
"633 45 OFFCURVE",
"634 60 OFFCURVE",
"651 160 CURVE SMOOTH",
"721 585 LINE",
"793 600 LINE",
"793 630 LINE",
"786 629 OFFCURVE",
"718 628 OFFCURVE",
"698 628 CURVE SMOOTH",
"680 628 OFFCURVE",
"668 628 OFFCURVE",
"656 629 CURVE",
"352 78 LINE",
"372 79 LINE",
"240 629 LINE",
"228 628 OFFCURVE",
"200 628 OFFCURVE",
"178 628 CURVE SMOOTH",
"156 628 OFFCURVE",
"104 629 OFFCURVE",
"89 630 CURVE",
"79 599 LINE"
);
}
);
width = 771;
},
{
associatedMasterId = "97AFB7C9-FE9A-4B33-96EF-7CD144DFB325";
background = {
paths = (
{
closed = 1;
nodes = (
"139 589 OFFCURVE",
"158 574 OFFCURVE",
"146 505 CURVE SMOOTH",
"66 43 LINE",
"-8 28 LINE",
"-8 -2 LINE",
"3 -2 OFFCURVE",
"39 0 OFFCURVE",
"77 0 CURVE SMOOTH",
"109 0 OFFCURVE",
"150 -1 OFFCURVE",
"161 -2 CURVE",
"171 29 LINE",
"110 44 OFFCURVE",
"107 56 OFFCURVE",
"125 161 CURVE SMOOTH",
"194 577 LINE",
"176 574 LINE",
"317 0 LINE",
"348 0 LINE",
"672 580 LINE",
"656 583 LINE",
"567 43 LINE",
"500 28 LINE",
"500 -2 LINE",
"513 -2 OFFCURVE",
"553 0 OFFCURVE",
"592 0 CURVE SMOOTH",
"625 0 OFFCURVE",
"676 -1 OFFCURVE",
"687 -2 CURVE",
"697 29 LINE",
"633 45 OFFCURVE",
"634 60 OFFCURVE",
"651 160 CURVE SMOOTH",
"721 585 LINE",
"793 600 LINE",
"793 630 LINE",
"786 629 OFFCURVE",
"718 628 OFFCURVE",
"698 628 CURVE SMOOTH",
"680 628 OFFCURVE",
"668 628 OFFCURVE",
"656 629 CURVE",
"352 78 LINE",
"372 79 LINE",
"240 629 LINE",
"228 628 OFFCURVE",
"200 628 OFFCURVE",
"178 628 CURVE SMOOTH",
"156 628 OFFCURVE",
"104 629 OFFCURVE",
"89 630 CURVE",
"79 599 LINE"
);
}
);
};
layerId = "8170B5ED-ED08-4A49-A54F-72F1847C9241";
name = "Light Italic Aug 4 16, 15:41";
paths = (
{
closed = 1;
nodes = (
"98 0 LINE",
"194 577 LINE",
"176 574 LINE",
"317 0 LINE",
"348 0 LINE",
"672 580 LINE",
"656 583 LINE",
"560 0 LINE",
"625 0 LINE",
"728 629 LINE",
"698 629 LINE",
"680 629 OFFCURVE",
"668 629 OFFCURVE",
"656 630 CURVE",
"352 78 LINE",
"372 79 LINE",
"240 630 LINE",
"228 629 OFFCURVE",
"200 629 OFFCURVE",
"178 629 CURVE",
"167 629 LINE",
"59 0 LINE"
);
},
{
closed = 1;
nodes = (
"194 604 LINE",
"193 629 LINE",
"87 631 LINE",
"85 617 LINE",
"194 586 LINE"
);
},
{
closed = 1;
nodes = (
"795 617 LINE",
"793 631 LINE",
"710 629 LINE",
"694 604 LINE",
"694 586 LINE"
);
},
{
closed = 1;
nodes = (
"587 25 LINE",
"618 0 LINE",
"690 -2 LINE",
"692 12 LINE",
"587 43 LINE"
);
},
{
closed = 1;
nodes = (
"498 12 LINE",
"500 -2 LINE",
"569 0 LINE",
"605 25 LINE",
"605 43 LINE"
);
},
{
closed = 1;
nodes = (
"76 25 LINE",
"77 0 LINE",
"163 -2 LINE",
"165 12 LINE",
"76 43 LINE"
);
},
{
closed = 1;
nodes = (
"-10 12 LINE",
"-8 -2 LINE",
"88 0 LINE",
"94 25 LINE",
"94 43 LINE"
);
}
);
width = 771;
},
{
layerId = "EADDC163-A127-4E50-A035-005E723BF706";
name = "SemiBold Italic";
width = 600;
}
);
unicode = 004D;
},
{
glyphname = N;
lastChange = "2016-08-19 23:23:55 +0000";
layers = (
{
background = {
paths = (
{
closed = 1;
nodes = (
"96 0 LINE",
"192 578 LINE",
"164 572 LINE",
"531 -11 LINE",
"550 0 LINE",
"658 629 LINE",
"624 629 LINE",
"534 85 LINE",
"562 91 LINE",
"217 632 LINE",
"178 629 LINE",
"170 629 LINE",
"61 0 LINE"
);
},
{
closed = 1;
nodes = (
"644 604 LINE",
"643 629 LINE",
"536 631 LINE",
"534 617 LINE",
"644 586 LINE"
);
},
{
closed = 1;
nodes = (
"728 617 LINE",
"726 631 LINE",
"651 629 LINE",
"626 604 LINE",
"626 586 LINE"
);
},
{
closed = 1;
nodes = (
"76 25 LINE",
"87 0 LINE",
"181 -2 LINE",
"183 12 LINE",
"76 43 LINE"
);
},
{
closed = 1;
nodes = (
"-8 12 LINE",
"-6 -2 LINE",
"68 0 LINE",
"94 25 LINE",
"94 43 LINE"
);
},
{
closed = 1;
nodes = (
"222 604 LINE",
"217 632 LINE",
"175 629 LINE",
"88 631 LINE",
"86 617 LINE",
"221 576 LINE"
);
}
);
};
layerId = "97AFB7C9-FE9A-4B33-96EF-7CD144DFB325";
name = "Light Italic";
paths = (
{
closed = 1;
nodes = (
"173 629 LINE",
"57 0 LINE",
"100 0 LINE",
"198 629 LINE"
);
},
{
closed = 1;
nodes = (
"637 604 LINE",
"636 629 LINE",
"529 631 LINE",
"527 617 LINE",
"637 586 LINE"
);
},
{
closed = 1;
nodes = (
"721 617 LINE",
"719 631 LINE",
"644 629 LINE",
"619 604 LINE",
"619 586 LINE"
);
},
{
closed = 1;
nodes = (
"76 25 LINE",
"87 0 LINE",
"181 -2 LINE",
"183 12 LINE",
"76 43 LINE"
);
},
{
closed = 1;
nodes = (
"-8 12 LINE",
"-6 -2 LINE",
"68 0 LINE",
"94 25 LINE",
"94 43 LINE"
);
},
{
closed = 1;
nodes = (
"540 0 LINE",
"655 629 LINE",
"613 629 LINE",
"515 0 LINE"
);
},
{
closed = 1;
nodes = (
"142 622 LINE",
"502 -6 LINE",
"553 -3 LINE",
"569 9 LINE",
"211 632 LINE",
"160 629 LINE"
);
},
{
closed = 1;
nodes = (
"220 604 LINE",
"211 632 LINE",
"160 629 LINE",
"78 631 LINE",
"76 617 LINE",
"206 576 LINE"
);
},
{
closed = 1;
nodes = (
"497 22 LINE",
"502 -6 LINE",
"553 -3 LINE",
"611 8 LINE",
"613 22 LINE",
"507 49 LINE"
);
}
);
width = 705;
},
{
associatedMasterId = "97AFB7C9-FE9A-4B33-96EF-7CD144DFB325";
background = {
paths = (
{
closed = 1;
nodes = (
"155 587 OFFCURVE",
"159 569 OFFCURVE",
"143 482 CURVE SMOOTH",
"66 43 LINE",
"-7 28 LINE",
"-7 -2 LINE",
"3 -1 OFFCURVE",
"46 0 OFFCURVE",
"86 0 CURVE SMOOTH",
"119 0 OFFCURVE",
"169 -1 OFFCURVE",
"181 -2 CURVE",
"191 29 LINE",
"108 45 OFFCURVE",
"109 60 OFFCURVE",
"126 161 CURVE SMOOTH",
"188 534 LINE",
"531 -11 LINE",
"552 0 LINE",
"653 585 LINE",
"727 600 LINE",
"727 630 LINE",
"716 629 OFFCURVE",
"675 628 OFFCURVE",
"638 628 CURVE SMOOTH",
"600 628 OFFCURVE",
"550 629 OFFCURVE",
"538 630 CURVE",
"528 599 LINE",
"611 583 OFFCURVE",
"610 568 OFFCURVE",
"594 467 CURVE SMOOTH",
"538 129 LINE",
"218 629 LINE",
"211 628 OFFCURVE",
"197 628 OFFCURVE",
"178 628 CURVE SMOOTH",
"154 628 OFFCURVE",
"103 629 OFFCURVE",
"90 630 CURVE",
"80 599 LINE"
);
}
);
};
layerId = "E0C7BC63-2EB9-4925-8E24-56DD28BA62C5";
name = "Light Italic Aug 4 16, 15:42";
paths = (
{
closed = 1;
nodes = (
"155 587 OFFCURVE",
"159 569 OFFCURVE",
"143 482 CURVE SMOOTH",
"66 43 LINE",
"-7 28 LINE",
"-7 -2 LINE",
"3 -1 OFFCURVE",
"46 0 OFFCURVE",
"86 0 CURVE SMOOTH",
"119 0 OFFCURVE",
"169 -1 OFFCURVE",
"181 -2 CURVE",
"191 29 LINE",
"108 45 OFFCURVE",
"109 60 OFFCURVE",
"126 161 CURVE SMOOTH",
"188 534 LINE",
"531 -11 LINE",
"552 0 LINE",
"653 585 LINE",
"727 600 LINE",
"727 630 LINE",
"716 629 OFFCURVE",
"675 628 OFFCURVE",
"638 628 CURVE SMOOTH",
"600 628 OFFCURVE",
"550 629 OFFCURVE",
"538 630 CURVE",
"528 599 LINE",
"611 583 OFFCURVE",
"610 568 OFFCURVE",
"594 467 CURVE SMOOTH",
"538 129 LINE",
"218 629 LINE",
"211 628 OFFCURVE",
"197 628 OFFCURVE",
"178 628 CURVE SMOOTH",
"154 628 OFFCURVE",
"103 629 OFFCURVE",
"90 630 CURVE",
"80 599 LINE"
);
}
);
width = 705;
},
{
layerId = "EADDC163-A127-4E50-A035-005E723BF706";
name = "SemiBold Italic";
width = 600;
},
{
associatedMasterId = "97AFB7C9-FE9A-4B33-96EF-7CD144DFB325";
background = {
paths = (
{
closed = 1;
nodes = (
"155 587 OFFCURVE",
"159 569 OFFCURVE",
"143 482 CURVE SMOOTH",
"66 43 LINE",
"-7 28 LINE",
"-7 -2 LINE",
"3 -1 OFFCURVE",
"46 0 OFFCURVE",
"86 0 CURVE SMOOTH",
"119 0 OFFCURVE",
"169 -1 OFFCURVE",
"181 -2 CURVE",
"191 29 LINE",
"108 45 OFFCURVE",
"109 60 OFFCURVE",
"126 161 CURVE SMOOTH",
"188 534 LINE",
"531 -11 LINE",
"552 0 LINE",
"653 585 LINE",
"727 600 LINE",
"727 630 LINE",
"716 629 OFFCURVE",
"675 628 OFFCURVE",
"638 628 CURVE SMOOTH",
"600 628 OFFCURVE",
"550 629 OFFCURVE",
"538 630 CURVE",
"528 599 LINE",
"611 583 OFFCURVE",
"610 568 OFFCURVE",
"594 467 CURVE SMOOTH",
"538 129 LINE",
"218 629 LINE",
"211 628 OFFCURVE",
"197 628 OFFCURVE",
"178 628 CURVE SMOOTH",
"154 628 OFFCURVE",
"103 629 OFFCURVE",
"90 630 CURVE",
"80 599 LINE"
);
}
);
};
layerId = "B064B756-C747-487E-B1C0-6728D00C59B1";
name = "Light Italic Aug 20 16, 01:16";
paths = (
{
closed = 1;
nodes = (
"96 0 LINE",
"192 578 LINE",
"164 572 LINE",
"531 -11 LINE",
"550 0 LINE",
"658 629 LINE",
"624 629 LINE",
"534 85 LINE",
"562 91 LINE",
"218 630 LINE",
"211 629 OFFCURVE",
"197 629 OFFCURVE",
"178 629 CURVE",
"170 629 LINE",
"61 0 LINE"
);
},
{
closed = 1;
nodes = (
"203 604 LINE",
"182 629 LINE",
"88 631 LINE",
"86 617 LINE",
"203 586 LINE"
);
},
{
closed = 1;
nodes = (
"644 604 LINE",
"643 629 LINE",
"536 631 LINE",
"534 617 LINE",
"644 586 LINE"
);
},
{
closed = 1;
nodes = (
"728 617 LINE",
"726 631 LINE",
"651 629 LINE",
"626 604 LINE",
"626 586 LINE"
);
},
{
closed = 1;
nodes = (
"76 25 LINE",
"87 0 LINE",
"181 -2 LINE",
"183 12 LINE",
"76 43 LINE"
);
},
{
closed = 1;
nodes = (
"-8 12 LINE",
"-6 -2 LINE",
"68 0 LINE",
"94 25 LINE",
"94 43 LINE"
);
}
);
width = 705;
},
{
associatedMasterId = "97AFB7C9-FE9A-4B33-96EF-7CD144DFB325";
background = {
paths = (
{
closed = 1;
nodes = (
"96 0 LINE",
"192 578 LINE",
"164 572 LINE",
"531 -11 LINE",
"550 0 LINE",
"658 629 LINE",
"624 629 LINE",
"534 85 LINE",
"562 91 LINE",
"218 630 LINE",
"211 629 OFFCURVE",
"197 629 OFFCURVE",
"178 629 CURVE",
"170 629 LINE",
"61 0 LINE"
);
},
{
closed = 1;
nodes = (
"203 604 LINE",
"182 629 LINE",
"88 631 LINE",
"86 617 LINE",
"203 586 LINE"
);
},
{
closed = 1;
nodes = (
"644 604 LINE",
"643 629 LINE",
"536 631 LINE",
"534 617 LINE",
"644 586 LINE"
);
},
{
closed = 1;
nodes = (
"728 617 LINE",
"726 631 LINE",
"651 629 LINE",
"626 604 LINE",
"626 586 LINE"
);
},
{
closed = 1;
nodes = (
"76 25 LINE",
"87 0 LINE",
"181 -2 LINE",
"183 12 LINE",
"76 43 LINE"
);
},
{
closed = 1;
nodes = (
"-8 12 LINE",
"-6 -2 LINE",
"68 0 LINE",
"94 25 LINE",
"94 43 LINE"
);
}
);
};
layerId = "F95F9D8C-5427-4DD3-8FDD-B641693C5CDF";
name = "Light Italic Aug 20 16, 01:18";
paths = (
{
closed = 1;
nodes = (
"96 0 LINE",
"192 578 LINE",
"164 572 LINE",
"531 -11 LINE",
"550 0 LINE",
"658 629 LINE",
"624 629 LINE",
"534 85 LINE",
"562 91 LINE",
"217 632 LINE",
"178 629 LINE",
"170 629 LINE",
"61 0 LINE"
);
},
{
closed = 1;
nodes = (
"644 604 LINE",
"643 629 LINE",
"536 631 LINE",
"534 617 LINE",
"644 586 LINE"
);
},
{
closed = 1;
nodes = (
"728 617 LINE",
"726 631 LINE",
"651 629 LINE",
"626 604 LINE",
"626 586 LINE"
);
},
{
closed = 1;
nodes = (
"76 25 LINE",
"87 0 LINE",
"181 -2 LINE",
"183 12 LINE",
"76 43 LINE"
);
},
{
closed = 1;
nodes = (
"-8 12 LINE",
"-6 -2 LINE",
"68 0 LINE",
"94 25 LINE",
"94 43 LINE"
);
},
{
closed = 1;
nodes = (
"222 604 LINE",
"217 632 LINE",
"175 629 LINE",
"88 631 LINE",
"86 617 LINE",
"221 576 LINE"
);
}
);
width = 705;
},
{
associatedMasterId = "97AFB7C9-FE9A-4B33-96EF-7CD144DFB325";
background = {
paths = (
{
closed = 1;
nodes = (
"96 0 LINE",
"192 578 LINE",
"164 572 LINE",
"531 -11 LINE",
"550 0 LINE",
"658 629 LINE",
"624 629 LINE",
"534 85 LINE",
"562 91 LINE",
"217 632 LINE",
"178 629 LINE",
"170 629 LINE",
"61 0 LINE"
);
},
{
closed = 1;
nodes = (
"644 604 LINE",
"643 629 LINE",
"536 631 LINE",
"534 617 LINE",
"644 586 LINE"
);
},
{
closed = 1;
nodes = (
"728 617 LINE",
"726 631 LINE",
"651 629 LINE",
"626 604 LINE",
"626 586 LINE"
);
},
{
closed = 1;
nodes = (
"76 25 LINE",
"87 0 LINE",
"181 -2 LINE",
"183 12 LINE",
"76 43 LINE"
);
},
{
closed = 1;
nodes = (
"-8 12 LINE",
"-6 -2 LINE",
"68 0 LINE",
"94 25 LINE",
"94 43 LINE"
);
},
{
closed = 1;
nodes = (
"222 604 LINE",
"217 632 LINE",
"175 629 LINE",
"88 631 LINE",
"86 617 LINE",
"221 576 LINE"
);
}
);
};
layerId = "5C306F82-9AA7-49A9-B13F-591593FA320A";
name = "Light Italic Aug 20 16, 01:19";
paths = (
{
closed = 1;
nodes = (
"170 629 LINE",
"61 0 LINE",
"96 0 LINE",
"201 629 LINE"
);
},
{
closed = 1;
nodes = (
"644 604 LINE",
"643 629 LINE",
"536 631 LINE",
"534 617 LINE",
"644 586 LINE"
);
},
{
closed = 1;
nodes = (
"728 617 LINE",
"726 631 LINE",
"651 629 LINE",
"626 604 LINE",
"626 586 LINE"
);
},
{
closed = 1;
nodes = (
"76 25 LINE",
"87 0 LINE",
"181 -2 LINE",
"183 12 LINE",
"76 43 LINE"
);
},
{
closed = 1;
nodes = (
"-8 12 LINE",
"-6 -2 LINE",
"68 0 LINE",
"94 25 LINE",
"94 43 LINE"
);
},
{
closed = 1;
nodes = (
"550 0 LINE",
"658 629 LINE",
"624 629 LINE",
"519 0 LINE"
);
},
{
closed = 1;
nodes = (
"161 622 LINE",
"523 -6 LINE",
"570 -3 LINE",
"582 9 LINE",
"222 632 LINE",
"175 629 LINE"
);
},
{
closed = 1;
nodes = (
"231 604 LINE",
"222 632 LINE",
"175 629 LINE",
"87 631 LINE",
"85 617 LINE",
"221 576 LINE"
);
},
{
closed = 1;
nodes = (
"514 22 LINE",
"523 -6 LINE",
"570 -3 LINE",
"628 -5 LINE",
"630 9 LINE",
"524 50 LINE"
);
}
);
width = 705;
}
);
unicode = 004E;
},
{
glyphname = O;
lastChange = "2016-08-19 23:44:46 +0000";
layers = (
{
anchors = (
{
name = bottom;
position = "{283, 0}";
},
{
name = center;
position = "{335, 315}";
},
{
name = ogonek;
position = "{539, 10}";
},
{
name = top;
position = "{387, 629}";
},
{
name = topleft;
position = "{87, 629}";
},
{
name = topright;
position = "{687, 629}";
}
);
background = {
paths = (
{
closed = 1;
nodes = (
"439 -7 OFFCURVE",
"578 112 OFFCURVE",
"613 316 CURVE SMOOTH",
"646 512 OFFCURVE",
"519 641 OFFCURVE",
"377 641 CURVE SMOOTH",
"235 641 OFFCURVE",
"88 521 OFFCURVE",
"58 336 CURVE SMOOTH",
"23 121 OFFCURVE",
"149 -7 OFFCURVE",
"290 -7 CURVE SMOOTH"
);
},
{
closed = 1;
nodes = (
"166 18 OFFCURVE",
"105 161 OFFCURVE",
"136 346 CURVE SMOOTH",
"169 543 OFFCURVE",
"261 616 OFFCURVE",
"367 616 CURVE SMOOTH",
"502 616 OFFCURVE",
"565 480 OFFCURVE",
"535 306 CURVE SMOOTH",
"499 97 OFFCURVE",
"407 18 OFFCURVE",
"300 18 CURVE SMOOTH"
);
}
);
};
guideLines = (
{
position = "{132, 341}";
}
);
layerId = "97AFB7C9-FE9A-4B33-96EF-7CD144DFB325";
name = "Light Italic";
paths = (
{
closed = 1;
nodes = (
"476 -7 OFFCURVE",
"588 112 OFFCURVE",
"623 316 CURVE SMOOTH",
"656 512 OFFCURVE",
"556 641 OFFCURVE",
"377 641 CURVE SMOOTH",
"199 641 OFFCURVE",
"80 521 OFFCURVE",
"50 336 CURVE SMOOTH",
"15 121 OFFCURVE",
"113 -7 OFFCURVE",
"290 -7 CURVE SMOOTH"
);
},
{
closed = 1;
nodes = (
"160 18 OFFCURVE",
"94 171 OFFCURVE",
"123 346 CURVE SMOOTH",
"154 533 OFFCURVE",
"251 616 OFFCURVE",
"367 616 CURVE SMOOTH",
"509 616 OFFCURVE",
"578 470 OFFCURVE",
"550 306 CURVE SMOOTH",
"516 107 OFFCURVE",
"414 18 OFFCURVE",
"300 18 CURVE SMOOTH"
);
}
);
width = 640;
},
{
associatedMasterId = "97AFB7C9-FE9A-4B33-96EF-7CD144DFB325";
layerId = "F480548E-173F-404D-9E45-C078A3897D78";
name = "Light Italic Aug 3 16, 14:41";
paths = (
{
closed = 1;
nodes = (
"465 -2 OFFCURVE",
"607 127 OFFCURVE",
"639 321 CURVE SMOOTH",
"672 517 OFFCURVE",
"565 646 OFFCURVE",
"401 646 CURVE SMOOTH",
"242 646 OFFCURVE",
"93 516 OFFCURVE",
"61 321 CURVE SMOOTH",
"29 126 OFFCURVE",
"135 -2 OFFCURVE",
"297 -2 CURVE SMOOTH"
);
},
{
closed = 1;
nodes = (
"172 29 OFFCURVE",
"122 185 OFFCURVE",
"149 349 CURVE SMOOTH",
"176 509 OFFCURVE",
"267 613 OFFCURVE",
"383 613 CURVE SMOOTH",
"528 613 OFFCURVE",
"578 458 OFFCURVE",
"550 293 CURVE SMOOTH",
"524 133 OFFCURVE",
"433 29 OFFCURVE",
"316 29 CURVE SMOOTH"
);
}
);
width = 672;
},
{
layerId = "EADDC163-A127-4E50-A035-005E723BF706";
name = "SemiBold Italic";
width = 600;
},
{
associatedMasterId = "97AFB7C9-FE9A-4B33-96EF-7CD144DFB325";
background = {
paths = (
{
closed = 1;
nodes = (
"469 -2 OFFCURVE",
"588 117 OFFCURVE",
"623 321 CURVE SMOOTH",
"656 517 OFFCURVE",
"549 646 OFFCURVE",
"377 646 CURVE SMOOTH",
"205 646 OFFCURVE",
"78 526 OFFCURVE",
"48 341 CURVE SMOOTH",
"13 126 OFFCURVE",
"119 -2 OFFCURVE",
"290 -2 CURVE SMOOTH"
);
},
{
closed = 1;
nodes = (
"156 23 OFFCURVE",
"102 185 OFFCURVE",
"130 351 CURVE SMOOTH",
"160 529 OFFCURVE",
"251 621 OFFCURVE",
"367 621 CURVE SMOOTH",
"512 621 OFFCURVE",
"567 466 OFFCURVE",
"540 311 CURVE SMOOTH",
"507 121 OFFCURVE",
"417 23 OFFCURVE",
"300 23 CURVE SMOOTH"
);
}
);
};
guideLines = (
{
position = "{132, 341}";
}
);
layerId = "EC36B22C-DD2C-4A9E-A3D5-1A7432780145";
name = "Light Italic Aug 19 16, 23:26";
paths = (
{
closed = 1;
nodes = (
"439 -7 OFFCURVE",
"578 112 OFFCURVE",
"613 316 CURVE SMOOTH",
"646 512 OFFCURVE",
"519 641 OFFCURVE",
"377 641 CURVE SMOOTH",
"235 641 OFFCURVE",
"88 521 OFFCURVE",
"58 336 CURVE SMOOTH",
"23 121 OFFCURVE",
"149 -7 OFFCURVE",
"290 -7 CURVE SMOOTH"
);
},
{
closed = 1;
nodes = (
"166 18 OFFCURVE",
"105 161 OFFCURVE",
"136 346 CURVE SMOOTH",
"169 543 OFFCURVE",
"261 616 OFFCURVE",
"367 616 CURVE SMOOTH",
"502 616 OFFCURVE",
"565 480 OFFCURVE",
"535 306 CURVE SMOOTH",
"499 97 OFFCURVE",
"407 18 OFFCURVE",
"300 18 CURVE SMOOTH"
);
}
);
width = 638;
}
);
unicode = 004F;
},
{
glyphname = P;
lastChange = "2016-08-19 23:03:35 +0000";
layers = (
{
background = {
paths = (
{
closed = 1;
nodes = (
"132 0 LINE",
"233 623 LINE",
"214 611 LINE",
"242 617 OFFCURVE",
"262 617 OFFCURVE",
"298 617 CURVE SMOOTH",
"411 617 OFFCURVE",
"453 550 OFFCURVE",
"440 460 CURVE SMOOTH",
"425 355 OFFCURVE",
"340 316 OFFCURVE",
"249 316 CURVE SMOOTH",
"222 316 OFFCURVE",
"194 319 OFFCURVE",
"181 324 CURVE",
"162 323 LINE",
"156 304 LINE",
"175 299 OFFCURVE",
"235 291 OFFCURVE",
"269 291 CURVE SMOOTH",
"406 291 OFFCURVE",
"494 381 OFFCURVE",
"506 470 CURVE SMOOTH",
"519 565 OFFCURVE",
"454 637 OFFCURVE",
"310 637 CURVE SMOOTH",
"207 637 OFFCURVE",
"134 637 OFFCURVE",
"98 640 CURVE",
"171 615 LINE",
"70 0 LINE"
);
},
{
closed = 1;
nodes = (
"98 25 LINE",
"109 0 LINE",
"210 -2 LINE",
"212 12 LINE",
"98 43 LINE"
);
},
{
closed = 1;
nodes = (
"-2 12 LINE",
"0 -2 LINE",
"90 0 LINE",
"116 25 LINE",
"116 43 LINE"
);
},
{
closed = 1;
nodes = (
"201 611 LINE",
"170 634 LINE",
"98 640 LINE",
"96 626 LINE",
"201 588 LINE"
);
}
);
};
layerId = "97AFB7C9-FE9A-4B33-96EF-7CD144DFB325";
name = "Light Italic";
paths = (
{
closed = 1;
nodes = (
"132 0 LINE",
"233 623 LINE",
"214 611 LINE",
"242 617 OFFCURVE",
"262 617 OFFCURVE",
"298 617 CURVE SMOOTH",
"411 617 OFFCURVE",
"456 550 OFFCURVE",
"438 440 CURVE SMOOTH",
"418 315 OFFCURVE",
"340 276 OFFCURVE",
"249 276 CURVE SMOOTH",
"222 276 OFFCURVE",
"194 279 OFFCURVE",
"181 284 CURVE",
"162 283 LINE",
"156 264 LINE",
"175 259 OFFCURVE",
"235 251 OFFCURVE",
"269 251 CURVE SMOOTH",
"406 251 OFFCURVE",
"487 341 OFFCURVE",
"504 450 CURVE SMOOTH",
"522 565 OFFCURVE",
"454 637 OFFCURVE",
"310 637 CURVE SMOOTH",
"207 637 OFFCURVE",
"134 637 OFFCURVE",
"98 640 CURVE",
"171 615 LINE",
"70 0 LINE"
);
},
{
closed = 1;
nodes = (
"98 25 LINE",
"109 0 LINE",
"210 -2 LINE",
"212 12 LINE",
"98 43 LINE"
);
},
{
closed = 1;
nodes = (
"-2 12 LINE",
"0 -2 LINE",
"90 0 LINE",
"116 25 LINE",
"116 43 LINE"
);
},
{
closed = 1;
nodes = (
"201 611 LINE",
"170 634 LINE",
"98 640 LINE",
"96 626 LINE",
"201 588 LINE"
);
}
);
width = 497;
},
{
associatedMasterId = "97AFB7C9-FE9A-4B33-96EF-7CD144DFB325";
layerId = "B7BE8419-F04A-40B8-A38D-B385120826C9";
name = "Light Italic Aug 3 16, 14:35";
paths = (
{
closed = 1;
nodes = (
"182 568 LINE",
"225 595 LINE",
"270 595 LINE SMOOTH",
"397 595 OFFCURVE",
"447 540 OFFCURVE",
"433 423 CURVE SMOOTH",
"421 324 OFFCURVE",
"345 269 OFFCURVE",
"234 269 CURVE",
"234 257 LINE",
"362 227 OFFCURVE",
"482 291 OFFCURVE",
"501 432 CURVE SMOOTH",
"518 556 OFFCURVE",
"438 615 OFFCURVE",
"297 615 CURVE SMOOTH",
"196 615 OFFCURVE",
"113 610 OFFCURVE",
"84 610 CURVE"
);
},
{
closed = 1;
nodes = (
"69 0 LINE",
"127 0 LINE",
"227 608 LINE",
"168 608 LINE"
);
},
{
closed = 1;
nodes = (
"199 583 LINE",
"168 608 LINE",
"84 610 LINE",
"82 596 LINE",
"199 565 LINE"
);
},
{
closed = 1;
nodes = (
"95 25 LINE",
"126 0 LINE",
"228 -2 LINE",
"230 12 LINE",
"95 43 LINE"
);
},
{
closed = 1;
nodes = (
"-4 12 LINE",
"-2 -2 LINE",
"67 0 LINE",
"113 25 LINE",
"113 43 LINE"
);
}
);
width = 482;
},
{
associatedMasterId = "97AFB7C9-FE9A-4B33-96EF-7CD144DFB325";
layerId = "9DC38AA9-9043-4FC3-9316-EAFB6EB9D76F";
name = "Light Italic Aug 3 16, 14:36";
paths = (
{
closed = 1;
nodes = (
"182 568 LINE",
"225 595 LINE",
"270 595 LINE SMOOTH",
"397 595 OFFCURVE",
"447 540 OFFCURVE",
"433 423 CURVE SMOOTH",
"421 324 OFFCURVE",
"345 269 OFFCURVE",
"234 269 CURVE",
"234 257 LINE",
"362 227 OFFCURVE",
"482 291 OFFCURVE",
"501 432 CURVE SMOOTH",
"518 556 OFFCURVE",
"438 615 OFFCURVE",
"297 615 CURVE SMOOTH",
"196 615 OFFCURVE",
"113 610 OFFCURVE",
"84 610 CURVE"
);
},
{
closed = 1;
nodes = (
"69 0 LINE",
"127 0 LINE",
"227 608 LINE",
"168 608 LINE"
);
},
{
closed = 1;
nodes = (
"199 583 LINE",
"168 608 LINE",
"84 610 LINE",
"82 596 LINE",
"199 565 LINE"
);
},
{
closed = 1;
nodes = (
"95 25 LINE",
"126 0 LINE",
"228 -2 LINE",
"230 12 LINE",
"95 43 LINE"
);
},
{
closed = 1;
nodes = (
"-4 12 LINE",
"-2 -2 LINE",
"67 0 LINE",
"113 25 LINE",
"113 43 LINE"
);
}
);
width = 482;
},
{
associatedMasterId = "97AFB7C9-FE9A-4B33-96EF-7CD144DFB325";
background = {
paths = (
{
closed = 1;
nodes = (
"13 -1 OFFCURVE",
"56 0 OFFCURVE",
"111 0 CURVE SMOOTH",
"162 0 OFFCURVE",
"215 -1 OFFCURVE",
"223 -2 CURVE",
"233 29 LINE",
"143 45 OFFCURVE",
"144 60 OFFCURVE",
"161 161 CURVE SMOOTH",
"174 239 LINE",
"195 235 OFFCURVE",
"225 233 OFFCURVE",
"252 233 CURVE SMOOTH",
"384 233 OFFCURVE",
"507 321 OFFCURVE",
"527 440 CURVE SMOOTH",
"547 563 OFFCURVE",
"467 630 OFFCURVE",
"314 630 CURVE SMOOTH",
"219 630 OFFCURVE",
"143 628 OFFCURVE",
"98 630 CURVE",
"88 599 LINE",
"164 583 OFFCURVE",
"163 568 OFFCURVE",
"146 467 CURVE SMOOTH",
"76 43 LINE",
"4 28 LINE",
"5 -2 LINE"
);
},
{
closed = 1;
nodes = (
"211 266 OFFCURVE",
"194 269 OFFCURVE",
"180 276 CURVE",
"235 608 LINE",
"217 584 LINE",
"246 596 OFFCURVE",
"267 599 OFFCURVE",
"304 599 CURVE SMOOTH",
"411 599 OFFCURVE",
"465 536 OFFCURVE",
"448 437 CURVE SMOOTH",
"430 328 OFFCURVE",
"362 266 OFFCURVE",
"246 266 CURVE SMOOTH"
);
}
);
};
layerId = "7F196E20-D417-45C1-9F3B-78EBC9D96EE5";
name = "Light Italic Aug 3 16, 15:54";
paths = (
{
closed = 1;
nodes = (
"13 -1 OFFCURVE",
"56 0 OFFCURVE",
"111 0 CURVE SMOOTH",
"162 0 OFFCURVE",
"215 -1 OFFCURVE",
"223 -2 CURVE",
"233 29 LINE",
"143 45 OFFCURVE",
"144 60 OFFCURVE",
"161 161 CURVE SMOOTH",
"174 239 LINE",
"195 235 OFFCURVE",
"225 233 OFFCURVE",
"252 233 CURVE SMOOTH",
"384 233 OFFCURVE",
"507 321 OFFCURVE",
"527 440 CURVE SMOOTH",
"547 563 OFFCURVE",
"467 630 OFFCURVE",
"314 630 CURVE SMOOTH",
"219 630 OFFCURVE",
"143 628 OFFCURVE",
"98 630 CURVE",
"88 599 LINE",
"164 583 OFFCURVE",
"163 568 OFFCURVE",
"146 467 CURVE SMOOTH",
"76 43 LINE",
"4 28 LINE",
"5 -2 LINE"
);
},
{
closed = 1;
nodes = (
"211 266 OFFCURVE",
"194 269 OFFCURVE",
"180 276 CURVE",
"235 608 LINE",
"217 584 LINE",
"246 596 OFFCURVE",
"267 599 OFFCURVE",
"304 599 CURVE SMOOTH",
"411 599 OFFCURVE",
"465 536 OFFCURVE",
"448 437 CURVE SMOOTH",
"430 328 OFFCURVE",
"362 266 OFFCURVE",
"246 266 CURVE SMOOTH"
);
}
);
width = 482;
},
{
layerId = "EADDC163-A127-4E50-A035-005E723BF706";
name = "SemiBold Italic";
width = 600;
},
{
associatedMasterId = "97AFB7C9-FE9A-4B33-96EF-7CD144DFB325";
background = {
paths = (
{
closed = 1;
nodes = (
"154 216 LINE",
"170 216 LINE",
"173 241 LINE",
"195 238 OFFCURVE",
"225 236 OFFCURVE",
"252 236 CURVE SMOOTH",
"384 236 OFFCURVE",
"506 307 OFFCURVE",
"527 430 CURVE SMOOTH",
"550 565 OFFCURVE",
"447 630 OFFCURVE",
"304 630 CURVE SMOOTH",
"209 630 OFFCURVE",
"143 628 OFFCURVE",
"93 631 CURVE",
"217 599 LINE",
"246 604 OFFCURVE",
"267 605 OFFCURVE",
"304 605 CURVE SMOOTH",
"411 605 OFFCURVE",
"467 546 OFFCURVE",
"446 427 CURVE SMOOTH",
"428 318 OFFCURVE",
"372 263 OFFCURVE",
"246 263 CURVE SMOOTH",
"211 263 OFFCURVE",
"194 266 OFFCURVE",
"170 269 CURVE",
"184 300 LINE",
"154 300 LINE"
);
},
{
closed = 1;
nodes = (
"72 0 LINE",
"135 0 LINE",
"238 629 LINE",
"175 629 LINE"
);
},
{
closed = 1;
nodes = (
"208 604 LINE",
"177 629 LINE",
"93 631 LINE",
"91 617 LINE",
"208 586 LINE"
);
},
{
closed = 1;
nodes = (
"105 25 LINE",
"136 0 LINE",
"230 -2 LINE",
"232 12 LINE",
"105 43 LINE"
);
},
{
closed = 1;
nodes = (
"6 12 LINE",
"8 -2 LINE",
"77 0 LINE",
"123 25 LINE",
"123 43 LINE"
);
}
);
};
layerId = "7B42281C-1F4F-4ED0-AB26-9B32B529C2AF";
name = "Light Italic Aug 20 16, 01:01";
paths = (
{
closed = 1;
nodes = (
"154 216 LINE",
"170 216 LINE",
"173 241 LINE",
"195 238 OFFCURVE",
"225 236 OFFCURVE",
"252 236 CURVE SMOOTH",
"384 236 OFFCURVE",
"506 307 OFFCURVE",
"527 430 CURVE SMOOTH",
"550 565 OFFCURVE",
"447 630 OFFCURVE",
"304 630 CURVE SMOOTH",
"209 630 OFFCURVE",
"143 628 OFFCURVE",
"93 631 CURVE",
"217 599 LINE",
"246 604 OFFCURVE",
"267 605 OFFCURVE",
"304 605 CURVE SMOOTH",
"411 605 OFFCURVE",
"467 546 OFFCURVE",
"446 427 CURVE SMOOTH",
"428 318 OFFCURVE",
"372 263 OFFCURVE",
"246 263 CURVE SMOOTH",
"211 263 OFFCURVE",
"194 266 OFFCURVE",
"170 269 CURVE",
"184 300 LINE",
"154 300 LINE"
);
},
{
closed = 1;
nodes = (
"72 0 LINE",
"135 0 LINE",
"238 629 LINE",
"175 629 LINE"
);
},
{
closed = 1;
nodes = (
"208 604 LINE",
"177 629 LINE",
"93 631 LINE",
"91 617 LINE",
"208 586 LINE"
);
},
{
closed = 1;
nodes = (
"105 25 LINE",
"136 0 LINE",
"230 -2 LINE",
"232 12 LINE",
"105 43 LINE"
);
},
{
closed = 1;
nodes = (
"6 12 LINE",
"8 -2 LINE",
"77 0 LINE",
"123 25 LINE",
"123 43 LINE"
);
}
);
width = 523;
}
);
unicode = 0050;
},
{
glyphname = Q;
lastChange = "2016-08-19 22:03:32 +0000";
layers = (
{
background = {
paths = (
{
closed = 1;
nodes = (
"665 -67 LINE",
"650 -60 LINE",
"561 -134 LINE",
"598 -137 LINE",
"443 -89 OFFCURVE",
"238 -89 OFFCURVE",
"93 -97 CURVE",
"12 -167 LINE",
"12 -180 LINE",
"170 -122 LINE",
"126 -106 LINE",
"75 -133 LINE",
"188 -122 OFFCURVE",
"425 -140 OFFCURVE",
"568 -194 CURVE"
);
},
{
closed = 1;
nodes = (
"361 -116 OFFCURVE",
"577 44 OFFCURVE",
"623 316 CURVE",
"550 306 LINE",
"497 0 OFFCURVE",
"296 -103 OFFCURVE",
"12 -167 CURVE",
"12 -180 LINE"
);
},
{
closed = 1;
nodes = (
"476 -7 OFFCURVE",
"588 112 OFFCURVE",
"623 316 CURVE SMOOTH",
"656 512 OFFCURVE",
"556 641 OFFCURVE",
"377 641 CURVE SMOOTH",
"199 641 OFFCURVE",
"80 521 OFFCURVE",
"50 336 CURVE SMOOTH",
"15 121 OFFCURVE",
"113 -7 OFFCURVE",
"290 -7 CURVE SMOOTH"
);
},
{
closed = 1;
nodes = (
"160 18 OFFCURVE",
"94 171 OFFCURVE",
"123 346 CURVE SMOOTH",
"154 533 OFFCURVE",
"251 616 OFFCURVE",
"367 616 CURVE SMOOTH",
"509 616 OFFCURVE",
"578 470 OFFCURVE",
"550 306 CURVE SMOOTH",
"516 107 OFFCURVE",
"414 18 OFFCURVE",
"300 18 CURVE SMOOTH"
);
}
);
};
layerId = "97AFB7C9-FE9A-4B33-96EF-7CD144DFB325";
name = "Light Italic";
paths = (
{
closed = 1;
nodes = (
"665 -67 LINE",
"650 -60 LINE",
"561 -134 LINE",
"598 -137 LINE",
"443 -89 OFFCURVE",
"238 -89 OFFCURVE",
"93 -97 CURVE",
"12 -167 LINE",
"12 -180 LINE",
"170 -122 LINE",
"126 -106 LINE",
"75 -133 LINE",
"188 -122 OFFCURVE",
"425 -140 OFFCURVE",
"568 -194 CURVE"
);
},
{
closed = 1;
nodes = (
"361 -116 OFFCURVE",
"577 44 OFFCURVE",
"623 316 CURVE",
"550 306 LINE",
"497 0 OFFCURVE",
"296 -103 OFFCURVE",
"12 -167 CURVE",
"12 -180 LINE"
);
},
{
closed = 1;
nodes = (
"476 -7 OFFCURVE",
"588 112 OFFCURVE",
"623 316 CURVE SMOOTH",
"656 512 OFFCURVE",
"556 641 OFFCURVE",
"377 641 CURVE SMOOTH",
"199 641 OFFCURVE",
"80 521 OFFCURVE",
"50 336 CURVE SMOOTH",
"15 121 OFFCURVE",
"113 -7 OFFCURVE",
"290 -7 CURVE SMOOTH"
);
},
{
closed = 1;
nodes = (
"160 18 OFFCURVE",
"94 171 OFFCURVE",
"123 346 CURVE SMOOTH",
"154 533 OFFCURVE",
"251 616 OFFCURVE",
"367 616 CURVE SMOOTH",
"509 616 OFFCURVE",
"578 470 OFFCURVE",
"550 306 CURVE SMOOTH",
"516 107 OFFCURVE",
"414 18 OFFCURVE",
"300 18 CURVE SMOOTH"
);
}
);
width = 640;
},
{
associatedMasterId = "97AFB7C9-FE9A-4B33-96EF-7CD144DFB325";
layerId = "22142CEF-902A-4607-8003-54CCF3EA232A";
name = "Light Italic Aug 3 16, 20:55";
paths = (
{
closed = 1;
nodes = (
"439 -7 OFFCURVE",
"578 112 OFFCURVE",
"613 316 CURVE SMOOTH",
"646 512 OFFCURVE",
"519 641 OFFCURVE",
"377 641 CURVE SMOOTH",
"235 641 OFFCURVE",
"88 521 OFFCURVE",
"58 336 CURVE SMOOTH",
"23 121 OFFCURVE",
"149 -7 OFFCURVE",
"290 -7 CURVE SMOOTH"
);
},
{
closed = 1;
nodes = (
"590 -97 LINE",
"575 -90 LINE",
"479 -154 LINE",
"516 -157 LINE",
"391 -109 OFFCURVE",
"266 -89 OFFCURVE",
"141 -87 CURVE",
"50 -157 LINE",
"50 -170 LINE",
"188 -110 LINE",
"113 -133 LINE",
"216 -142 OFFCURVE",
"373 -160 OFFCURVE",
"486 -214 CURVE"
);
},
{
closed = 1;
nodes = (
"349 -106 OFFCURVE",
"566 44 OFFCURVE",
"613 316 CURVE",
"530 306 LINE",
"482 29 OFFCURVE",
"284 -93 OFFCURVE",
"50 -157 CURVE",
"50 -170 LINE"
);
},
{
closed = 1;
nodes = (
"166 18 OFFCURVE",
"109 161 OFFCURVE",
"140 346 CURVE SMOOTH",
"173 543 OFFCURVE",
"261 616 OFFCURVE",
"367 616 CURVE SMOOTH",
"502 616 OFFCURVE",
"560 480 OFFCURVE",
"530 306 CURVE SMOOTH",
"494 97 OFFCURVE",
"407 18 OFFCURVE",
"300 18 CURVE SMOOTH"
);
}
);
width = 638;
},
{
associatedMasterId = "97AFB7C9-FE9A-4B33-96EF-7CD144DFB325";
background = {
paths = (
{
closed = 1;
nodes = (
"439 -7 OFFCURVE",
"578 112 OFFCURVE",
"613 316 CURVE SMOOTH",
"646 512 OFFCURVE",
"519 641 OFFCURVE",
"377 641 CURVE SMOOTH",
"235 641 OFFCURVE",
"88 521 OFFCURVE",
"58 336 CURVE SMOOTH",
"23 121 OFFCURVE",
"149 -7 OFFCURVE",
"290 -7 CURVE SMOOTH"
);
},
{
closed = 1;
nodes = (
"613 -67 LINE",
"598 -60 LINE",
"509 -134 LINE",
"546 -137 LINE",
"421 -89 OFFCURVE",
"266 -89 OFFCURVE",
"121 -97 CURVE",
"40 -167 LINE",
"40 -180 LINE",
"198 -122 LINE",
"154 -106 LINE",
"103 -133 LINE",
"216 -122 OFFCURVE",
"403 -140 OFFCURVE",
"516 -194 CURVE"
);
},
{
closed = 1;
nodes = (
"349 -116 OFFCURVE",
"565 34 OFFCURVE",
"613 316 CURVE",
"530 306 LINE",
"477 0 OFFCURVE",
"284 -103 OFFCURVE",
"40 -167 CURVE",
"40 -180 LINE"
);
},
{
closed = 1;
nodes = (
"166 18 OFFCURVE",
"109 161 OFFCURVE",
"140 346 CURVE SMOOTH",
"173 543 OFFCURVE",
"261 616 OFFCURVE",
"367 616 CURVE SMOOTH",
"502 616 OFFCURVE",
"560 480 OFFCURVE",
"530 306 CURVE SMOOTH",
"494 97 OFFCURVE",
"407 18 OFFCURVE",
"300 18 CURVE SMOOTH"
);
}
);
};
layerId = "B665A0EB-2146-44F3-AE70-0C35FD8DA628";
name = "Light Italic Aug 3 16, 22:55";
paths = (
{
closed = 1;
nodes = (
"439 -7 OFFCURVE",
"578 112 OFFCURVE",
"613 316 CURVE SMOOTH",
"646 512 OFFCURVE",
"519 641 OFFCURVE",
"377 641 CURVE SMOOTH",
"235 641 OFFCURVE",
"88 521 OFFCURVE",
"58 336 CURVE SMOOTH",
"23 121 OFFCURVE",
"149 -7 OFFCURVE",
"290 -7 CURVE SMOOTH"
);
},
{
closed = 1;
nodes = (
"613 -67 LINE",
"598 -60 LINE",
"509 -134 LINE",
"546 -137 LINE",
"421 -89 OFFCURVE",
"266 -89 OFFCURVE",
"121 -97 CURVE",
"40 -167 LINE",
"40 -180 LINE",
"198 -122 LINE",
"154 -106 LINE",
"103 -133 LINE",
"216 -122 OFFCURVE",
"403 -140 OFFCURVE",
"516 -194 CURVE"
);
},
{
closed = 1;
nodes = (
"349 -116 OFFCURVE",
"565 34 OFFCURVE",
"613 316 CURVE",
"530 306 LINE",
"477 0 OFFCURVE",
"284 -103 OFFCURVE",
"40 -167 CURVE",
"40 -180 LINE"
);
},
{
closed = 1;
nodes = (
"166 18 OFFCURVE",
"109 161 OFFCURVE",
"140 346 CURVE SMOOTH",
"173 543 OFFCURVE",
"261 616 OFFCURVE",
"367 616 CURVE SMOOTH",
"502 616 OFFCURVE",
"560 480 OFFCURVE",
"530 306 CURVE SMOOTH",
"494 97 OFFCURVE",
"407 18 OFFCURVE",
"300 18 CURVE SMOOTH"
);
}
);
width = 638;
},
{
layerId = "EADDC163-A127-4E50-A035-005E723BF706";
name = "SemiBold Italic";
width = 600;
},
{
associatedMasterId = "97AFB7C9-FE9A-4B33-96EF-7CD144DFB325";
background = {
paths = (
{
closed = 1;
nodes = (
"439 -7 OFFCURVE",
"578 112 OFFCURVE",
"613 316 CURVE SMOOTH",
"646 512 OFFCURVE",
"519 641 OFFCURVE",
"377 641 CURVE SMOOTH",
"235 641 OFFCURVE",
"88 521 OFFCURVE",
"58 336 CURVE SMOOTH",
"23 121 OFFCURVE",
"149 -7 OFFCURVE",
"290 -7 CURVE SMOOTH"
);
},
{
closed = 1;
nodes = (
"613 -67 LINE",
"598 -60 LINE",
"509 -134 LINE",
"546 -137 LINE",
"421 -89 OFFCURVE",
"266 -89 OFFCURVE",
"121 -97 CURVE",
"40 -167 LINE",
"40 -180 LINE",
"198 -122 LINE",
"154 -106 LINE",
"103 -133 LINE",
"216 -122 OFFCURVE",
"403 -140 OFFCURVE",
"516 -194 CURVE"
);
},
{
closed = 1;
nodes = (
"349 -116 OFFCURVE",
"565 34 OFFCURVE",
"613 316 CURVE",
"530 306 LINE",
"477 0 OFFCURVE",
"284 -103 OFFCURVE",
"40 -167 CURVE",
"40 -180 LINE"
);
},
{
closed = 1;
nodes = (
"166 18 OFFCURVE",
"109 161 OFFCURVE",
"140 346 CURVE SMOOTH",
"173 543 OFFCURVE",
"261 616 OFFCURVE",
"367 616 CURVE SMOOTH",
"502 616 OFFCURVE",
"560 480 OFFCURVE",
"530 306 CURVE SMOOTH",
"494 97 OFFCURVE",
"407 18 OFFCURVE",
"300 18 CURVE SMOOTH"
);
}
);
};
layerId = "B7B39998-BDAB-4F54-BA1D-6ED2E5ED5891";
name = "Light Italic Aug 20 16, 00:02";
paths = (
{
closed = 1;
nodes = (
"439 -7 OFFCURVE",
"578 112 OFFCURVE",
"613 316 CURVE SMOOTH",
"646 512 OFFCURVE",
"519 641 OFFCURVE",
"377 641 CURVE SMOOTH",
"235 641 OFFCURVE",
"88 521 OFFCURVE",
"58 336 CURVE SMOOTH",
"23 121 OFFCURVE",
"149 -7 OFFCURVE",
"290 -7 CURVE SMOOTH"
);
},
{
closed = 1;
nodes = (
"663 -67 LINE",
"648 -60 LINE",
"559 -134 LINE",
"596 -137 LINE",
"441 -89 OFFCURVE",
"236 -89 OFFCURVE",
"91 -97 CURVE",
"10 -167 LINE",
"10 -180 LINE",
"168 -122 LINE",
"124 -106 LINE",
"73 -133 LINE",
"186 -122 OFFCURVE",
"423 -140 OFFCURVE",
"566 -194 CURVE"
);
},
{
closed = 1;
nodes = (
"359 -116 OFFCURVE",
"565 34 OFFCURVE",
"613 316 CURVE",
"530 306 LINE",
"477 0 OFFCURVE",
"294 -103 OFFCURVE",
"10 -167 CURVE",
"10 -180 LINE"
);
},
{
closed = 1;
nodes = (
"166 18 OFFCURVE",
"109 161 OFFCURVE",
"140 346 CURVE SMOOTH",
"173 543 OFFCURVE",
"261 616 OFFCURVE",
"367 616 CURVE SMOOTH",
"502 616 OFFCURVE",
"560 480 OFFCURVE",
"530 306 CURVE SMOOTH",
"494 97 OFFCURVE",
"407 18 OFFCURVE",
"300 18 CURVE SMOOTH"
);
}
);
width = 638;
}
);
unicode = 0051;
},
{
glyphname = R;
lastChange = "2016-08-19 23:02:55 +0000";
layers = (
{
background = {
paths = (
{
closed = 1;
nodes = (
"122 0 LINE",
"223 623 LINE",
"204 611 LINE",
"232 617 OFFCURVE",
"252 617 OFFCURVE",
"288 617 CURVE SMOOTH",
"401 617 OFFCURVE",
"443 550 OFFCURVE",
"430 460 CURVE SMOOTH",
"415 355 OFFCURVE",
"330 316 OFFCURVE",
"239 316 CURVE SMOOTH",
"212 316 OFFCURVE",
"184 319 OFFCURVE",
"171 324 CURVE",
"152 323 LINE",
"146 302 LINE",
"155 302 OFFCURVE",
"228 287 OFFCURVE",
"299 291 CURVE",
"259 310 LINE",
"391 -7 LINE",
"524 -1 LINE",
"526 13 LINE",
"418 47 LINE",
"449 13 LINE",
"314 324 LINE",
"317 297 LINE",
"410 313 OFFCURVE",
"484 384 OFFCURVE",
"496 470 CURVE SMOOTH",
"509 565 OFFCURVE",
"444 637 OFFCURVE",
"300 637 CURVE SMOOTH",
"197 637 OFFCURVE",
"124 637 OFFCURVE",
"88 640 CURVE",
"161 615 LINE",
"60 0 LINE"
);
},
{
closed = 1;
nodes = (
"88 25 LINE",
"99 0 LINE",
"200 -2 LINE",
"202 12 LINE",
"88 43 LINE"
);
},
{
closed = 1;
nodes = (
"-12 12 LINE",
"-10 -2 LINE",
"80 0 LINE",
"106 25 LINE",
"106 43 LINE"
);
},
{
closed = 1;
nodes = (
"191 611 LINE",
"160 634 LINE",
"88 640 LINE",
"86 626 LINE",
"191 588 LINE"
);
},
{
closed = 0;
nodes = (
"459 310 LINE",
"591 -7 LINE",
"724 -1 LINE",
"726 13 LINE",
"618 47 LINE",
"649 13 LINE",
"514 324 LINE"
);
}
);
};
layerId = "97AFB7C9-FE9A-4B33-96EF-7CD144DFB325";
name = "Light Italic";
paths = (
{
closed = 1;
nodes = (
"122 0 LINE",
"223 623 LINE",
"204 611 LINE",
"232 617 OFFCURVE",
"252 617 OFFCURVE",
"288 617 CURVE SMOOTH",
"401 617 OFFCURVE",
"443 550 OFFCURVE",
"430 460 CURVE SMOOTH",
"415 355 OFFCURVE",
"330 316 OFFCURVE",
"239 316 CURVE SMOOTH",
"212 316 OFFCURVE",
"184 315 OFFCURVE",
"171 320 CURVE",
"152 319 LINE",
"146 300 LINE",
"165 295 OFFCURVE",
"205 289 OFFCURVE",
"239 289 CURVE SMOOTH",
"396 289 OFFCURVE",
"484 381 OFFCURVE",
"496 470 CURVE SMOOTH",
"509 565 OFFCURVE",
"444 637 OFFCURVE",
"300 637 CURVE SMOOTH",
"197 637 OFFCURVE",
"124 637 OFFCURVE",
"88 640 CURVE",
"161 615 LINE",
"60 0 LINE"
);
},
{
closed = 1;
nodes = (
"88 25 LINE",
"99 0 LINE",
"200 -2 LINE",
"202 12 LINE",
"88 43 LINE"
);
},
{
closed = 1;
nodes = (
"-12 12 LINE",
"-10 -2 LINE",
"80 0 LINE",
"106 25 LINE",
"106 43 LINE"
);
},
{
closed = 1;
nodes = (
"191 611 LINE",
"160 634 LINE",
"88 640 LINE",
"86 626 LINE",
"191 588 LINE"
);
},
{
closed = 1;
nodes = (
"209 310 LINE",
"381 -7 LINE",
"514 -1 LINE",
"516 13 LINE",
"408 47 LINE",
"439 13 LINE",
"275 307 LINE"
);
}
);
width = 551;
},
{
associatedMasterId = "97AFB7C9-FE9A-4B33-96EF-7CD144DFB325";
background = {
paths = (
{
closed = 1;
nodes = (
"182 568 LINE",
"196 585 LINE",
"228 591 OFFCURVE",
"244 594 OFFCURVE",
"282 594 CURVE SMOOTH",
"388 594 OFFCURVE",
"428 532 OFFCURVE",
"416 446 CURVE SMOOTH",
"405 363 OFFCURVE",
"325 306 OFFCURVE",
"234 277 CURVE",
"285 277 LINE",
"337 290 OFFCURVE",
"469 336 OFFCURVE",
"487 465 CURVE SMOOTH",
"499 560 OFFCURVE",
"428 615 OFFCURVE",
"297 615 CURVE SMOOTH",
"206 615 OFFCURVE",
"97 612 OFFCURVE",
"69 607 CURVE",
"69 590 LINE"
);
},
{
closed = 1;
nodes = (
"70 0 LINE",
"130 0 LINE",
"225 598 LINE",
"164 598 LINE"
);
},
{
closed = 1;
nodes = (
"222 17 LINE",
"114 42 LINE",
"107 28 LINE",
"-3 17 LINE",
"-3 0 LINE",
"223 0 LINE"
);
},
{
closed = 1;
nodes = (
"248 242 OFFCURVE",
"271 184 OFFCURVE",
"294 130 CURVE SMOOTH",
"342 17 OFFCURVE",
"357 -5 OFFCURVE",
"388 -5 CURVE SMOOTH",
"464 -5 OFFCURVE",
"521 107 OFFCURVE",
"521 135 CURVE",
"508 147 LINE",
"481 87 OFFCURVE",
"435 29 OFFCURVE",
"384 22 CURVE",
"420 6 LINE",
"378 80 OFFCURVE",
"309 254 OFFCURVE",
"291 295 CURVE",
"234 277 LINE"
);
}
);
};
layerId = "4016FFE9-BF58-4E87-B883-2C1B7B40F007";
name = "Light Italic Aug 4 16, 16:06";
paths = (
{
closed = 1;
nodes = (
"182 568 LINE",
"225 595 LINE",
"270 595 LINE SMOOTH",
"387 595 OFFCURVE",
"428 532 OFFCURVE",
"416 446 CURVE SMOOTH",
"405 363 OFFCURVE",
"325 306 OFFCURVE",
"234 277 CURVE",
"285 280 LINE",
"344 289 OFFCURVE",
"469 336 OFFCURVE",
"485 458 CURVE SMOOTH",
"499 560 OFFCURVE",
"428 615 OFFCURVE",
"297 615 CURVE SMOOTH",
"196 615 OFFCURVE",
"126 610 OFFCURVE",
"84 610 CURVE"
);
},
{
closed = 1;
nodes = (
"248 242 OFFCURVE",
"271 184 OFFCURVE",
"294 130 CURVE SMOOTH",
"342 17 OFFCURVE",
"357 -5 OFFCURVE",
"388 -5 CURVE SMOOTH",
"467 -5 OFFCURVE",
"517 105 OFFCURVE",
"517 135 CURVE",
"508 147 LINE",
"481 87 OFFCURVE",
"435 29 OFFCURVE",
"366 22 CURVE",
"420 6 LINE",
"378 80 OFFCURVE",
"309 254 OFFCURVE",
"291 295 CURVE",
"234 277 LINE"
);
},
{
closed = 1;
nodes = (
"69 0 LINE",
"127 0 LINE",
"227 608 LINE",
"168 608 LINE"
);
},
{
closed = 1;
nodes = (
"199 583 LINE",
"168 608 LINE",
"84 610 LINE",
"82 596 LINE",
"199 565 LINE"
);
},
{
closed = 1;
nodes = (
"95 25 LINE",
"126 0 LINE",
"210 -2 LINE",
"212 12 LINE",
"95 43 LINE"
);
},
{
closed = 1;
nodes = (
"-4 12 LINE",
"-2 -2 LINE",
"67 0 LINE",
"113 25 LINE",
"113 43 LINE"
);
}
);
width = 556;
},
{
associatedMasterId = "97AFB7C9-FE9A-4B33-96EF-7CD144DFB325";
background = {
paths = (
{
closed = 1;
nodes = (
"182 568 LINE",
"196 585 LINE",
"228 591 OFFCURVE",
"244 594 OFFCURVE",
"282 594 CURVE SMOOTH",
"388 594 OFFCURVE",
"428 532 OFFCURVE",
"416 446 CURVE SMOOTH",
"405 363 OFFCURVE",
"325 306 OFFCURVE",
"234 277 CURVE",
"285 277 LINE",
"337 290 OFFCURVE",
"469 336 OFFCURVE",
"487 465 CURVE SMOOTH",
"499 560 OFFCURVE",
"428 615 OFFCURVE",
"297 615 CURVE SMOOTH",
"206 615 OFFCURVE",
"97 612 OFFCURVE",
"69 607 CURVE",
"69 590 LINE"
);
},
{
closed = 1;
nodes = (
"70 0 LINE",
"130 0 LINE",
"225 598 LINE",
"164 598 LINE"
);
},
{
closed = 1;
nodes = (
"222 17 LINE",
"114 42 LINE",
"107 28 LINE",
"-3 17 LINE",
"-3 0 LINE",
"223 0 LINE"
);
},
{
closed = 1;
nodes = (
"248 242 OFFCURVE",
"271 184 OFFCURVE",
"294 130 CURVE SMOOTH",
"342 17 OFFCURVE",
"357 -5 OFFCURVE",
"388 -5 CURVE SMOOTH",
"464 -5 OFFCURVE",
"521 107 OFFCURVE",
"521 135 CURVE",
"508 147 LINE",
"481 87 OFFCURVE",
"435 29 OFFCURVE",
"384 22 CURVE",
"420 6 LINE",
"378 80 OFFCURVE",
"309 254 OFFCURVE",
"291 295 CURVE",
"234 277 LINE"
);
}
);
};
layerId = "14650818-52CA-4599-A765-D03FD059E9BE";
name = "Light Italic Aug 4 16, 16:19";
paths = (
{
closed = 1;
nodes = (
"182 568 LINE",
"225 595 LINE",
"270 595 LINE SMOOTH",
"387 595 OFFCURVE",
"428 532 OFFCURVE",
"416 446 CURVE SMOOTH",
"405 363 OFFCURVE",
"325 306 OFFCURVE",
"234 277 CURVE",
"285 280 LINE",
"344 289 OFFCURVE",
"469 336 OFFCURVE",
"485 458 CURVE SMOOTH",
"499 560 OFFCURVE",
"428 615 OFFCURVE",
"297 615 CURVE SMOOTH",
"196 615 OFFCURVE",
"126 610 OFFCURVE",
"84 610 CURVE"
);
},
{
closed = 1;
nodes = (
"248 242 OFFCURVE",
"271 184 OFFCURVE",
"294 130 CURVE SMOOTH",
"342 17 OFFCURVE",
"357 -5 OFFCURVE",
"388 -5 CURVE SMOOTH",
"467 -5 OFFCURVE",
"517 105 OFFCURVE",
"517 135 CURVE",
"508 147 LINE",
"481 87 OFFCURVE",
"435 29 OFFCURVE",
"366 22 CURVE",
"420 6 LINE",
"378 80 OFFCURVE",
"309 254 OFFCURVE",
"291 295 CURVE",
"234 277 LINE"
);
},
{
closed = 1;
nodes = (
"69 0 LINE",
"127 0 LINE",
"227 608 LINE",
"168 608 LINE"
);
},
{
closed = 1;
nodes = (
"199 583 LINE",
"168 608 LINE",
"84 610 LINE",
"82 596 LINE",
"199 565 LINE"
);
},
{
closed = 1;
nodes = (
"95 25 LINE",
"126 0 LINE",
"210 -2 LINE",
"212 12 LINE",
"95 43 LINE"
);
},
{
closed = 1;
nodes = (
"-4 12 LINE",
"-2 -2 LINE",
"67 0 LINE",
"113 25 LINE",
"113 43 LINE"
);
}
);
width = 556;
},
{
layerId = "EADDC163-A127-4E50-A035-005E723BF706";
name = "SemiBold Italic";
width = 600;
},
{
associatedMasterId = "97AFB7C9-FE9A-4B33-96EF-7CD144DFB325";
background = {
paths = (
{
closed = 1;
nodes = (
"122 0 LINE",
"223 606 LINE",
"204 595 LINE",
"232 603 OFFCURVE",
"252 605 OFFCURVE",
"288 605 CURVE SMOOTH",
"391 605 OFFCURVE",
"439 548 OFFCURVE",
"423 450 CURVE SMOOTH",
"407 355 OFFCURVE",
"330 302 OFFCURVE",
"239 302 CURVE SMOOTH",
"212 302 OFFCURVE",
"184 302 OFFCURVE",
"174 304 CURVE",
"152 306 LINE",
"146 280 LINE",
"155 279 OFFCURVE",
"228 276 OFFCURVE",
"289 278 CURVE",
"217 274 LINE",
"294 287 OFFCURVE",
"297 258 OFFCURVE",
"340 140 CURVE SMOOTH",
"376 37 OFFCURVE",
"408 -8 OFFCURVE",
"473 -8 CURVE SMOOTH",
"492 -8 OFFCURVE",
"507 -7 OFFCURVE",
"519 -1 CURVE",
"523 13 LINE",
"468 13 OFFCURVE",
"445 71 OFFCURVE",
"423 123 CURVE SMOOTH",
"399 177 OFFCURVE",
"365 263 OFFCURVE",
"352 329 CURVE",
"333 289 LINE",
"420 320 OFFCURVE",
"489 393 OFFCURVE",
"501 460 CURVE SMOOTH",
"518 564 OFFCURVE",
"444 630 OFFCURVE",
"300 630 CURVE SMOOTH",
"228 630 OFFCURVE",
"132 629 OFFCURVE",
"87 631 CURVE",
"160 608 LINE",
"60 0 LINE"
);
},
{
closed = 1;
nodes = (
"88 25 LINE",
"99 0 LINE",
"197 -2 LINE",
"199 12 LINE",
"88 43 LINE"
);
},
{
closed = 1;
nodes = (
"-15 12 LINE",
"-13 -2 LINE",
"80 0 LINE",
"106 25 LINE",
"106 43 LINE"
);
},
{
closed = 1;
nodes = (
"190 604 LINE",
"159 629 LINE",
"87 631 LINE",
"85 617 LINE",
"190 586 LINE"
);
}
);
};
layerId = "1CA04D95-4C9A-44FB-BF12-26992DE0C0EE";
name = "Light Italic Aug 19 16, 20:47";
paths = (
{
closed = 1;
nodes = (
"122 0 LINE",
"223 606 LINE",
"204 595 LINE",
"232 603 OFFCURVE",
"252 605 OFFCURVE",
"288 605 CURVE SMOOTH",
"391 605 OFFCURVE",
"439 548 OFFCURVE",
"423 450 CURVE SMOOTH",
"407 355 OFFCURVE",
"330 302 OFFCURVE",
"239 302 CURVE SMOOTH",
"212 302 OFFCURVE",
"184 302 OFFCURVE",
"174 304 CURVE",
"152 306 LINE",
"146 280 LINE",
"155 279 OFFCURVE",
"228 276 OFFCURVE",
"289 278 CURVE",
"217 274 LINE",
"294 287 OFFCURVE",
"297 258 OFFCURVE",
"340 140 CURVE SMOOTH",
"376 37 OFFCURVE",
"408 -8 OFFCURVE",
"473 -8 CURVE SMOOTH",
"492 -8 OFFCURVE",
"507 -7 OFFCURVE",
"519 -1 CURVE",
"523 13 LINE",
"468 13 OFFCURVE",
"445 71 OFFCURVE",
"423 123 CURVE SMOOTH",
"399 177 OFFCURVE",
"365 263 OFFCURVE",
"352 329 CURVE",
"333 289 LINE",
"420 320 OFFCURVE",
"489 393 OFFCURVE",
"501 460 CURVE SMOOTH",
"518 564 OFFCURVE",
"444 630 OFFCURVE",
"300 630 CURVE SMOOTH",
"228 630 OFFCURVE",
"132 629 OFFCURVE",
"87 631 CURVE",
"160 608 LINE",
"60 0 LINE"
);
},
{
closed = 1;
nodes = (
"88 25 LINE",
"99 0 LINE",
"197 -2 LINE",
"199 12 LINE",
"88 43 LINE"
);
},
{
closed = 1;
nodes = (
"-15 12 LINE",
"-13 -2 LINE",
"80 0 LINE",
"106 25 LINE",
"106 43 LINE"
);
},
{
closed = 1;
nodes = (
"190 604 LINE",
"159 629 LINE",
"87 631 LINE",
"85 617 LINE",
"190 586 LINE"
);
}
);
width = 556;
},
{
associatedMasterId = "97AFB7C9-FE9A-4B33-96EF-7CD144DFB325";
background = {
paths = (
{
closed = 1;
nodes = (
"122 0 LINE",
"223 606 LINE",
"204 595 LINE",
"232 603 OFFCURVE",
"252 605 OFFCURVE",
"288 605 CURVE SMOOTH",
"391 605 OFFCURVE",
"439 548 OFFCURVE",
"423 450 CURVE SMOOTH",
"407 355 OFFCURVE",
"330 302 OFFCURVE",
"239 302 CURVE SMOOTH",
"212 302 OFFCURVE",
"184 302 OFFCURVE",
"174 304 CURVE",
"152 306 LINE",
"146 280 LINE",
"155 279 OFFCURVE",
"228 276 OFFCURVE",
"289 278 CURVE",
"217 274 LINE",
"294 287 OFFCURVE",
"297 258 OFFCURVE",
"340 140 CURVE SMOOTH",
"376 37 OFFCURVE",
"408 -8 OFFCURVE",
"473 -8 CURVE SMOOTH",
"492 -8 OFFCURVE",
"507 -7 OFFCURVE",
"519 -1 CURVE",
"523 13 LINE",
"468 13 OFFCURVE",
"445 71 OFFCURVE",
"423 123 CURVE SMOOTH",
"399 177 OFFCURVE",
"365 263 OFFCURVE",
"352 329 CURVE",
"333 289 LINE",
"420 320 OFFCURVE",
"489 393 OFFCURVE",
"501 460 CURVE SMOOTH",
"518 564 OFFCURVE",
"444 630 OFFCURVE",
"300 630 CURVE SMOOTH",
"228 630 OFFCURVE",
"132 629 OFFCURVE",
"87 631 CURVE",
"160 608 LINE",
"60 0 LINE"
);
},
{
closed = 1;
nodes = (
"88 25 LINE",
"99 0 LINE",
"197 -2 LINE",
"199 12 LINE",
"88 43 LINE"
);
},
{
closed = 1;
nodes = (
"-15 12 LINE",
"-13 -2 LINE",
"80 0 LINE",
"106 25 LINE",
"106 43 LINE"
);
},
{
closed = 1;
nodes = (
"190 604 LINE",
"159 629 LINE",
"87 631 LINE",
"85 617 LINE",
"190 586 LINE"
);
}
);
};
layerId = "62C166CD-28EA-4ADE-902E-B5B8133BE0A5";
name = "Light Italic Aug 19 16, 20:49";
paths = (
{
closed = 1;
nodes = (
"122 0 LINE",
"223 606 LINE",
"204 595 LINE",
"232 603 OFFCURVE",
"252 605 OFFCURVE",
"288 605 CURVE SMOOTH",
"391 605 OFFCURVE",
"439 548 OFFCURVE",
"423 450 CURVE SMOOTH",
"407 355 OFFCURVE",
"330 302 OFFCURVE",
"239 302 CURVE SMOOTH",
"212 302 OFFCURVE",
"184 302 OFFCURVE",
"174 304 CURVE",
"152 306 LINE",
"146 280 LINE",
"155 279 OFFCURVE",
"228 276 OFFCURVE",
"299 279 CURVE",
"281 293 LINE",
"378 41 LINE SMOOTH",
"392 5 OFFCURVE",
"408 -8 OFFCURVE",
"473 -8 CURVE SMOOTH",
"492 -8 OFFCURVE",
"507 -7 OFFCURVE",
"519 -1 CURVE",
"523 13 LINE",
"466 13 OFFCURVE",
"461 36 OFFCURVE",
"420 56 CURVE",
"466 13 LINE",
"339 323 LINE",
"333 289 LINE",
"420 320 OFFCURVE",
"489 393 OFFCURVE",
"501 460 CURVE SMOOTH",
"518 564 OFFCURVE",
"444 630 OFFCURVE",
"310 630 CURVE SMOOTH",
"261 630 OFFCURVE",
"206 629 OFFCURVE",
"182 629 CURVE SMOOTH",
"140 629 OFFCURVE",
"108 630 OFFCURVE",
"87 631 CURVE",
"160 608 LINE",
"60 0 LINE"
);
},
{
closed = 1;
nodes = (
"88 25 LINE",
"99 0 LINE",
"197 -2 LINE",
"199 12 LINE",
"88 43 LINE"
);
},
{
closed = 1;
nodes = (
"-15 12 LINE",
"-13 -2 LINE",
"80 0 LINE",
"106 25 LINE",
"106 43 LINE"
);
},
{
closed = 1;
nodes = (
"190 604 LINE",
"159 627 LINE",
"87 631 LINE",
"85 617 LINE",
"190 586 LINE"
);
}
);
width = 556;
},
{
associatedMasterId = "97AFB7C9-FE9A-4B33-96EF-7CD144DFB325";
background = {
paths = (
{
closed = 1;
nodes = (
"122 0 LINE",
"223 609 LINE",
"204 599 LINE",
"232 606 OFFCURVE",
"252 607 OFFCURVE",
"298 607 CURVE SMOOTH",
"391 607 OFFCURVE",
"442 548 OFFCURVE",
"426 450 CURVE SMOOTH",
"409 345 OFFCURVE",
"330 301 OFFCURVE",
"239 301 CURVE SMOOTH",
"212 301 OFFCURVE",
"184 302 OFFCURVE",
"171 307 CURVE",
"152 306 LINE",
"146 285 LINE",
"155 285 OFFCURVE",
"228 270 OFFCURVE",
"299 279 CURVE",
"271 293 LINE",
"382 27 LINE SMOOTH",
"396 -6 OFFCURVE",
"408 -13 OFFCURVE",
"463 -8 CURVE SMOOTH",
"484 -6 OFFCURVE",
"510 -2 OFFCURVE",
"526 5 CURVE",
"530 16 LINE",
"420 40 LINE",
"466 13 LINE",
"329 323 LINE",
"333 289 LINE",
"420 320 OFFCURVE",
"484 374 OFFCURVE",
"498 460 CURVE SMOOTH",
"515 564 OFFCURVE",
"444 630 OFFCURVE",
"310 630 CURVE SMOOTH",
"261 630 OFFCURVE",
"206 629 OFFCURVE",
"182 629 CURVE SMOOTH",
"140 629 OFFCURVE",
"108 630 OFFCURVE",
"87 631 CURVE",
"160 608 LINE",
"60 0 LINE"
);
},
{
closed = 1;
nodes = (
"88 25 LINE",
"99 0 LINE",
"197 -2 LINE",
"199 12 LINE",
"88 43 LINE"
);
},
{
closed = 1;
nodes = (
"-15 12 LINE",
"-13 -2 LINE",
"80 0 LINE",
"106 25 LINE",
"106 43 LINE"
);
},
{
closed = 1;
nodes = (
"190 604 LINE",
"159 627 LINE",
"87 631 LINE",
"85 617 LINE",
"190 581 LINE"
);
}
);
};
layerId = "C6DDD8B3-BEE4-40AE-BDB5-216021732C4C";
name = "Light Italic Aug 19 16, 21:45";
paths = (
{
closed = 1;
nodes = (
"122 0 LINE",
"223 609 LINE",
"204 599 LINE",
"232 606 OFFCURVE",
"252 607 OFFCURVE",
"298 607 CURVE SMOOTH",
"391 607 OFFCURVE",
"442 548 OFFCURVE",
"426 450 CURVE SMOOTH",
"409 345 OFFCURVE",
"330 301 OFFCURVE",
"239 301 CURVE SMOOTH",
"212 301 OFFCURVE",
"184 302 OFFCURVE",
"171 307 CURVE",
"152 306 LINE",
"146 285 LINE",
"155 285 OFFCURVE",
"228 270 OFFCURVE",
"299 279 CURVE",
"271 293 LINE",
"382 27 LINE SMOOTH",
"396 -6 OFFCURVE",
"408 -13 OFFCURVE",
"463 -8 CURVE SMOOTH",
"484 -6 OFFCURVE",
"510 -2 OFFCURVE",
"526 5 CURVE",
"530 16 LINE",
"420 40 LINE",
"466 13 LINE",
"329 323 LINE",
"333 289 LINE",
"420 320 OFFCURVE",
"484 374 OFFCURVE",
"498 460 CURVE SMOOTH",
"515 564 OFFCURVE",
"444 630 OFFCURVE",
"310 630 CURVE SMOOTH",
"261 630 OFFCURVE",
"206 629 OFFCURVE",
"182 629 CURVE SMOOTH",
"140 629 OFFCURVE",
"108 630 OFFCURVE",
"87 631 CURVE",
"160 608 LINE",
"60 0 LINE"
);
},
{
closed = 1;
nodes = (
"88 25 LINE",
"99 0 LINE",
"197 -2 LINE",
"199 12 LINE",
"88 43 LINE"
);
},
{
closed = 1;
nodes = (
"-15 12 LINE",
"-13 -2 LINE",
"80 0 LINE",
"106 25 LINE",
"106 43 LINE"
);
},
{
closed = 1;
nodes = (
"190 604 LINE",
"159 627 LINE",
"87 631 LINE",
"85 617 LINE",
"190 581 LINE"
);
}
);
width = 551;
},
{
associatedMasterId = "97AFB7C9-FE9A-4B33-96EF-7CD144DFB325";
background = {
paths = (
{
closed = 1;
nodes = (
"122 0 LINE",
"223 612 LINE",
"204 603 LINE",
"232 609 OFFCURVE",
"252 610 OFFCURVE",
"298 610 CURVE SMOOTH",
"391 610 OFFCURVE",
"442 548 OFFCURVE",
"426 450 CURVE SMOOTH",
"409 345 OFFCURVE",
"330 301 OFFCURVE",
"239 301 CURVE SMOOTH",
"212 301 OFFCURVE",
"184 302 OFFCURVE",
"171 307 CURVE",
"152 306 LINE",
"146 285 LINE",
"155 285 OFFCURVE",
"228 270 OFFCURVE",
"299 279 CURVE",
"271 293 LINE",
"398 -7 LINE",
"531 -1 LINE",
"533 13 LINE",
"425 47 LINE",
"456 13 LINE",
"319 323 LINE",
"333 289 LINE",
"420 320 OFFCURVE",
"484 374 OFFCURVE",
"498 460 CURVE SMOOTH",
"515 564 OFFCURVE",
"444 630 OFFCURVE",
"310 630 CURVE SMOOTH",
"197 630 OFFCURVE",
"123 630 OFFCURVE",
"87 633 CURVE",
"160 608 LINE",
"60 0 LINE"
);
},
{
closed = 1;
nodes = (
"88 25 LINE",
"99 0 LINE",
"197 -2 LINE",
"199 12 LINE",
"88 43 LINE"
);
},
{
closed = 1;
nodes = (
"-15 12 LINE",
"-13 -2 LINE",
"80 0 LINE",
"106 25 LINE",
"106 43 LINE"
);
},
{
closed = 1;
nodes = (
"190 604 LINE",
"159 627 LINE",
"87 633 LINE",
"85 619 LINE",
"190 581 LINE"
);
}
);
};
layerId = "8A4D955F-F2CB-4EDA-A5E6-39A744C3B10B";
name = "Light Italic Aug 19 16, 23:19";
paths = (
{
closed = 1;
nodes = (
"122 0 LINE",
"223 612 LINE",
"204 603 LINE",
"232 609 OFFCURVE",
"252 610 OFFCURVE",
"298 610 CURVE SMOOTH",
"391 610 OFFCURVE",
"442 548 OFFCURVE",
"426 450 CURVE SMOOTH",
"409 345 OFFCURVE",
"330 301 OFFCURVE",
"239 301 CURVE SMOOTH",
"212 301 OFFCURVE",
"184 302 OFFCURVE",
"171 307 CURVE",
"152 306 LINE",
"146 285 LINE",
"155 285 OFFCURVE",
"228 270 OFFCURVE",
"299 279 CURVE",
"264 293 LINE",
"381 -7 LINE",
"514 -1 LINE",
"516 13 LINE",
"408 47 LINE",
"439 13 LINE",
"319 307 LINE",
"317 283 LINE",
"420 317 OFFCURVE",
"484 374 OFFCURVE",
"498 460 CURVE SMOOTH",
"515 564 OFFCURVE",
"444 630 OFFCURVE",
"310 630 CURVE SMOOTH",
"197 630 OFFCURVE",
"123 630 OFFCURVE",
"87 633 CURVE",
"160 608 LINE",
"60 0 LINE"
);
},
{
closed = 1;
nodes = (
"88 25 LINE",
"99 0 LINE",
"197 -2 LINE",
"199 12 LINE",
"88 43 LINE"
);
},
{
closed = 1;
nodes = (
"-15 12 LINE",
"-13 -2 LINE",
"80 0 LINE",
"106 25 LINE",
"106 43 LINE"
);
},
{
closed = 1;
nodes = (
"190 604 LINE",
"159 627 LINE",
"87 633 LINE",
"85 619 LINE",
"190 581 LINE"
);
}
);
width = 551;
},
{
associatedMasterId = "97AFB7C9-FE9A-4B33-96EF-7CD144DFB325";
background = {
paths = (
{
closed = 1;
nodes = (
"122 0 LINE",
"223 612 LINE",
"204 603 LINE",
"232 609 OFFCURVE",
"252 610 OFFCURVE",
"298 610 CURVE SMOOTH",
"391 610 OFFCURVE",
"442 548 OFFCURVE",
"426 450 CURVE SMOOTH",
"409 345 OFFCURVE",
"330 301 OFFCURVE",
"239 301 CURVE SMOOTH",
"212 301 OFFCURVE",
"184 302 OFFCURVE",
"171 307 CURVE",
"152 306 LINE",
"146 285 LINE",
"155 285 OFFCURVE",
"228 270 OFFCURVE",
"299 279 CURVE",
"264 293 LINE",
"381 -7 LINE",
"514 -1 LINE",
"516 13 LINE",
"408 47 LINE",
"439 13 LINE",
"319 307 LINE",
"317 283 LINE",
"420 317 OFFCURVE",
"484 374 OFFCURVE",
"498 460 CURVE SMOOTH",
"515 564 OFFCURVE",
"444 630 OFFCURVE",
"310 630 CURVE SMOOTH",
"197 630 OFFCURVE",
"123 630 OFFCURVE",
"87 633 CURVE",
"160 608 LINE",
"60 0 LINE"
);
},
{
closed = 1;
nodes = (
"88 25 LINE",
"99 0 LINE",
"197 -2 LINE",
"199 12 LINE",
"88 43 LINE"
);
},
{
closed = 1;
nodes = (
"-15 12 LINE",
"-13 -2 LINE",
"80 0 LINE",
"106 25 LINE",
"106 43 LINE"
);
},
{
closed = 1;
nodes = (
"190 604 LINE",
"159 627 LINE",
"87 633 LINE",
"85 619 LINE",
"190 581 LINE"
);
}
);
};
layerId = "F7F9BECC-208D-4118-B69B-9B8233737EEA";
name = "Light Italic Aug 19 16, 23:22";
paths = (
{
closed = 1;
nodes = (
"122 0 LINE",
"223 623 LINE",
"204 611 LINE",
"232 617 OFFCURVE",
"252 617 OFFCURVE",
"288 617 CURVE SMOOTH",
"401 617 OFFCURVE",
"442 548 OFFCURVE",
"426 450 CURVE SMOOTH",
"409 345 OFFCURVE",
"330 301 OFFCURVE",
"239 301 CURVE SMOOTH",
"212 301 OFFCURVE",
"184 302 OFFCURVE",
"171 307 CURVE",
"152 306 LINE",
"146 285 LINE",
"155 285 OFFCURVE",
"228 270 OFFCURVE",
"299 279 CURVE",
"264 293 LINE",
"381 -7 LINE",
"514 -1 LINE",
"516 13 LINE",
"408 47 LINE",
"439 13 LINE",
"319 307 LINE",
"317 283 LINE",
"420 317 OFFCURVE",
"484 374 OFFCURVE",
"498 460 CURVE SMOOTH",
"515 564 OFFCURVE",
"444 637 OFFCURVE",
"300 637 CURVE SMOOTH",
"197 637 OFFCURVE",
"124 637 OFFCURVE",
"88 640 CURVE",
"161 615 LINE",
"60 0 LINE"
);
},
{
closed = 1;
nodes = (
"88 25 LINE",
"99 0 LINE",
"197 -2 LINE",
"199 12 LINE",
"88 43 LINE"
);
},
{
closed = 1;
nodes = (
"-15 12 LINE",
"-13 -2 LINE",
"80 0 LINE",
"106 25 LINE",
"106 43 LINE"
);
},
{
closed = 1;
nodes = (
"191 611 LINE",
"160 634 LINE",
"88 640 LINE",
"86 626 LINE",
"191 588 LINE"
);
}
);
width = 551;
},
{
associatedMasterId = "97AFB7C9-FE9A-4B33-96EF-7CD144DFB325";
background = {
paths = (
{
closed = 1;
nodes = (
"122 0 LINE",
"223 623 LINE",
"204 611 LINE",
"232 617 OFFCURVE",
"252 617 OFFCURVE",
"288 617 CURVE SMOOTH",
"401 617 OFFCURVE",
"443 550 OFFCURVE",
"430 460 CURVE SMOOTH",
"415 355 OFFCURVE",
"330 316 OFFCURVE",
"239 316 CURVE SMOOTH",
"212 316 OFFCURVE",
"184 319 OFFCURVE",
"171 324 CURVE",
"152 323 LINE",
"146 302 LINE",
"155 302 OFFCURVE",
"228 287 OFFCURVE",
"299 291 CURVE",
"259 310 LINE",
"391 -7 LINE",
"524 -1 LINE",
"526 13 LINE",
"418 47 LINE",
"449 13 LINE",
"314 324 LINE",
"317 297 LINE",
"410 313 OFFCURVE",
"484 384 OFFCURVE",
"496 470 CURVE SMOOTH",
"509 565 OFFCURVE",
"444 637 OFFCURVE",
"300 637 CURVE SMOOTH",
"197 637 OFFCURVE",
"124 637 OFFCURVE",
"88 640 CURVE",
"161 615 LINE",
"60 0 LINE"
);
},
{
closed = 1;
nodes = (
"88 25 LINE",
"99 0 LINE",
"200 -2 LINE",
"202 12 LINE",
"88 43 LINE"
);
},
{
closed = 1;
nodes = (
"-12 12 LINE",
"-10 -2 LINE",
"80 0 LINE",
"106 25 LINE",
"106 43 LINE"
);
},
{
closed = 1;
nodes = (
"191 611 LINE",
"160 634 LINE",
"88 640 LINE",
"86 626 LINE",
"191 588 LINE"
);
},
{
closed = 0;
nodes = (
"459 310 LINE",
"591 -7 LINE",
"724 -1 LINE",
"726 13 LINE",
"618 47 LINE",
"649 13 LINE",
"514 324 LINE"
);
}
);
};
layerId = "DD94826A-C2EF-426F-A172-2285BE732965";
name = "Light Italic Aug 20 16, 00:59";
paths = (
{
closed = 1;
nodes = (
"122 0 LINE",
"223 623 LINE",
"204 611 LINE",
"232 617 OFFCURVE",
"252 617 OFFCURVE",
"288 617 CURVE SMOOTH",
"401 617 OFFCURVE",
"443 550 OFFCURVE",
"430 460 CURVE SMOOTH",
"415 355 OFFCURVE",
"330 316 OFFCURVE",
"239 316 CURVE SMOOTH",
"212 316 OFFCURVE",
"184 319 OFFCURVE",
"171 324 CURVE",
"152 323 LINE",
"146 302 LINE",
"155 302 OFFCURVE",
"228 287 OFFCURVE",
"299 291 CURVE",
"259 310 LINE",
"391 -7 LINE",
"524 -1 LINE",
"526 13 LINE",
"418 47 LINE",
"449 13 LINE",
"314 324 LINE",
"317 297 LINE",
"410 313 OFFCURVE",
"484 384 OFFCURVE",
"496 470 CURVE SMOOTH",
"509 565 OFFCURVE",
"444 637 OFFCURVE",
"300 637 CURVE SMOOTH",
"197 637 OFFCURVE",
"124 637 OFFCURVE",
"88 640 CURVE",
"161 615 LINE",
"60 0 LINE"
);
},
{
closed = 1;
nodes = (
"88 25 LINE",
"99 0 LINE",
"200 -2 LINE",
"202 12 LINE",
"88 43 LINE"
);
},
{
closed = 1;
nodes = (
"-12 12 LINE",
"-10 -2 LINE",
"80 0 LINE",
"106 25 LINE",
"106 43 LINE"
);
},
{
closed = 1;
nodes = (
"191 611 LINE",
"160 634 LINE",
"88 640 LINE",
"86 626 LINE",
"191 588 LINE"
);
}
);
width = 551;
}
);
unicode = 0052;
},
{
glyphname = S;
lastChange = "2016-08-19 23:42:57 +0000";
layers = (
{
anchors = (
{
name = bottom;
position = "{199, 0}";
},
{
name = top;
position = "{303, 629}";
}
);
background = {
paths = (
{
closed = 1;
nodes = (
"128 18 OFFCURVE",
"73 76 OFFCURVE",
"55 95 CURVE",
"104 44 LINE",
"75 188 LINE",
"57 188 LINE",
"24 37 LINE",
"57 45 LINE",
"87 93 LINE",
"24 37 LINE",
"61 11 OFFCURVE",
"115 -8 OFFCURVE",
"204 -8 CURVE SMOOTH",
"332 -8 OFFCURVE",
"407 63 OFFCURVE",
"422 153 CURVE SMOOTH",
"451 329 OFFCURVE",
"120 352 OFFCURVE",
"146 513 CURVE SMOOTH",
"154 563 OFFCURVE",
"205 615 OFFCURVE",
"276 615 CURVE SMOOTH",
"351 615 OFFCURVE",
"401 579 OFFCURVE",
"427 558 CURVE",
"378 599 LINE",
"407 462 LINE",
"425 462 LINE",
"458 606 LINE",
"425 598 LINE",
"395 550 LINE",
"458 606 LINE",
"421 621 OFFCURVE",
"389 641 OFFCURVE",
"298 641 CURVE SMOOTH",
"166 641 OFFCURVE",
"96 557 OFFCURVE",
"83 478 CURVE SMOOTH",
"57 313 OFFCURVE",
"382 298 OFFCURVE",
"354 134 CURVE SMOOTH",
"341 59 OFFCURVE",
"283 18 OFFCURVE",
"211 18 CURVE SMOOTH"
);
}
);
};
layerId = "97AFB7C9-FE9A-4B33-96EF-7CD144DFB325";
name = "Light Italic";
paths = (
{
closed = 1;
nodes = (
"128 18 OFFCURVE",
"73 76 OFFCURVE",
"55 95 CURVE",
"100 44 LINE",
"74 184 LINE",
"56 184 LINE",
"24 37 LINE",
"57 45 LINE",
"87 93 LINE",
"24 37 LINE",
"61 11 OFFCURVE",
"115 -8 OFFCURVE",
"204 -8 CURVE SMOOTH",
"332 -8 OFFCURVE",
"406 63 OFFCURVE",
"421 148 CURVE SMOOTH",
"451 321 OFFCURVE",
"119 350 OFFCURVE",
"144 515 CURVE SMOOTH",
"152 565 OFFCURVE",
"205 615 OFFCURVE",
"276 615 CURVE SMOOTH",
"351 615 OFFCURVE",
"401 579 OFFCURVE",
"427 558 CURVE",
"383 599 LINE",
"407 463 LINE",
"425 463 LINE",
"458 606 LINE",
"425 598 LINE",
"395 550 LINE",
"458 606 LINE",
"421 621 OFFCURVE",
"389 641 OFFCURVE",
"298 641 CURVE SMOOTH",
"166 641 OFFCURVE",
"96 555 OFFCURVE",
"85 485 CURVE SMOOTH",
"59 319 OFFCURVE",
"386 281 OFFCURVE",
"359 134 CURVE SMOOTH",
"345 59 OFFCURVE",
"283 18 OFFCURVE",
"211 18 CURVE SMOOTH"
);
}
);
width = 471;
},
{
layerId = "EADDC163-A127-4E50-A035-005E723BF706";
name = "SemiBold Italic";
width = 600;
},
{
associatedMasterId = "97AFB7C9-FE9A-4B33-96EF-7CD144DFB325";
background = {
paths = (
{
closed = 1;
nodes = (
"5 -2 LINE",
"26 -1 LINE",
"55 35 LINE",
"93 12 OFFCURVE",
"148 -8 OFFCURVE",
"192 -8 CURVE SMOOTH",
"340 -8 OFFCURVE",
"413 60 OFFCURVE",
"429 160 CURVE SMOOTH",
"455 316 OFFCURVE",
"135 365 OFFCURVE",
"158 504 CURVE SMOOTH",
"168 569 OFFCURVE",
"223 610 OFFCURVE",
"282 610 CURVE SMOOTH",
"357 610 OFFCURVE",
"415 544 OFFCURVE",
"428 454 CURVE",
"448 454 LINE",
"478 636 LINE",
"457 635 LINE",
"431 587 LINE",
"413 605 OFFCURVE",
"356 635 OFFCURVE",
"298 635 CURVE SMOOTH",
"176 635 OFFCURVE",
"102 563 OFFCURVE",
"87 469 CURVE SMOOTH",
"60 307 OFFCURVE",
"378 275 OFFCURVE",
"352 121 CURVE SMOOTH",
"341 55 OFFCURVE",
"288 17 OFFCURVE",
"219 17 CURVE SMOOTH",
"137 17 OFFCURVE",
"76 73 OFFCURVE",
"58 200 CURVE",
"38 200 LINE"
);
},
{
closed = 0;
nodes = (
"457 635 LINE"
);
}
);
};
layerId = "72C28043-2266-482F-8025-581D12B0D57A";
name = "Light Italic Aug 19 16, 21:20";
paths = (
{
closed = 1;
nodes = (
"5 -2 LINE",
"26 -1 LINE",
"55 35 LINE",
"93 12 OFFCURVE",
"148 -8 OFFCURVE",
"192 -8 CURVE SMOOTH",
"340 -8 OFFCURVE",
"409 60 OFFCURVE",
"425 160 CURVE SMOOTH",
"451 316 OFFCURVE",
"131 365 OFFCURVE",
"154 504 CURVE SMOOTH",
"164 569 OFFCURVE",
"223 610 OFFCURVE",
"282 610 CURVE SMOOTH",
"357 610 OFFCURVE",
"415 544 OFFCURVE",
"428 454 CURVE",
"448 454 LINE",
"478 636 LINE",
"457 635 LINE",
"431 587 LINE",
"413 605 OFFCURVE",
"356 635 OFFCURVE",
"298 635 CURVE SMOOTH",
"176 635 OFFCURVE",
"106 563 OFFCURVE",
"91 469 CURVE SMOOTH",
"64 307 OFFCURVE",
"382 275 OFFCURVE",
"356 121 CURVE SMOOTH",
"345 55 OFFCURVE",
"288 17 OFFCURVE",
"219 17 CURVE SMOOTH",
"137 17 OFFCURVE",
"76 73 OFFCURVE",
"58 200 CURVE",
"38 200 LINE"
);
},
{
closed = 0;
nodes = (
"457 635 LINE"
);
}
);
width = 471;
}
);
unicode = 0053;
},
{
glyphname = T;
lastChange = "2016-08-19 22:38:24 +0000";
layers = (
{
background = {
paths = (
{
closed = 1;
nodes = (
"232 0 LINE",
"295 0 LINE",
"398 629 LINE",
"335 629 LINE"
);
},
{
closed = 1;
nodes = (
"261 25 LINE",
"292 0 LINE",
"371 -2 LINE",
"373 12 LINE",
"261 43 LINE"
);
},
{
closed = 1;
nodes = (
"156 12 LINE",
"158 -2 LINE",
"233 0 LINE",
"279 25 LINE",
"279 43 LINE"
);
},
{
closed = 1;
nodes = (
"619 497 LINE",
"644 646 LINE",
"630 646 LINE",
"590 623 LINE",
"592 615 LINE",
"607 497 LINE"
);
},
{
closed = 1;
nodes = (
"135 615 LINE",
"140 623 LINE",
"108 646 LINE",
"94 646 LINE",
"69 497 LINE",
"81 497 LINE"
);
},
{
closed = 1;
nodes = (
"81 497 LINE",
"123 591 OFFCURVE",
"133 605 OFFCURVE",
"183 605 CURVE SMOOTH",
"530 605 LINE SMOOTH",
"570 605 OFFCURVE",
"597 599 OFFCURVE",
"607 497 CURVE",
"615 629 LINE",
"98 629 LINE"
);
}
);
};
layerId = "97AFB7C9-FE9A-4B33-96EF-7CD144DFB325";
name = "Light Italic";
paths = (
{
closed = 1;
nodes = (
"261 25 LINE",
"292 0 LINE",
"372 -2 LINE",
"374 12 LINE",
"271 43 LINE"
);
},
{
closed = 1;
nodes = (
"155 12 LINE",
"157 -2 LINE",
"233 0 LINE",
"279 25 LINE",
"279 43 LINE"
);
},
{
closed = 1;
nodes = (
"232 0 LINE",
"295 0 LINE",
"397 622 LINE",
"334 622 LINE"
);
},
{
closed = 1;
nodes = (
"94 640 LINE",
"65 476 LINE",
"79 476 LINE",
"160 617 LINE",
"137 623 LINE",
"108 640 LINE"
);
},
{
closed = 1;
nodes = (
"591 623 LINE",
"568 617 LINE",
"592 476 LINE",
"606 476 LINE",
"634 640 LINE",
"620 640 LINE"
);
},
{
closed = 1;
nodes = (
"120 591 OFFCURVE",
"169 599 OFFCURVE",
"278 599 CURVE SMOOTH",
"450 599 LINE SMOOTH",
"512 599 OFFCURVE",
"570 590 OFFCURVE",
"599 583 CURVE",
"623 632 LINE",
"594 629 OFFCURVE",
"518 628 OFFCURVE",
"402 628 CURVE SMOOTH",
"316 628 LINE SMOOTH",
"213 628 OFFCURVE",
"134 629 OFFCURVE",
"105 632 CURVE",
"92 583 LINE"
);
}
);
width = 621;
},
{
associatedMasterId = "97AFB7C9-FE9A-4B33-96EF-7CD144DFB325";
layerId = "A367497E-F514-4B72-AD9F-A914F052618D";
name = "Light Italic Aug 4 16, 15:22";
paths = (
{
closed = 1;
nodes = (
"81 466 LINE",
"123 577 OFFCURVE",
"150 597 OFFCURVE",
"238 597 CURVE SMOOTH",
"267 597 OFFCURVE",
"458 597 OFFCURVE",
"487 597 CURVE SMOOTH",
"577 597 OFFCURVE",
"595 575 OFFCURVE",
"600 466 CURVE",
"632 471 LINE",
"634 530 OFFCURVE",
"641 600 OFFCURVE",
"642 617 CURVE",
"636 634 LINE",
"610 631 OFFCURVE",
"593 628 OFFCURVE",
"547 628 CURVE SMOOTH",
"198 628 LINE SMOOTH",
"142 628 OFFCURVE",
"122 631 OFFCURVE",
"101 634 CURVE",
"89 617 LINE",
"84 600 OFFCURVE",
"68 530 OFFCURVE",
"51 471 CURVE"
);
},
{
closed = 1;
nodes = (
"157 -2 LINE",
"167 -1 OFFCURVE",
"223 0 OFFCURVE",
"262 0 CURVE SMOOTH",
"303 0 OFFCURVE",
"359 -1 OFFCURVE",
"370 -2 CURVE",
"380 29 LINE",
"304 45 OFFCURVE",
"305 60 OFFCURVE",
"321 160 CURVE SMOOTH",
"394 601 LINE",
"330 601 LINE",
"237 43 LINE",
"157 28 LINE"
);
}
);
width = 621;
},
{
associatedMasterId = "97AFB7C9-FE9A-4B33-96EF-7CD144DFB325";
background = {
paths = (
{
closed = 1;
nodes = (
"81 466 LINE",
"123 577 OFFCURVE",
"150 597 OFFCURVE",
"238 597 CURVE SMOOTH",
"267 597 OFFCURVE",
"458 597 OFFCURVE",
"487 597 CURVE SMOOTH",
"577 597 OFFCURVE",
"595 575 OFFCURVE",
"600 466 CURVE",
"632 471 LINE",
"634 530 OFFCURVE",
"641 600 OFFCURVE",
"642 617 CURVE",
"636 634 LINE",
"610 631 OFFCURVE",
"593 628 OFFCURVE",
"547 628 CURVE SMOOTH",
"198 628 LINE SMOOTH",
"142 628 OFFCURVE",
"122 631 OFFCURVE",
"101 634 CURVE",
"89 617 LINE",
"84 600 OFFCURVE",
"68 530 OFFCURVE",
"51 471 CURVE"
);
},
{
closed = 1;
nodes = (
"157 -2 LINE",
"167 -1 OFFCURVE",
"223 0 OFFCURVE",
"262 0 CURVE SMOOTH",
"303 0 OFFCURVE",
"359 -1 OFFCURVE",
"370 -2 CURVE",
"380 29 LINE",
"304 45 OFFCURVE",
"305 60 OFFCURVE",
"321 160 CURVE SMOOTH",
"394 601 LINE",
"330 601 LINE",
"237 43 LINE",
"157 28 LINE"
);
}
);
};
layerId = "44C43FC2-8D1D-402F-8DDC-01E12D254CC6";
name = "Light Italic Aug 4 16, 15:23";
paths = (
{
closed = 1;
nodes = (
"81 467 LINE",
"123 578 OFFCURVE",
"150 604 OFFCURVE",
"238 604 CURVE SMOOTH",
"267 604 OFFCURVE",
"458 604 OFFCURVE",
"487 604 CURVE SMOOTH",
"577 604 OFFCURVE",
"595 576 OFFCURVE",
"600 467 CURVE",
"632 472 LINE",
"634 531 OFFCURVE",
"641 601 OFFCURVE",
"642 618 CURVE",
"636 635 LINE",
"610 632 OFFCURVE",
"593 629 OFFCURVE",
"547 629 CURVE SMOOTH",
"198 629 LINE SMOOTH",
"142 629 OFFCURVE",
"122 632 OFFCURVE",
"101 635 CURVE",
"89 618 LINE",
"84 601 OFFCURVE",
"68 531 OFFCURVE",
"51 472 CURVE"
);
},
{
closed = 1;
nodes = (
"232 0 LINE",
"295 0 LINE",
"398 629 LINE",
"335 629 LINE"
);
},
{
closed = 1;
nodes = (
"261 25 LINE",
"292 0 LINE",
"371 -2 LINE",
"373 12 LINE",
"261 43 LINE"
);
},
{
closed = 1;
nodes = (
"156 12 LINE",
"158 -2 LINE",
"233 0 LINE",
"279 25 LINE",
"279 43 LINE"
);
}
);
width = 621;
},
{
layerId = "EADDC163-A127-4E50-A035-005E723BF706";
name = "SemiBold Italic";
width = 600;
},
{
associatedMasterId = "97AFB7C9-FE9A-4B33-96EF-7CD144DFB325";
background = {
paths = (
{
closed = 1;
nodes = (
"232 0 LINE",
"295 0 LINE",
"398 629 LINE",
"335 629 LINE"
);
},
{
closed = 1;
nodes = (
"261 25 LINE",
"292 0 LINE",
"371 -2 LINE",
"373 12 LINE",
"261 43 LINE"
);
},
{
closed = 1;
nodes = (
"156 12 LINE",
"158 -2 LINE",
"233 0 LINE",
"279 25 LINE",
"279 43 LINE"
);
},
{
closed = 1;
nodes = (
"619 497 LINE",
"644 646 LINE",
"630 646 LINE",
"590 623 LINE",
"592 615 LINE",
"607 497 LINE"
);
},
{
closed = 1;
nodes = (
"135 615 LINE",
"140 623 LINE",
"108 646 LINE",
"94 646 LINE",
"69 497 LINE",
"81 497 LINE"
);
},
{
closed = 1;
nodes = (
"81 497 LINE",
"123 591 OFFCURVE",
"133 605 OFFCURVE",
"183 605 CURVE SMOOTH",
"530 605 LINE SMOOTH",
"570 605 OFFCURVE",
"597 599 OFFCURVE",
"607 497 CURVE",
"615 629 LINE",
"98 629 LINE"
);
}
);
};
layerId = "A4020DD1-EC05-464D-971A-F48D1BB4B0FD";
name = "Light Italic Aug 20 16, 00:10";
paths = (
{
closed = 1;
nodes = (
"232 0 LINE",
"295 0 LINE",
"398 629 LINE",
"335 629 LINE"
);
},
{
closed = 1;
nodes = (
"261 25 LINE",
"292 0 LINE",
"371 -2 LINE",
"373 12 LINE",
"261 43 LINE"
);
},
{
closed = 1;
nodes = (
"156 12 LINE",
"158 -2 LINE",
"233 0 LINE",
"279 25 LINE",
"279 43 LINE"
);
},
{
closed = 1;
nodes = (
"619 497 LINE",
"644 646 LINE",
"630 646 LINE",
"590 623 LINE",
"592 615 LINE",
"607 497 LINE"
);
},
{
closed = 1;
nodes = (
"135 615 LINE",
"140 623 LINE",
"108 646 LINE",
"94 646 LINE",
"69 497 LINE",
"81 497 LINE"
);
},
{
closed = 1;
nodes = (
"81 497 LINE",
"123 591 OFFCURVE",
"133 605 OFFCURVE",
"183 605 CURVE SMOOTH",
"530 605 LINE SMOOTH",
"570 605 OFFCURVE",
"597 599 OFFCURVE",
"607 497 CURVE",
"615 629 LINE",
"98 629 LINE"
);
}
);
width = 621;
}
);
unicode = 0054;
},
{
glyphname = U;
lastChange = "2016-08-19 23:45:59 +0000";
layers = (
{
anchors = (
{
name = bottom;
position = "{284, 0}";
},
{
name = ogonek;
position = "{439, 10}";
},
{
name = top;
position = "{388, 629}";
},
{
name = topright;
position = "{689, 629}";
}
);
background = {
paths = (
{
closed = 1;
nodes = (
"581 629 LINE",
"525 295 LINE SMOOTH",
"494 112 OFFCURVE",
"432 40 OFFCURVE",
"313 40 CURVE SMOOTH",
"183 40 OFFCURVE",
"143 112 OFFCURVE",
"174 295 CURVE SMOOTH",
"230 629 LINE",
"167 629 LINE",
"103 234 LINE SMOOTH",
"77 75 OFFCURVE",
"139 -6 OFFCURVE",
"285 -6 CURVE SMOOTH",
"433 -6 OFFCURVE",
"520 78 OFFCURVE",
"547 241 CURVE SMOOTH",
"612 629 LINE"
);
},
{
closed = 1;
nodes = (
"196 604 LINE",
"169 629 LINE",
"93 631 LINE",
"91 617 LINE",
"196 586 LINE"
);
},
{
closed = 1;
nodes = (
"305 617 LINE",
"303 631 LINE",
"228 629 LINE",
"178 604 LINE",
"178 586 LINE"
);
},
{
closed = 1;
nodes = (
"598 604 LINE",
"587 629 LINE",
"490 631 LINE",
"488 617 LINE",
"598 586 LINE"
);
},
{
closed = 1;
nodes = (
"681 617 LINE",
"679 631 LINE",
"606 629 LINE",
"580 604 LINE",
"580 586 LINE"
);
}
);
};
layerId = "97AFB7C9-FE9A-4B33-96EF-7CD144DFB325";
name = "Light Italic";
paths = (
{
closed = 1;
nodes = (
"577 629 LINE",
"521 295 LINE SMOOTH",
"490 112 OFFCURVE",
"428 40 OFFCURVE",
"313 40 CURVE SMOOTH",
"187 40 OFFCURVE",
"147 112 OFFCURVE",
"178 295 CURVE SMOOTH",
"234 629 LINE",
"171 629 LINE",
"107 234 LINE SMOOTH",
"81 75 OFFCURVE",
"143 -6 OFFCURVE",
"285 -6 CURVE SMOOTH",
"429 -6 OFFCURVE",
"516 78 OFFCURVE",
"543 241 CURVE SMOOTH",
"608 629 LINE"
);
},
{
closed = 1;
nodes = (
"200 604 LINE",
"173 629 LINE",
"97 631 LINE",
"95 617 LINE",
"200 586 LINE"
);
},
{
closed = 1;
nodes = (
"309 617 LINE",
"307 631 LINE",
"232 629 LINE",
"182 604 LINE",
"182 586 LINE"
);
},
{
closed = 1;
nodes = (
"594 604 LINE",
"583 629 LINE",
"486 631 LINE",
"484 617 LINE",
"594 586 LINE"
);
},
{
closed = 1;
nodes = (
"677 617 LINE",
"675 631 LINE",
"602 629 LINE",
"576 604 LINE",
"576 586 LINE"
);
}
);
width = 642;
},
{
associatedMasterId = "97AFB7C9-FE9A-4B33-96EF-7CD144DFB325";
background = {
paths = (
{
closed = 1;
nodes = (
"159 583 OFFCURVE",
"158 568 OFFCURVE",
"141 467 CURVE SMOOTH",
"103 234 LINE SMOOTH",
"77 76 OFFCURVE",
"139 -6 OFFCURVE",
"285 -6 CURVE SMOOTH",
"433 -6 OFFCURVE",
"525 79 OFFCURVE",
"551 241 CURVE SMOOTH",
"608 585 LINE",
"680 600 LINE",
"680 630 LINE",
"671 629 OFFCURVE",
"633 628 OFFCURVE",
"594 628 CURVE SMOOTH",
"554 628 OFFCURVE",
"500 629 OFFCURVE",
"490 630 CURVE",
"480 599 LINE",
"554 586 OFFCURVE",
"567 573 OFFCURVE",
"557 510 CURVE SMOOTH",
"521 295 LINE SMOOTH",
"491 113 OFFCURVE",
"432 40 OFFCURVE",
"313 40 CURVE SMOOTH",
"183 40 OFFCURVE",
"143 113 OFFCURVE",
"174 295 CURVE SMOOTH",
"223 585 LINE",
"320 600 LINE",
"320 630 LINE",
"312 629 OFFCURVE",
"237 628 OFFCURVE",
"201 628 CURVE SMOOTH",
"161 628 OFFCURVE",
"106 629 OFFCURVE",
"97 630 CURVE",
"86 599 LINE"
);
}
);
};
layerId = "961F0632-E2B9-4D8E-B431-092F272F7E49";
name = "Light Italic Aug 4 16, 15:16";
paths = (
{
closed = 1;
nodes = (
"159 583 OFFCURVE",
"158 568 OFFCURVE",
"141 467 CURVE SMOOTH",
"103 234 LINE SMOOTH",
"77 76 OFFCURVE",
"139 -6 OFFCURVE",
"285 -6 CURVE SMOOTH",
"433 -6 OFFCURVE",
"525 79 OFFCURVE",
"551 241 CURVE SMOOTH",
"608 585 LINE",
"680 600 LINE",
"680 630 LINE",
"671 629 OFFCURVE",
"633 628 OFFCURVE",
"594 628 CURVE SMOOTH",
"554 628 OFFCURVE",
"500 629 OFFCURVE",
"490 630 CURVE",
"480 599 LINE",
"554 586 OFFCURVE",
"567 573 OFFCURVE",
"557 510 CURVE SMOOTH",
"521 295 LINE SMOOTH",
"491 113 OFFCURVE",
"432 40 OFFCURVE",
"313 40 CURVE SMOOTH",
"183 40 OFFCURVE",
"143 113 OFFCURVE",
"174 295 CURVE SMOOTH",
"223 585 LINE",
"320 600 LINE",
"320 630 LINE",
"312 629 OFFCURVE",
"237 628 OFFCURVE",
"201 628 CURVE SMOOTH",
"161 628 OFFCURVE",
"106 629 OFFCURVE",
"97 630 CURVE",
"86 599 LINE"
);
}
);
width = 648;
},
{
layerId = "EADDC163-A127-4E50-A035-005E723BF706";
name = "SemiBold Italic";
width = 600;
},
{
associatedMasterId = "97AFB7C9-FE9A-4B33-96EF-7CD144DFB325";
background = {
paths = (
{
closed = 1;
nodes = (
"577 629 LINE",
"521 295 LINE SMOOTH",
"490 112 OFFCURVE",
"432 40 OFFCURVE",
"313 40 CURVE SMOOTH",
"183 40 OFFCURVE",
"143 112 OFFCURVE",
"174 295 CURVE SMOOTH",
"230 629 LINE",
"167 629 LINE",
"103 234 LINE SMOOTH",
"77 75 OFFCURVE",
"139 -6 OFFCURVE",
"285 -6 CURVE SMOOTH",
"433 -6 OFFCURVE",
"524 78 OFFCURVE",
"551 241 CURVE SMOOTH",
"616 629 LINE"
);
},
{
closed = 1;
nodes = (
"200 604 LINE",
"169 629 LINE",
"93 631 LINE",
"91 617 LINE",
"200 586 LINE"
);
},
{
closed = 1;
nodes = (
"314 617 LINE",
"312 631 LINE",
"228 629 LINE",
"182 604 LINE",
"182 586 LINE"
);
},
{
closed = 1;
nodes = (
"598 604 LINE",
"587 629 LINE",
"490 631 LINE",
"488 617 LINE",
"598 586 LINE"
);
},
{
closed = 1;
nodes = (
"681 617 LINE",
"679 631 LINE",
"606 629 LINE",
"580 604 LINE",
"580 586 LINE"
);
}
);
};
layerId = "A9F6BB56-87CB-4AA3-A1D9-A0D5A461B679";
name = "Light Italic Aug 20 16, 00:34";
paths = (
{
closed = 1;
nodes = (
"581 629 LINE",
"525 295 LINE SMOOTH",
"494 112 OFFCURVE",
"432 40 OFFCURVE",
"313 40 CURVE SMOOTH",
"183 40 OFFCURVE",
"143 112 OFFCURVE",
"174 295 CURVE SMOOTH",
"230 629 LINE",
"167 629 LINE",
"103 234 LINE SMOOTH",
"77 75 OFFCURVE",
"139 -6 OFFCURVE",
"285 -6 CURVE SMOOTH",
"433 -6 OFFCURVE",
"520 78 OFFCURVE",
"547 241 CURVE SMOOTH",
"612 629 LINE"
);
},
{
closed = 1;
nodes = (
"200 604 LINE",
"169 629 LINE",
"93 631 LINE",
"91 617 LINE",
"200 586 LINE"
);
},
{
closed = 1;
nodes = (
"309 617 LINE",
"307 631 LINE",
"228 629 LINE",
"182 604 LINE",
"182 586 LINE"
);
},
{
closed = 1;
nodes = (
"598 604 LINE",
"587 629 LINE",
"490 631 LINE",
"488 617 LINE",
"598 586 LINE"
);
},
{
closed = 1;
nodes = (
"681 617 LINE",
"679 631 LINE",
"606 629 LINE",
"580 604 LINE",
"580 586 LINE"
);
}
);
width = 648;
},
{
associatedMasterId = "97AFB7C9-FE9A-4B33-96EF-7CD144DFB325";
background = {
paths = (
{
closed = 1;
nodes = (
"577 629 LINE",
"521 295 LINE SMOOTH",
"490 112 OFFCURVE",
"432 40 OFFCURVE",
"313 40 CURVE SMOOTH",
"183 40 OFFCURVE",
"143 112 OFFCURVE",
"174 295 CURVE SMOOTH",
"230 629 LINE",
"167 629 LINE",
"103 234 LINE SMOOTH",
"77 75 OFFCURVE",
"139 -6 OFFCURVE",
"285 -6 CURVE SMOOTH",
"433 -6 OFFCURVE",
"524 78 OFFCURVE",
"551 241 CURVE SMOOTH",
"616 629 LINE"
);
},
{
closed = 1;
nodes = (
"200 604 LINE",
"169 629 LINE",
"93 631 LINE",
"91 617 LINE",
"200 586 LINE"
);
},
{
closed = 1;
nodes = (
"314 617 LINE",
"312 631 LINE",
"228 629 LINE",
"182 604 LINE",
"182 586 LINE"
);
},
{
closed = 1;
nodes = (
"598 604 LINE",
"587 629 LINE",
"490 631 LINE",
"488 617 LINE",
"598 586 LINE"
);
},
{
closed = 1;
nodes = (
"681 617 LINE",
"679 631 LINE",
"606 629 LINE",
"580 604 LINE",
"580 586 LINE"
);
}
);
};
layerId = "C3E38C3D-F9D6-43CE-AABE-5E170A911AFA";
name = "Light Italic Aug 20 16, 01:05";
paths = (
{
closed = 1;
nodes = (
"581 629 LINE",
"525 295 LINE SMOOTH",
"494 112 OFFCURVE",
"432 40 OFFCURVE",
"313 40 CURVE SMOOTH",
"183 40 OFFCURVE",
"143 112 OFFCURVE",
"174 295 CURVE SMOOTH",
"230 629 LINE",
"167 629 LINE",
"103 234 LINE SMOOTH",
"77 75 OFFCURVE",
"139 -6 OFFCURVE",
"285 -6 CURVE SMOOTH",
"433 -6 OFFCURVE",
"520 78 OFFCURVE",
"547 241 CURVE SMOOTH",
"612 629 LINE"
);
},
{
closed = 1;
nodes = (
"196 604 LINE",
"169 629 LINE",
"93 631 LINE",
"91 617 LINE",
"196 586 LINE"
);
},
{
closed = 1;
nodes = (
"305 617 LINE",
"303 631 LINE",
"228 629 LINE",
"178 604 LINE",
"178 586 LINE"
);
},
{
closed = 1;
nodes = (
"598 604 LINE",
"587 629 LINE",
"490 631 LINE",
"488 617 LINE",
"598 586 LINE"
);
},
{
closed = 1;
nodes = (
"681 617 LINE",
"679 631 LINE",
"606 629 LINE",
"580 604 LINE",
"580 586 LINE"
);
}
);
width = 648;
}
);
unicode = 0055;
},
{
glyphname = V;
lastChange = "2016-08-19 23:06:00 +0000";
layers = (
{
background = {
paths = (
{
closed = 1;
nodes = (
"206 632 LINE",
"162 629 LINE",
"151 612 LINE",
"258 -7 LINE",
"311 28 LINE"
);
},
{
closed = 1;
nodes = (
"677 617 LINE",
"675 631 LINE",
"584 629 LINE",
"547 632 LINE",
"542 604 LINE",
"538 576 LINE"
);
},
{
closed = 1;
nodes = (
"304 14 LINE",
"606 629 LINE",
"584 629 LINE",
"547 632 LINE",
"290 38 LINE",
"258 -7 LINE"
);
},
{
closed = 1;
nodes = (
"205 604 LINE",
"206 632 LINE",
"162 629 LINE",
"74 631 LINE",
"72 617 LINE",
"208 576 LINE"
);
}
);
};
layerId = "97AFB7C9-FE9A-4B33-96EF-7CD144DFB325";
name = "Light Italic";
paths = (
{
closed = 1;
nodes = (
"206 632 LINE",
"162 629 LINE",
"151 612 LINE",
"262 -7 LINE",
"315 28 LINE"
);
},
{
closed = 1;
nodes = (
"677 617 LINE",
"675 631 LINE",
"584 629 LINE",
"547 632 LINE",
"542 604 LINE",
"538 576 LINE"
);
},
{
closed = 1;
nodes = (
"308 10 LINE",
"606 629 LINE",
"584 629 LINE",
"547 632 LINE",
"294 38 LINE",
"262 -7 LINE"
);
},
{
closed = 1;
nodes = (
"205 604 LINE",
"206 632 LINE",
"162 629 LINE",
"74 631 LINE",
"72 617 LINE",
"208 576 LINE"
);
}
);
width = 632;
},
{
layerId = "EADDC163-A127-4E50-A035-005E723BF706";
name = "SemiBold Italic";
width = 600;
},
{
associatedMasterId = "97AFB7C9-FE9A-4B33-96EF-7CD144DFB325";
background = {
paths = (
{
closed = 1;
nodes = (
"570 629 LINE",
"298 54 LINE",
"315 54 LINE",
"194 629 LINE",
"119 629 LINE",
"257 -8 LINE",
"307 -1 LINE",
"611 628 LINE"
);
},
{
closed = 1;
nodes = (
"171 604 LINE",
"130 629 LINE",
"63 631 LINE",
"61 617 LINE",
"171 586 LINE"
);
},
{
closed = 1;
nodes = (
"285 617 LINE",
"283 631 LINE",
"189 629 LINE",
"153 604 LINE",
"153 586 LINE"
);
},
{
closed = 1;
nodes = (
"583 604 LINE",
"579 629 LINE",
"459 631 LINE",
"457 617 LINE",
"583 586 LINE"
);
},
{
closed = 1;
nodes = (
"668 617 LINE",
"666 631 LINE",
"597 629 LINE",
"565 604 LINE",
"565 586 LINE"
);
}
);
};
layerId = "5195B43B-ED47-43DF-A24F-640817A7A37A";
name = "Light Italic Aug 20 16, 00:38";
paths = (
{
closed = 1;
nodes = (
"573 629 LINE",
"301 54 LINE",
"315 54 LINE",
"194 629 LINE",
"119 629 LINE",
"257 -8 LINE",
"305 -1 LINE",
"609 628 LINE"
);
},
{
closed = 1;
nodes = (
"171 604 LINE",
"130 629 LINE",
"63 631 LINE",
"61 617 LINE",
"171 586 LINE"
);
},
{
closed = 1;
nodes = (
"285 617 LINE",
"283 631 LINE",
"189 629 LINE",
"153 604 LINE",
"153 586 LINE"
);
},
{
closed = 1;
nodes = (
"583 604 LINE",
"579 629 LINE",
"459 631 LINE",
"457 617 LINE",
"583 586 LINE"
);
},
{
closed = 1;
nodes = (
"668 617 LINE",
"666 631 LINE",
"597 629 LINE",
"565 604 LINE",
"565 586 LINE"
);
}
);
width = 635;
}
);
unicode = 0056;
},
{
glyphname = W;
lastChange = "2016-08-19 23:45:10 +0000";
layers = (
{
anchors = (
{
name = bottom;
position = "{366, 0}";
},
{
name = top;
position = "{463, 629}";
}
);
background = {
paths = (
{
closed = 1;
nodes = (
"110 629 LINE",
"222 -8 LINE",
"268 -1 LINE",
"542 528 LINE",
"514 543 LINE",
"264 54 LINE",
"280 54 LINE",
"186 629 LINE"
);
},
{
closed = 1;
nodes = (
"913 629 LINE",
"625 54 LINE",
"641 54 LINE",
"558 629 LINE",
"480 629 LINE",
"583 -8 LINE",
"630 -1 LINE",
"948 629 LINE"
);
},
{
closed = 1;
nodes = (
"151 604 LINE",
"120 629 LINE",
"52 631 LINE",
"50 617 LINE",
"151 586 LINE"
);
},
{
closed = 1;
nodes = (
"268 617 LINE",
"266 631 LINE",
"179 629 LINE",
"133 604 LINE",
"133 586 LINE"
);
},
{
closed = 1;
nodes = (
"522 604 LINE",
"528 629 LINE",
"422 631 LINE",
"420 617 LINE",
"522 586 LINE"
);
},
{
closed = 1;
nodes = (
"648 617 LINE",
"646 631 LINE",
"546 629 LINE",
"504 604 LINE",
"504 586 LINE"
);
},
{
closed = 1;
nodes = (
"925 604 LINE",
"921 629 LINE",
"801 631 LINE",
"799 617 LINE",
"925 586 LINE"
);
},
{
closed = 1;
nodes = (
"1010 617 LINE",
"1008 631 LINE",
"939 629 LINE",
"907 604 LINE",
"907 586 LINE"
);
}
);
};
layerId = "97AFB7C9-FE9A-4B33-96EF-7CD144DFB325";
name = "Light Italic";
paths = (
{
closed = 1;
nodes = (
"169 632 LINE",
"125 629 LINE",
"114 612 LINE",
"225 -7 LINE",
"278 28 LINE"
);
},
{
closed = 1;
nodes = (
"650 617 LINE",
"648 631 LINE",
"557 629 LINE",
"520 632 LINE",
"515 604 LINE",
"511 576 LINE"
);
},
{
closed = 1;
nodes = (
"271 14 LINE",
"579 629 LINE",
"557 629 LINE",
"520 632 LINE",
"257 38 LINE",
"225 -7 LINE"
);
},
{
closed = 1;
nodes = (
"168 604 LINE",
"169 632 LINE",
"125 629 LINE",
"37 631 LINE",
"35 617 LINE",
"171 576 LINE"
);
},
{
closed = 1;
nodes = (
"419 632 LINE",
"375 629 LINE",
"364 612 LINE",
"485 -7 LINE",
"538 28 LINE"
);
},
{
closed = 1;
nodes = (
"900 617 LINE",
"898 631 LINE",
"807 629 LINE",
"770 632 LINE",
"765 604 LINE",
"761 576 LINE"
);
},
{
closed = 1;
nodes = (
"531 14 LINE",
"829 629 LINE",
"807 629 LINE",
"770 632 LINE",
"517 38 LINE",
"485 -7 LINE"
);
},
{
closed = 1;
nodes = (
"418 604 LINE",
"419 632 LINE",
"375 629 LINE",
"287 631 LINE",
"285 617 LINE",
"421 576 LINE"
);
}
);
width = 805;
},
{
associatedMasterId = "97AFB7C9-FE9A-4B33-96EF-7CD144DFB325";
background = {
paths = (
{
closed = 1;
nodes = (
"119 589 OFFCURVE",
"144 577 OFFCURVE",
"154 516 CURVE SMOOTH",
"247 -8 LINE",
"263 -7 OFFCURVE",
"284 -5 OFFCURVE",
"299 -1 CURVE",
"573 528 LINE",
"540 543 LINE",
"290 54 LINE",
"308 54 LINE",
"221 585 LINE",
"295 600 LINE",
"295 630 LINE",
"288 629 OFFCURVE",
"227 628 OFFCURVE",
"189 628 CURVE SMOOTH",
"151 628 OFFCURVE",
"99 630 OFFCURVE",
"82 631 CURVE",
"72 602 LINE"
);
},
{
closed = 1;
nodes = (
"499 590 OFFCURVE",
"527 578 OFFCURVE",
"536 525 CURVE SMOOTH",
"627 -8 LINE",
"643 -7 OFFCURVE",
"664 -5 OFFCURVE",
"680 -1 CURVE",
"980 585 LINE",
"1055 600 LINE",
"1055 630 LINE",
"1047 629 OFFCURVE",
"1007 628 OFFCURVE",
"961 628 CURVE SMOOTH",
"916 628 OFFCURVE",
"861 630 OFFCURVE",
"851 631 CURVE",
"840 601 LINE",
"909 585 OFFCURVE",
"933 571 OFFCURVE",
"897 499 CURVE SMOOTH",
"671 54 LINE",
"688 54 LINE",
"605 585 LINE",
"688 600 LINE",
"688 630 LINE",
"679 629 OFFCURVE",
"613 628 OFFCURVE",
"571 628 CURVE SMOOTH",
"532 628 OFFCURVE",
"479 630 OFFCURVE",
"465 631 CURVE",
"455 602 LINE"
);
}
);
};
layerId = "91F049AE-CEA8-448E-912F-F4C528C495C7";
name = "Light Italic Aug 4 16, 15:53";
paths = (
{
closed = 1;
nodes = (
"119 589 OFFCURVE",
"144 577 OFFCURVE",
"154 516 CURVE SMOOTH",
"247 -8 LINE",
"263 -7 OFFCURVE",
"284 -5 OFFCURVE",
"299 -1 CURVE",
"573 528 LINE",
"540 543 LINE",
"290 54 LINE",
"308 54 LINE",
"221 585 LINE",
"295 600 LINE",
"295 630 LINE",
"288 629 OFFCURVE",
"227 628 OFFCURVE",
"189 628 CURVE SMOOTH",
"151 628 OFFCURVE",
"99 630 OFFCURVE",
"82 631 CURVE",
"72 602 LINE"
);
},
{
closed = 1;
nodes = (
"499 590 OFFCURVE",
"527 578 OFFCURVE",
"536 525 CURVE SMOOTH",
"627 -8 LINE",
"643 -7 OFFCURVE",
"664 -5 OFFCURVE",
"680 -1 CURVE",
"980 585 LINE",
"1055 600 LINE",
"1055 630 LINE",
"1047 629 OFFCURVE",
"1007 628 OFFCURVE",
"961 628 CURVE SMOOTH",
"916 628 OFFCURVE",
"861 630 OFFCURVE",
"851 631 CURVE",
"840 601 LINE",
"909 585 OFFCURVE",
"933 571 OFFCURVE",
"897 499 CURVE SMOOTH",
"671 54 LINE",
"688 54 LINE",
"605 585 LINE",
"688 600 LINE",
"688 630 LINE",
"679 629 OFFCURVE",
"613 628 OFFCURVE",
"571 628 CURVE SMOOTH",
"532 628 OFFCURVE",
"479 630 OFFCURVE",
"465 631 CURVE",
"455 602 LINE"
);
}
);
width = 1003;
},
{
layerId = "EADDC163-A127-4E50-A035-005E723BF706";
name = "SemiBold Italic";
width = 600;
},
{
associatedMasterId = "97AFB7C9-FE9A-4B33-96EF-7CD144DFB325";
background = {
paths = (
{
closed = 1;
nodes = (
"135 629 LINE",
"247 -8 LINE",
"263 -7 OFFCURVE",
"284 -5 OFFCURVE",
"299 -1 CURVE",
"573 528 LINE",
"540 543 LINE",
"290 54 LINE",
"308 54 LINE",
"214 629 LINE"
);
},
{
closed = 1;
nodes = (
"943 629 LINE",
"655 54 LINE",
"672 54 LINE",
"589 629 LINE",
"508 629 LINE",
"611 -8 LINE",
"627 -7 OFFCURVE",
"648 -5 OFFCURVE",
"664 -1 CURVE",
"982 629 LINE"
);
},
{
closed = 1;
nodes = (
"179 604 LINE",
"148 629 LINE",
"80 631 LINE",
"78 617 LINE",
"179 586 LINE"
);
},
{
closed = 1;
nodes = (
"296 617 LINE",
"294 631 LINE",
"207 629 LINE",
"161 604 LINE",
"161 586 LINE"
);
},
{
closed = 1;
nodes = (
"553 604 LINE",
"559 629 LINE",
"453 631 LINE",
"451 617 LINE",
"553 586 LINE"
);
},
{
closed = 1;
nodes = (
"679 617 LINE",
"677 631 LINE",
"577 629 LINE",
"535 604 LINE",
"535 586 LINE"
);
},
{
closed = 1;
nodes = (
"953 604 LINE",
"949 629 LINE",
"829 631 LINE",
"827 617 LINE",
"953 586 LINE"
);
},
{
closed = 1;
nodes = (
"1038 617 LINE",
"1036 631 LINE",
"967 629 LINE",
"935 604 LINE",
"935 586 LINE"
);
}
);
};
layerId = "E6C07781-A03B-4449-BA5B-107676FCE6BC";
name = "Light Italic Aug 20 16, 00:48";
paths = (
{
closed = 1;
nodes = (
"138 629 LINE",
"250 -8 LINE",
"296 -1 LINE",
"570 528 LINE",
"542 543 LINE",
"292 54 LINE",
"308 54 LINE",
"214 629 LINE"
);
},
{
closed = 1;
nodes = (
"941 629 LINE",
"653 54 LINE",
"669 54 LINE",
"586 629 LINE",
"508 629 LINE",
"611 -8 LINE",
"658 -1 LINE",
"976 629 LINE"
);
},
{
closed = 1;
nodes = (
"179 604 LINE",
"148 629 LINE",
"80 631 LINE",
"78 617 LINE",
"179 586 LINE"
);
},
{
closed = 1;
nodes = (
"296 617 LINE",
"294 631 LINE",
"207 629 LINE",
"161 604 LINE",
"161 586 LINE"
);
},
{
closed = 1;
nodes = (
"550 604 LINE",
"556 629 LINE",
"450 631 LINE",
"448 617 LINE",
"550 586 LINE"
);
},
{
closed = 1;
nodes = (
"676 617 LINE",
"674 631 LINE",
"574 629 LINE",
"532 604 LINE",
"532 586 LINE"
);
},
{
closed = 1;
nodes = (
"953 604 LINE",
"949 629 LINE",
"829 631 LINE",
"827 617 LINE",
"953 586 LINE"
);
},
{
closed = 1;
nodes = (
"1038 617 LINE",
"1036 631 LINE",
"967 629 LINE",
"935 604 LINE",
"935 586 LINE"
);
}
);
width = 993;
}
);
unicode = 0057;
},
{
glyphname = X;
lastChange = "2016-08-19 23:11:40 +0000";
layers = (
{
background = {
paths = (
{
closed = 1;
nodes = (
"484 4 LINE",
"231 611 LINE SMOOTH",
"223 631 OFFCURVE",
"206 633 OFFCURVE",
"189 632 CURVE SMOOTH",
"88 627 LINE",
"86 613 LINE",
"219 577 LINE",
"163 617 LINE",
"423 -6 LINE",
"470 -3 LINE"
);
},
{
closed = 1;
nodes = (
"414 22 LINE",
"423 -6 LINE",
"470 -3 LINE",
"558 -5 LINE",
"560 9 LINE",
"424 50 LINE"
);
}
);
};
layerId = "97AFB7C9-FE9A-4B33-96EF-7CD144DFB325";
name = "Light Italic";
paths = (
{
closed = 1;
nodes = (
"161 622 LINE",
"423 -6 LINE",
"470 -3 LINE",
"482 9 LINE",
"222 632 LINE",
"175 629 LINE"
);
},
{
closed = 1;
nodes = (
"645 617 LINE",
"643 631 LINE",
"552 629 LINE",
"515 632 LINE",
"500 604 LINE",
"506 576 LINE"
);
},
{
closed = 1;
nodes = (
"-3 12 LINE",
"-1 -2 LINE",
"90 0 LINE",
"127 -3 LINE",
"142 25 LINE",
"136 53 LINE"
);
},
{
closed = 1;
nodes = (
"90 0 LINE",
"127 -3 LINE",
"340 332 LINE",
"579 629 LINE",
"552 629 LINE",
"515 632 LINE",
"299 310 LINE",
"63 0 LINE"
);
},
{
closed = 1;
nodes = (
"231 604 LINE",
"222 632 LINE",
"175 629 LINE",
"87 631 LINE",
"85 617 LINE",
"221 576 LINE"
);
},
{
closed = 1;
nodes = (
"414 22 LINE",
"423 -6 LINE",
"470 -3 LINE",
"558 -5 LINE",
"560 9 LINE",
"424 50 LINE"
);
}
);
width = 603;
},
{
layerId = "EADDC163-A127-4E50-A035-005E723BF706";
name = "SemiBold Italic";
width = 600;
},
{
associatedMasterId = "97AFB7C9-FE9A-4B33-96EF-7CD144DFB325";
background = {
paths = (
{
closed = 1;
nodes = (
"75 0 LINE",
"599 629 LINE",
"554 629 LINE",
"29 0 LINE"
);
},
{
closed = 1;
nodes = (
"506 0 LINE",
"220 629 LINE",
"139 629 LINE",
"425 0 LINE"
);
},
{
closed = 1;
nodes = (
"207 604 LINE",
"176 629 LINE",
"92 631 LINE",
"90 617 LINE",
"207 586 LINE"
);
},
{
closed = 1;
nodes = (
"304 617 LINE",
"302 631 LINE",
"195 629 LINE",
"189 604 LINE",
"189 586 LINE"
);
},
{
closed = 1;
nodes = (
"557 604 LINE",
"576 629 LINE",
"444 631 LINE",
"442 617 LINE",
"539 591 LINE"
);
},
{
closed = 1;
nodes = (
"640 617 LINE",
"638 631 LINE",
"565 629 LINE",
"539 604 LINE",
"539 586 LINE"
);
},
{
closed = 1;
nodes = (
"451 25 LINE",
"472 0 LINE",
"552 -2 LINE",
"554 12 LINE",
"451 43 LINE"
);
},
{
closed = 1;
nodes = (
"336 12 LINE",
"338 -2 LINE",
"453 0 LINE",
"469 25 LINE",
"469 43 LINE"
);
},
{
closed = 1;
nodes = (
"52 15 LINE",
"71 0 LINE",
"188 -2 LINE",
"190 12 LINE",
"72 35 LINE"
);
},
{
closed = 1;
nodes = (
"-13 12 LINE",
"-11 -2 LINE",
"52 0 LINE",
"88 25 LINE",
"88 43 LINE"
);
}
);
};
layerId = "A3699F5E-6AEE-4217-A7B3-718D043CCA0B";
name = "Light Italic Aug 19 16, 22:44";
paths = (
{
closed = 1;
nodes = (
"72 0 LINE",
"596 629 LINE",
"558 629 LINE",
"33 0 LINE"
);
},
{
closed = 1;
nodes = (
"506 0 LINE",
"220 629 LINE",
"139 629 LINE",
"425 0 LINE"
);
},
{
closed = 1;
nodes = (
"207 604 LINE",
"176 629 LINE",
"92 631 LINE",
"90 617 LINE",
"207 586 LINE"
);
},
{
closed = 1;
nodes = (
"304 617 LINE",
"302 631 LINE",
"195 629 LINE",
"189 604 LINE",
"189 586 LINE"
);
},
{
closed = 1;
nodes = (
"557 604 LINE",
"576 629 LINE",
"444 631 LINE",
"442 617 LINE",
"539 591 LINE"
);
},
{
closed = 1;
nodes = (
"640 617 LINE",
"638 631 LINE",
"569 629 LINE",
"542 604 LINE",
"539 586 LINE"
);
},
{
closed = 1;
nodes = (
"451 25 LINE",
"472 0 LINE",
"552 -2 LINE",
"554 12 LINE",
"451 43 LINE"
);
},
{
closed = 1;
nodes = (
"336 12 LINE",
"338 -2 LINE",
"453 0 LINE",
"469 25 LINE",
"469 43 LINE"
);
},
{
closed = 1;
nodes = (
"52 15 LINE",
"68 0 LINE",
"188 -2 LINE",
"190 12 LINE",
"72 35 LINE"
);
},
{
closed = 1;
nodes = (
"-13 12 LINE",
"-11 -2 LINE",
"52 0 LINE",
"88 25 LINE",
"88 43 LINE"
);
}
);
width = 603;
},
{
associatedMasterId = "97AFB7C9-FE9A-4B33-96EF-7CD144DFB325";
background = {
paths = (
{
closed = 1;
nodes = (
"178 591 LINE",
"412 15 LINE",
"421 -5 OFFCURVE",
"436 -7 OFFCURVE",
"453 -6 CURVE SMOOTH",
"554 -1 LINE",
"556 13 LINE",
"466 37 LINE",
"232 613 LINE",
"223 633 OFFCURVE",
"208 635 OFFCURVE",
"191 634 CURVE SMOOTH",
"90 629 LINE",
"88 615 LINE"
);
},
{
closed = 1;
nodes = (
"645 617 LINE",
"643 631 LINE",
"552 629 LINE",
"515 632 LINE",
"500 604 LINE",
"506 576 LINE"
);
},
{
closed = 1;
nodes = (
"310 274 LINE",
"579 629 LINE",
"552 629 LINE",
"515 632 LINE",
"278 267 LINE"
);
},
{
closed = 1;
nodes = (
"-3 12 LINE",
"-1 -2 LINE",
"90 0 LINE",
"127 -3 LINE",
"142 25 LINE",
"136 53 LINE"
);
},
{
closed = 1;
nodes = (
"349 365 LINE",
"63 0 LINE",
"90 0 LINE",
"127 -3 LINE",
"381 372 LINE"
);
}
);
};
layerId = "7E670858-BC7E-4B7C-8CC4-6592979B4763";
name = "Light Italic Aug 19 16, 22:51";
paths = (
{
closed = 1;
nodes = (
"178 591 LINE",
"412 15 LINE",
"421 -5 OFFCURVE",
"436 -7 OFFCURVE",
"453 -6 CURVE SMOOTH",
"554 -1 LINE",
"556 13 LINE",
"466 37 LINE",
"232 613 LINE",
"223 633 OFFCURVE",
"208 635 OFFCURVE",
"191 634 CURVE SMOOTH",
"90 629 LINE",
"88 615 LINE"
);
},
{
closed = 1;
nodes = (
"645 617 LINE",
"643 631 LINE",
"552 629 LINE",
"515 632 LINE",
"500 604 LINE",
"506 576 LINE"
);
},
{
closed = 1;
nodes = (
"310 274 LINE",
"579 629 LINE",
"552 629 LINE",
"515 632 LINE",
"278 267 LINE"
);
},
{
closed = 1;
nodes = (
"-3 12 LINE",
"-1 -2 LINE",
"90 0 LINE",
"127 -3 LINE",
"142 25 LINE",
"136 53 LINE"
);
},
{
closed = 1;
nodes = (
"349 365 LINE",
"63 0 LINE",
"90 0 LINE",
"127 -3 LINE",
"381 372 LINE"
);
}
);
width = 603;
}
);
unicode = 0058;
},
{
glyphname = Y;
lastChange = "2016-08-19 23:45:13 +0000";
layers = (
{
anchors = (
{
name = bottom;
position = "{252, 0}";
},
{
name = top;
position = "{346, 629}";
},
{
name = topleft;
position = "{87, 629}";
}
);
background = {
paths = (
{
closed = 1;
nodes = (
"205 604 LINE",
"190 632 LINE",
"153 629 LINE",
"62 631 LINE",
"60 617 LINE",
"199 576 LINE"
);
},
{
closed = 1;
nodes = (
"190 632 LINE",
"153 629 LINE",
"126 629 LINE",
"392 244 LINE",
"424 237 LINE"
);
}
);
};
layerId = "97AFB7C9-FE9A-4B33-96EF-7CD144DFB325";
name = "Light Italic";
paths = (
{
closed = 1;
nodes = (
"281 0 LINE",
"326 270 LINE",
"261 270 LINE",
"216 0 LINE"
);
},
{
closed = 1;
nodes = (
"254 25 LINE",
"258 0 LINE",
"364 -2 LINE",
"366 12 LINE",
"254 43 LINE"
);
},
{
closed = 1;
nodes = (
"133 12 LINE",
"135 -2 LINE",
"239 0 LINE",
"272 25 LINE",
"272 43 LINE"
);
},
{
closed = 1;
nodes = (
"197 632 LINE",
"153 629 LINE",
"142 612 LINE",
"265 234 LINE",
"314 269 LINE"
);
},
{
closed = 1;
nodes = (
"648 617 LINE",
"646 631 LINE",
"555 629 LINE",
"518 632 LINE",
"503 604 LINE",
"509 576 LINE"
);
},
{
closed = 1;
nodes = (
"316 244 LINE",
"582 629 LINE",
"555 629 LINE",
"518 632 LINE",
"284 237 LINE"
);
},
{
closed = 1;
nodes = (
"206 604 LINE",
"197 632 LINE",
"153 629 LINE",
"65 631 LINE",
"63 617 LINE",
"199 576 LINE"
);
}
);
width = 578;
},
{
associatedMasterId = "97AFB7C9-FE9A-4B33-96EF-7CD144DFB325";
background = {
paths = (
{
closed = 1;
nodes = (
"551 629 LINE",
"307 267 LINE",
"333 267 LINE",
"190 629 LINE",
"121 629 LINE",
"271 246 LINE",
"325 246 LINE",
"589 629 LINE"
);
},
{
closed = 1;
nodes = (
"289 0 LINE",
"336 280 LINE",
"271 280 LINE",
"224 0 LINE"
);
},
{
closed = 1;
nodes = (
"260 25 LINE",
"271 0 LINE",
"366 -2 LINE",
"368 12 LINE",
"260 43 LINE"
);
},
{
closed = 1;
nodes = (
"146 12 LINE",
"148 -2 LINE",
"252 0 LINE",
"278 25 LINE",
"278 43 LINE"
);
},
{
closed = 1;
nodes = (
"163 604 LINE",
"151 629 LINE",
"67 631 LINE",
"65 617 LINE",
"163 586 LINE"
);
},
{
closed = 1;
nodes = (
"281 617 LINE",
"279 631 LINE",
"170 629 LINE",
"145 604 LINE",
"145 586 LINE"
);
},
{
closed = 1;
nodes = (
"547 604 LINE",
"576 629 LINE",
"448 631 LINE",
"446 617 LINE",
"537 589 LINE"
);
},
{
closed = 1;
nodes = (
"636 617 LINE",
"634 631 LINE",
"565 629 LINE",
"529 604 LINE",
"537 587 LINE"
);
}
);
};
layerId = "DB6891F0-6E92-4D8F-BBDB-4C6EFAE25413";
name = "Light Italic Aug 3 16, 15:42";
paths = (
{
closed = 1;
nodes = (
"551 629 LINE",
"307 267 LINE",
"333 267 LINE",
"190 629 LINE",
"121 629 LINE",
"271 246 LINE",
"325 246 LINE",
"589 629 LINE"
);
},
{
closed = 1;
nodes = (
"289 0 LINE",
"336 280 LINE",
"271 280 LINE",
"224 0 LINE"
);
},
{
closed = 1;
nodes = (
"260 25 LINE",
"271 0 LINE",
"366 -2 LINE",
"368 12 LINE",
"260 43 LINE"
);
},
{
closed = 1;
nodes = (
"146 12 LINE",
"148 -2 LINE",
"252 0 LINE",
"278 25 LINE",
"278 43 LINE"
);
},
{
closed = 1;
nodes = (
"163 604 LINE",
"151 629 LINE",
"67 631 LINE",
"65 617 LINE",
"163 586 LINE"
);
},
{
closed = 1;
nodes = (
"281 617 LINE",
"279 631 LINE",
"170 629 LINE",
"145 604 LINE",
"145 586 LINE"
);
},
{
closed = 1;
nodes = (
"547 604 LINE",
"576 629 LINE",
"448 631 LINE",
"446 617 LINE",
"537 589 LINE"
);
},
{
closed = 1;
nodes = (
"636 617 LINE",
"634 631 LINE",
"565 629 LINE",
"529 604 LINE",
"537 587 LINE"
);
}
);
width = 576;
},
{
layerId = "EADDC163-A127-4E50-A035-005E723BF706";
name = "SemiBold Italic";
width = 600;
},
{
associatedMasterId = "97AFB7C9-FE9A-4B33-96EF-7CD144DFB325";
background = {
paths = (
{
closed = 1;
nodes = (
"551 629 LINE",
"307 267 LINE",
"333 267 LINE",
"190 629 LINE",
"121 629 LINE",
"271 246 LINE",
"325 246 LINE",
"589 629 LINE"
);
},
{
closed = 1;
nodes = (
"289 0 LINE",
"336 280 LINE",
"271 280 LINE",
"224 0 LINE"
);
},
{
closed = 1;
nodes = (
"260 25 LINE",
"271 0 LINE",
"366 -2 LINE",
"368 12 LINE",
"260 43 LINE"
);
},
{
closed = 1;
nodes = (
"146 12 LINE",
"148 -2 LINE",
"252 0 LINE",
"278 25 LINE",
"278 43 LINE"
);
},
{
closed = 1;
nodes = (
"163 604 LINE",
"151 629 LINE",
"67 631 LINE",
"65 617 LINE",
"163 586 LINE"
);
},
{
closed = 1;
nodes = (
"281 617 LINE",
"279 631 LINE",
"170 629 LINE",
"145 604 LINE",
"145 586 LINE"
);
},
{
closed = 1;
nodes = (
"547 604 LINE",
"576 629 LINE",
"448 631 LINE",
"446 617 LINE",
"537 589 LINE"
);
},
{
closed = 1;
nodes = (
"636 617 LINE",
"634 631 LINE",
"565 629 LINE",
"529 604 LINE",
"537 587 LINE"
);
}
);
};
layerId = "7E3F4C28-A64B-4B84-BFE1-90D6BEA753B9";
name = "Light Italic Aug 19 16, 21:36";
paths = (
{
closed = 1;
nodes = (
"551 629 LINE",
"304 247 LINE",
"330 247 LINE",
"190 629 LINE",
"121 629 LINE",
"268 226 LINE",
"322 226 LINE",
"589 629 LINE"
);
},
{
closed = 1;
nodes = (
"289 0 LINE",
"333 260 LINE",
"268 260 LINE",
"224 0 LINE"
);
},
{
closed = 1;
nodes = (
"260 25 LINE",
"271 0 LINE",
"366 -2 LINE",
"368 12 LINE",
"260 43 LINE"
);
},
{
closed = 1;
nodes = (
"146 12 LINE",
"148 -2 LINE",
"252 0 LINE",
"278 25 LINE",
"278 43 LINE"
);
},
{
closed = 1;
nodes = (
"163 604 LINE",
"151 629 LINE",
"67 631 LINE",
"65 617 LINE",
"163 586 LINE"
);
},
{
closed = 1;
nodes = (
"281 617 LINE",
"279 631 LINE",
"170 629 LINE",
"145 604 LINE",
"145 586 LINE"
);
},
{
closed = 1;
nodes = (
"547 604 LINE",
"576 629 LINE",
"448 631 LINE",
"446 617 LINE",
"537 589 LINE"
);
},
{
closed = 1;
nodes = (
"636 617 LINE",
"634 631 LINE",
"565 629 LINE",
"529 604 LINE",
"537 587 LINE"
);
}
);
width = 576;
}
);
unicode = 0059;
},
